<svg xmlns="http://www.w3.org/2000/svg" xmlns:xlink="http://www.w3.org/1999/xlink" version="1.1" x="0px" y="0px" viewBox="0 0 100 100" enable-background="new 0 0 100 100" xml:space="preserve"><g><path d="M56.729,36.694c3.786,0,6.854,3.069,6.854,6.854v13.404c0,3.786-3.069,6.854-6.854,6.854H43.325   c-3.786,0-6.854-3.069-6.854-6.854V43.548c0-3.786,3.069-6.854,6.854-6.854H56.729 M56.729,35.194H43.325   c-4.607,0-8.354,3.748-8.354,8.354v13.404c0,4.607,3.748,8.354,8.354,8.354h13.404c4.607,0,8.354-3.748,8.354-8.354V43.548   C65.083,38.941,61.336,35.194,56.729,35.194L56.729,35.194z"></path><path d="M54.78,41.018c2.47,0,4.479,2.009,4.479,4.479v9.506c0,2.47-2.009,4.479-4.479,4.479h-9.506   c-2.47,0-4.479-2.009-4.479-4.479v-9.506c0-2.47,2.009-4.479,4.479-4.479H54.78 M54.78,40.018h-9.506   c-3.026,0-5.479,2.453-5.479,5.479v9.506c0,3.026,2.453,5.479,5.479,5.479h9.506c3.026,0,5.479-2.453,5.479-5.479v-9.506   C60.259,42.471,57.806,40.018,54.78,40.018L54.78,40.018z"></path><circle cx="43.795" cy="44.018" r="0.896"></circle><circle cx="56.259" cy="44.018" r="0.896"></circle><circle cx="56.259" cy="56.482" r="0.896"></circle><circle cx="43.795" cy="56.482" r="0.896"></circle><g><path d="M51.351,36.069h-2.684c-0.207,0-0.375-0.168-0.375-0.375V34.5c0-0.207,0.168-0.375,0.375-0.375h2.684    c0.207,0,0.375,0.168,0.375,0.375v1.194C51.726,35.901,51.558,36.069,51.351,36.069z M49.042,35.319h1.934v-0.444h-1.934V35.319z"></path><path d="M59.147,36.069h-2.684c-0.207,0-0.375-0.168-0.375-0.375V34.5c0-0.207,0.168-0.375,0.375-0.375h2.684    c0.207,0,0.375,0.168,0.375,0.375v1.194C59.522,35.901,59.354,36.069,59.147,36.069z M56.839,35.319h1.934v-0.444h-1.934V35.319z"></path><path d="M43.553,36.069H40.87c-0.207,0-0.375-0.168-0.375-0.375V34.5c0-0.207,0.168-0.375,0.375-0.375h2.683    c0.207,0,0.375,0.168,0.375,0.375v1.194C43.928,35.901,43.76,36.069,43.553,36.069z M41.245,35.319h1.933v-0.444h-1.933V35.319z"></path><path d="M47.451,36.069h-2.683c-0.207,0-0.375-0.168-0.375-0.375V34.5c0-0.207,0.168-0.375,0.375-0.375h2.683    c0.207,0,0.375,0.168,0.375,0.375v1.194C47.826,35.901,47.658,36.069,47.451,36.069z M45.144,35.319h1.933v-0.444h-1.933V35.319z"></path><path d="M55.249,36.069h-2.684c-0.207,0-0.375-0.168-0.375-0.375V34.5c0-0.207,0.168-0.375,0.375-0.375h2.684    c0.207,0,0.375,0.168,0.375,0.375v1.194C55.624,35.901,55.456,36.069,55.249,36.069z M52.94,35.319h1.934v-0.444H52.94V35.319z"></path></g><g><path d="M51.351,66.375h-2.684c-0.207,0-0.375-0.168-0.375-0.375v-1.193c0-0.207,0.168-0.375,0.375-0.375h2.684    c0.207,0,0.375,0.168,0.375,0.375V66C51.726,66.207,51.558,66.375,51.351,66.375z M49.042,65.625h1.934v-0.443h-1.934V65.625z"></path><path d="M59.147,66.375h-2.684c-0.207,0-0.375-0.168-0.375-0.375v-1.193c0-0.207,0.168-0.375,0.375-0.375h2.684    c0.207,0,0.375,0.168,0.375,0.375V66C59.522,66.207,59.354,66.375,59.147,66.375z M56.839,65.625h1.934v-0.443h-1.934V65.625z"></path><path d="M43.553,66.375H40.87c-0.207,0-0.375-0.168-0.375-0.375v-1.193c0-0.207,0.168-0.375,0.375-0.375h2.683    c0.207,0,0.375,0.168,0.375,0.375V66C43.928,66.207,43.76,66.375,43.553,66.375z M41.245,65.625h1.933v-0.443h-1.933V65.625z"></path><path d="M47.451,66.375h-2.683c-0.207,0-0.375-0.168-0.375-0.375v-1.193c0-0.207,0.168-0.375,0.375-0.375h2.683    c0.207,0,0.375,0.168,0.375,0.375V66C47.826,66.207,47.658,66.375,47.451,66.375z M45.144,65.625h1.933v-0.443h-1.933V65.625z"></path><path d="M55.249,66.375h-2.684c-0.207,0-0.375-0.168-0.375-0.375v-1.193c0-0.207,0.168-0.375,0.375-0.375h2.684    c0.207,0,0.375,0.168,0.375,0.375V66C55.624,66.207,55.456,66.375,55.249,66.375z M52.94,65.625h1.934v-0.443H52.94V65.625z"></path></g><g><path d="M65.777,51.796h-1.194c-0.207,0-0.375-0.168-0.375-0.375v-2.683c0-0.207,0.168-0.375,0.375-0.375h1.194    c0.207,0,0.375,0.168,0.375,0.375v2.683C66.152,51.628,65.984,51.796,65.777,51.796z M64.958,51.046h0.444v-1.933h-0.444V51.046z"></path><path d="M65.777,43.999h-1.194c-0.207,0-0.375-0.168-0.375-0.375v-2.683c0-0.207,0.168-0.375,0.375-0.375h1.194    c0.207,0,0.375,0.168,0.375,0.375v2.683C66.152,43.831,65.984,43.999,65.777,43.999z M64.958,43.249h0.444v-1.933h-0.444V43.249z"></path><path d="M65.777,59.593h-1.194c-0.207,0-0.375-0.168-0.375-0.375v-2.683c0-0.207,0.168-0.375,0.375-0.375h1.194    c0.207,0,0.375,0.168,0.375,0.375v2.683C66.152,59.425,65.984,59.593,65.777,59.593z M64.958,58.843h0.444V56.91h-0.444V58.843z"></path><path d="M65.777,55.694h-1.194c-0.207,0-0.375-0.168-0.375-0.375v-2.683c0-0.207,0.168-0.375,0.375-0.375h1.194    c0.207,0,0.375,0.168,0.375,0.375v2.683C66.152,55.526,65.984,55.694,65.777,55.694z M64.958,54.944h0.444v-1.933h-0.444V54.944z"></path><path d="M65.777,47.897h-1.194c-0.207,0-0.375-0.168-0.375-0.375v-2.683c0-0.207,0.168-0.375,0.375-0.375h1.194    c0.207,0,0.375,0.168,0.375,0.375v2.683C66.152,47.729,65.984,47.897,65.777,47.897z M64.958,47.147h0.444v-1.933h-0.444V47.147z"></path></g><g><path d="M35.471,51.967h-1.193c-0.207,0-0.375-0.168-0.375-0.375v-2.683c0-0.207,0.168-0.375,0.375-0.375h1.193    c0.207,0,0.375,0.168,0.375,0.375v2.683C35.846,51.799,35.678,51.967,35.471,51.967z M34.652,51.217h0.443v-1.933h-0.443V51.217z"></path><path d="M35.471,44.169h-1.193c-0.207,0-0.375-0.168-0.375-0.375v-2.683c0-0.207,0.168-0.375,0.375-0.375h1.193    c0.207,0,0.375,0.168,0.375,0.375v2.683C35.846,44.001,35.678,44.169,35.471,44.169z M34.652,43.419h0.443v-1.933h-0.443V43.419z"></path><path d="M35.471,59.764h-1.193c-0.207,0-0.375-0.168-0.375-0.375v-2.684c0-0.207,0.168-0.375,0.375-0.375h1.193    c0.207,0,0.375,0.168,0.375,0.375v2.684C35.846,59.596,35.678,59.764,35.471,59.764z M34.652,59.014h0.443V57.08h-0.443V59.014z"></path><path d="M35.471,55.865h-1.193c-0.207,0-0.375-0.168-0.375-0.375v-2.684c0-0.207,0.168-0.375,0.375-0.375h1.193    c0.207,0,0.375,0.168,0.375,0.375v2.684C35.846,55.697,35.678,55.865,35.471,55.865z M34.652,55.115h0.443v-1.934h-0.443V55.115z"></path><path d="M35.471,48.068h-1.193c-0.207,0-0.375-0.168-0.375-0.375V45.01c0-0.207,0.168-0.375,0.375-0.375h1.193    c0.207,0,0.375,0.168,0.375,0.375v2.683C35.846,47.9,35.678,48.068,35.471,48.068z M34.652,47.318h0.443v-1.933h-0.443V47.318z"></path></g><path d="M42.531,34.502l-0.75-0.005l0.055-8.282l-3.623-4.451c-0.055-0.067-0.084-0.15-0.084-0.237V10.653h0.75v10.742l3.624,4.452   c0.055,0.067,0.085,0.152,0.084,0.239L42.531,34.502z"></path><path d="M46.485,34.312h-0.75V21.046l-2.761-4.345l0.633-0.402l2.819,4.438c0.038,0.06,0.059,0.13,0.059,0.201V34.312z"></path><path d="M50.402,34.5h-0.75V23.312c0-0.061,0.015-0.121,0.043-0.175l2.495-4.73V8.5h0.75v10c0,0.061-0.015,0.121-0.043,0.175   l-2.495,4.73V34.5z"></path><path d="M54.173,34.765L53.907,34.5v-0.375V34.5l-0.372-0.04c0.019-0.272,0.009-5.208-0.003-8.458c0-0.064,0.016-0.128,0.048-0.184   l2.623-4.709l0.654,0.365l-2.575,4.623C54.312,34.625,54.312,34.625,54.173,34.765z"></path><path d="M58.181,34.5h-0.75v-7.062c0-0.065,0.017-0.129,0.049-0.186l2.333-4.101v-5.713c0-0.063,0.016-0.125,0.046-0.181   l2.438-4.438l0.658,0.361l-2.392,4.353v5.716c0,0.065-0.017,0.129-0.049,0.186l-2.333,4.101V34.5z"></path><path d="M74.688,42.657h-8.91v-0.75h8.796l4.53-3.031l0.418,0.623l-4.625,3.095C74.834,42.635,74.762,42.657,74.688,42.657z"></path><path d="M81.562,46.556H65.777v-0.75h15.693l5.794-3.014l0.346,0.665l-5.875,3.056C81.682,46.542,81.623,46.556,81.562,46.556z"></path><path d="M91.917,53.012H81.104c-0.053,0-0.104-0.011-0.153-0.032l-5.643-2.525h-9.531v-0.75h9.611c0.053,0,0.104,0.011,0.153,0.033   l5.643,2.524h10.732V53.012z"></path><rect x="66.125" y="53.603" width="9.264" height="0.75"></rect><path d="M84.338,60.818l-5.255-2.566H65.777v-0.75H79.17c0.057,0,0.113,0.013,0.165,0.038l5.333,2.604L84.338,60.818z"></path><path d="M52.94,86.364h-0.75v-6.896l-2.516-4.404c-0.033-0.057-0.05-0.12-0.05-0.186V66h0.75v8.779l2.516,4.404   c0.033,0.057,0.05,0.12,0.05,0.186V86.364z"></path><path d="M58.502,90.769h-0.75v-8.96l-4.162-6.644c-0.038-0.06-0.058-0.129-0.058-0.199V66h0.75v8.858l4.162,6.644   c0.038,0.06,0.058,0.129,0.058,0.199V90.769z"></path><rect x="57.431" y="66" width="0.75" height="7.138"></rect><path d="M44.29,87.314h-0.75v-3.109c0-0.056,0.013-0.111,0.037-0.162l2.158-4.499V66h0.75v13.629c0,0.056-0.013,0.111-0.037,0.162   L44.29,84.29V87.314z"></path><path d="M39.828,81.181l-0.656-0.361l2.609-4.733V66h0.75v10.183c0,0.063-0.016,0.126-0.047,0.181L39.828,81.181z"></path><path d="M34.277,50.625H26.75c-0.049,0-0.098-0.01-0.143-0.028l-3.667-1.512l0.285-0.693l3.599,1.484h7.453V50.625z"></path><path d="M34.277,46.727h-8.194c-0.06,0-0.118-0.014-0.171-0.041l-4.919-2.516h-5.826v-0.75h5.916c0.06,0,0.118,0.014,0.171,0.041   l4.919,2.516h8.104V46.727z"></path><path d="M34.277,42.828h-7.61c-0.065,0-0.131-0.017-0.188-0.05l-8.497-4.903H9.25v-0.75h8.833c0.065,0,0.131,0.017,0.188,0.05   l8.497,4.903h7.51V42.828z"></path><path d="M34.277,54.523H16c-0.068,0-0.136-0.019-0.194-0.055l-4.5-2.728l0.389-0.641l4.41,2.673h18.173V54.523z"></path><path d="M16.639,63.22l-0.443-0.605l6.639-4.87c0.064-0.047,0.142-0.072,0.222-0.072h11.222v0.75H23.179L16.639,63.22z"></path><path d="M38.504,11.332c-0.819,0-1.486-0.667-1.486-1.487s0.667-1.487,1.486-1.487c0.82,0,1.487,0.667,1.487,1.487   S39.324,11.332,38.504,11.332z M38.504,9.107c-0.406,0-0.736,0.331-0.736,0.737s0.33,0.737,0.736,0.737s0.737-0.331,0.737-0.737   S38.91,9.107,38.504,9.107z"></path><path d="M42.792,17.154c-0.82,0-1.487-0.667-1.487-1.487c0-0.82,0.667-1.487,1.487-1.487s1.487,0.667,1.487,1.487   C44.279,16.487,43.612,17.154,42.792,17.154z M42.792,14.93c-0.406,0-0.737,0.331-0.737,0.737c0,0.407,0.331,0.737,0.737,0.737   s0.737-0.331,0.737-0.737C43.529,15.26,43.198,14.93,42.792,14.93z"></path><path d="M56.958,21.875c-0.82,0-1.487-0.667-1.487-1.487s0.667-1.487,1.487-1.487s1.487,0.667,1.487,1.487   S57.778,21.875,56.958,21.875z M56.958,19.65c-0.406,0-0.737,0.331-0.737,0.737s0.331,0.737,0.737,0.737s0.737-0.331,0.737-0.737   S57.364,19.65,56.958,19.65z"></path><path d="M63.042,13.779c-0.82,0-1.487-0.667-1.487-1.487c0-0.82,0.667-1.487,1.487-1.487s1.487,0.667,1.487,1.487   C64.529,13.112,63.862,13.779,63.042,13.779z M63.042,11.555c-0.406,0-0.737,0.331-0.737,0.737c0,0.407,0.331,0.737,0.737,0.737   s0.737-0.331,0.737-0.737C63.779,11.885,63.448,11.555,63.042,11.555z"></path><path d="M80.153,40.1c-0.82,0-1.487-0.667-1.487-1.487s0.667-1.487,1.487-1.487s1.487,0.667,1.487,1.487S80.974,40.1,80.153,40.1z    M80.153,37.875c-0.406,0-0.737,0.331-0.737,0.737s0.331,0.737,0.737,0.737s0.737-0.331,0.737-0.737S80.56,37.875,80.153,37.875z"></path><path d="M88.306,44.154c-0.82,0-1.487-0.667-1.487-1.487c0-0.82,0.667-1.487,1.487-1.487s1.487,0.667,1.487,1.487   C89.793,43.487,89.126,44.154,88.306,44.154z M88.306,41.93c-0.406,0-0.737,0.331-0.737,0.737c0,0.407,0.331,0.737,0.737,0.737   s0.737-0.331,0.737-0.737C89.043,42.26,88.712,41.93,88.306,41.93z"></path><path d="M92.75,54.124c-0.82,0-1.487-0.667-1.487-1.487s0.667-1.487,1.487-1.487s1.487,0.667,1.487,1.487   S93.57,54.124,92.75,54.124z M92.75,51.899c-0.406,0-0.737,0.331-0.737,0.737s0.331,0.737,0.737,0.737s0.737-0.331,0.737-0.737   S93.156,51.899,92.75,51.899z"></path><path d="M76.252,55.465c-0.82,0-1.487-0.667-1.487-1.487c0-0.819,0.667-1.486,1.487-1.486s1.487,0.667,1.487,1.486   C77.739,54.798,77.072,55.465,76.252,55.465z M76.252,53.241c-0.406,0-0.737,0.33-0.737,0.736s0.331,0.737,0.737,0.737   s0.737-0.331,0.737-0.737S76.658,53.241,76.252,53.241z"></path><path d="M57.806,75.945c-0.82,0-1.487-0.667-1.487-1.487s0.667-1.487,1.487-1.487s1.487,0.667,1.487,1.487   S58.626,75.945,57.806,75.945z M57.806,73.721c-0.406,0-0.737,0.331-0.737,0.737s0.331,0.737,0.737,0.737s0.737-0.331,0.737-0.737   S58.212,73.721,57.806,73.721z"></path><path d="M39,83.279c-0.82,0-1.487-0.667-1.487-1.487S38.18,80.305,39,80.305s1.487,0.667,1.487,1.487S39.82,83.279,39,83.279z    M39,81.055c-0.406,0-0.737,0.331-0.737,0.737s0.331,0.737,0.737,0.737s0.737-0.331,0.737-0.737S39.406,81.055,39,81.055z"></path><path d="M15.667,64.945c-0.82,0-1.487-0.667-1.487-1.487s0.667-1.487,1.487-1.487s1.487,0.667,1.487,1.487   S16.487,64.945,15.667,64.945z M15.667,62.721c-0.406,0-0.737,0.331-0.737,0.737s0.331,0.737,0.737,0.737s0.737-0.331,0.737-0.737   S16.073,62.721,15.667,62.721z"></path><path d="M10.792,52.404c-0.82,0-1.487-0.667-1.487-1.488c0-0.82,0.667-1.487,1.487-1.487s1.487,0.667,1.487,1.487   C12.279,51.737,11.612,52.404,10.792,52.404z M10.792,50.18c-0.406,0-0.737,0.331-0.737,0.737c0,0.407,0.331,0.738,0.737,0.738   s0.737-0.331,0.737-0.738C11.529,50.51,11.198,50.18,10.792,50.18z"></path><path d="M22.25,49.869c-0.82,0-1.487-0.667-1.487-1.487s0.667-1.487,1.487-1.487s1.487,0.667,1.487,1.487   S23.07,49.869,22.25,49.869z M22.25,47.645c-0.406,0-0.737,0.331-0.737,0.737s0.331,0.737,0.737,0.737s0.737-0.331,0.737-0.737   S22.656,47.645,22.25,47.645z"></path><path d="M14.292,45.282c-0.82,0-1.487-0.667-1.487-1.487s0.667-1.487,1.487-1.487s1.487,0.667,1.487,1.487   S15.112,45.282,14.292,45.282z M14.292,43.057c-0.406,0-0.737,0.331-0.737,0.737s0.331,0.737,0.737,0.737s0.737-0.331,0.737-0.737   S14.698,43.057,14.292,43.057z"></path><path d="M8.333,38.987c-0.82,0-1.487-0.667-1.487-1.487s0.667-1.487,1.487-1.487S9.82,36.68,9.82,37.5S9.153,38.987,8.333,38.987z    M8.333,36.763c-0.406,0-0.737,0.331-0.737,0.737s0.331,0.737,0.737,0.737S9.07,37.907,9.07,37.5S8.739,36.763,8.333,36.763z"></path><path d="M43.915,89.658c-0.82,0-1.487-0.667-1.487-1.487s0.667-1.487,1.487-1.487s1.487,0.667,1.487,1.487   S44.735,89.658,43.915,89.658z M43.915,87.434c-0.406,0-0.737,0.331-0.737,0.737s0.331,0.737,0.737,0.737s0.737-0.331,0.737-0.737   S44.321,87.434,43.915,87.434z"></path><path d="M52.565,88.802c-0.82,0-1.487-0.667-1.487-1.487s0.667-1.487,1.487-1.487s1.487,0.667,1.487,1.487   S53.386,88.802,52.565,88.802z M52.565,86.577c-0.406,0-0.737,0.331-0.737,0.737s0.331,0.737,0.737,0.737s0.737-0.331,0.737-0.737   S52.972,86.577,52.565,86.577z"></path><path d="M58.127,93.112c-0.82,0-1.487-0.667-1.487-1.487s0.667-1.487,1.487-1.487s1.487,0.667,1.487,1.487   S58.947,93.112,58.127,93.112z M58.127,90.888c-0.406,0-0.737,0.331-0.737,0.737s0.331,0.737,0.737,0.737s0.737-0.331,0.737-0.737   S58.533,90.888,58.127,90.888z"></path><path d="M85.292,62.32c-0.82,0-1.487-0.667-1.487-1.487s0.667-1.487,1.487-1.487s1.487,0.667,1.487,1.487   S86.112,62.32,85.292,62.32z M85.292,60.096c-0.406,0-0.737,0.331-0.737,0.737s0.331,0.737,0.737,0.737s0.737-0.331,0.737-0.737   S85.698,60.096,85.292,60.096z"></path><path d="M52.565,9.107c-0.82,0-1.487-0.667-1.487-1.487s0.667-1.487,1.487-1.487S54.053,6.8,54.053,7.62S53.386,9.107,52.565,9.107   z M52.565,6.883c-0.406,0-0.737,0.331-0.737,0.737s0.331,0.737,0.737,0.737s0.737-0.331,0.737-0.737S52.972,6.883,52.565,6.883z"></path><path d="M68.149,21.55c-0.063,0-0.128-0.024-0.177-0.073l-1.347-1.346c-0.098-0.098-0.098-0.256,0-0.354   c0.097-0.097,0.255-0.098,0.354,0l1.347,1.346c0.098,0.098,0.098,0.256,0,0.354C68.277,21.525,68.214,21.55,68.149,21.55z"></path><path d="M65.403,18.804c-0.063,0-0.128-0.024-0.177-0.073l-1.303-1.302c-0.098-0.098-0.098-0.256,0-0.354   c0.097-0.097,0.255-0.098,0.354,0l1.303,1.302c0.098,0.098,0.098,0.256,0,0.354C65.531,18.779,65.468,18.804,65.403,18.804z"></path><path d="M64.101,21.55c-0.064,0-0.128-0.024-0.177-0.073c-0.098-0.098-0.098-0.256,0-0.354l1.303-1.303   c0.099-0.098,0.257-0.096,0.354,0c0.098,0.098,0.098,0.256,0,0.354l-1.303,1.303C64.229,21.525,64.164,21.55,64.101,21.55z"></path><path d="M66.803,18.847c-0.064,0-0.128-0.024-0.177-0.073c-0.098-0.098-0.098-0.256,0-0.354l1.347-1.346   c0.098-0.098,0.256-0.097,0.354,0c0.098,0.098,0.098,0.256,0,0.354l-1.347,1.346C66.931,18.823,66.866,18.847,66.803,18.847z"></path><path d="M94.619,60.78c-0.063,0-0.128-0.024-0.177-0.073l-1.346-1.346c-0.098-0.098-0.098-0.256,0-0.354s0.256-0.098,0.354,0   l1.346,1.346c0.098,0.098,0.098,0.256,0,0.354C94.747,60.756,94.684,60.78,94.619,60.78z"></path><path d="M91.873,58.034c-0.064,0-0.128-0.024-0.177-0.073l-1.303-1.303c-0.098-0.098-0.098-0.256,0-0.354s0.256-0.098,0.354,0   l1.303,1.303c0.098,0.098,0.098,0.256,0,0.354C92.001,58.01,91.938,58.034,91.873,58.034z"></path><path d="M90.57,60.78c-0.064,0-0.128-0.024-0.177-0.073c-0.098-0.098-0.098-0.256,0-0.354l1.303-1.303   c0.097-0.097,0.255-0.099,0.354,0c0.098,0.098,0.098,0.256,0,0.354l-1.303,1.303C90.698,60.756,90.635,60.78,90.57,60.78z"></path><path d="M93.273,58.078c-0.063,0-0.128-0.024-0.177-0.073c-0.098-0.098-0.098-0.256,0-0.354l1.346-1.347   c0.098-0.098,0.256-0.098,0.354,0s0.098,0.256,0,0.354l-1.346,1.347C93.401,58.054,93.338,58.078,93.273,58.078z"></path><path d="M38.495,76.732c-0.063,0-0.128-0.024-0.177-0.073l-1.346-1.346c-0.098-0.098-0.098-0.256,0-0.354s0.256-0.098,0.354,0   l1.346,1.346c0.098,0.098,0.098,0.256,0,0.354C38.623,76.708,38.56,76.732,38.495,76.732z"></path><path d="M35.749,73.986c-0.063,0-0.128-0.024-0.177-0.073l-1.303-1.302c-0.098-0.098-0.098-0.256,0-0.354   c0.097-0.097,0.255-0.099,0.354,0l1.303,1.302c0.098,0.098,0.098,0.256,0,0.354C35.877,73.962,35.813,73.986,35.749,73.986z"></path><path d="M34.446,76.732c-0.064,0-0.128-0.024-0.177-0.073c-0.098-0.098-0.098-0.256,0-0.354l1.303-1.303   c0.098-0.098,0.256-0.098,0.354,0s0.098,0.256,0,0.354l-1.303,1.303C34.574,76.708,34.51,76.732,34.446,76.732z"></path><path d="M37.149,74.03c-0.063,0-0.128-0.024-0.177-0.073c-0.098-0.098-0.098-0.256,0-0.354l1.346-1.346   c0.099-0.099,0.257-0.097,0.354,0c0.098,0.098,0.098,0.256,0,0.354l-1.346,1.346C37.277,74.006,37.214,74.03,37.149,74.03z"></path><path d="M62.526,79.769c-0.064,0-0.128-0.024-0.177-0.073l-0.754-0.755c-0.098-0.098-0.098-0.256,0-0.354s0.256-0.098,0.354,0   l0.754,0.755c0.098,0.099,0.098,0.257,0,0.354C62.654,79.744,62.59,79.769,62.526,79.769z"></path><path d="M60.988,78.23c-0.064,0-0.128-0.024-0.177-0.073l-0.729-0.73c-0.098-0.099-0.098-0.257,0-0.354   c0.099-0.099,0.257-0.097,0.354,0l0.729,0.73c0.098,0.098,0.098,0.256,0,0.354C61.116,78.206,61.053,78.23,60.988,78.23z"></path><path d="M60.259,79.769c-0.064,0-0.128-0.024-0.177-0.073c-0.098-0.098-0.098-0.256,0-0.354l0.729-0.73   c0.098-0.098,0.256-0.098,0.354,0s0.098,0.256,0,0.354l-0.729,0.73C60.387,79.744,60.323,79.769,60.259,79.769z"></path><path d="M61.772,78.255c-0.064,0-0.128-0.024-0.177-0.073c-0.098-0.098-0.098-0.256,0-0.354l0.754-0.755   c0.097-0.097,0.255-0.099,0.354,0c0.098,0.097,0.098,0.255,0,0.354l-0.754,0.755C61.9,78.23,61.837,78.255,61.772,78.255z"></path><path d="M86.918,38.078c-0.064,0-0.128-0.024-0.177-0.073l-0.754-0.754c-0.098-0.098-0.098-0.256,0-0.354s0.256-0.098,0.354,0   l0.754,0.754c0.098,0.098,0.098,0.256,0,0.354C87.046,38.053,86.981,38.078,86.918,38.078z"></path><path d="M85.38,36.54c-0.064,0-0.128-0.024-0.177-0.073l-0.729-0.73c-0.098-0.098-0.098-0.256,0-0.354   c0.098-0.099,0.256-0.097,0.354,0l0.729,0.73c0.098,0.098,0.098,0.256,0,0.354C85.508,36.515,85.444,36.54,85.38,36.54z"></path><path d="M84.65,38.078c-0.064,0-0.128-0.024-0.177-0.073c-0.098-0.098-0.098-0.256,0-0.354l0.729-0.73   c0.097-0.097,0.255-0.099,0.354,0c0.098,0.097,0.098,0.256,0,0.354l-0.729,0.73C84.778,38.053,84.715,38.078,84.65,38.078z"></path><path d="M86.164,36.564c-0.063,0-0.128-0.024-0.177-0.073c-0.098-0.097-0.098-0.256,0-0.354l0.754-0.754   c0.097-0.097,0.255-0.099,0.354,0c0.098,0.097,0.098,0.256,0,0.354l-0.754,0.754C86.292,36.54,86.229,36.564,86.164,36.564z"></path><path d="M45.825,12.037c-0.064,0-0.128-0.024-0.177-0.073l-0.754-0.754c-0.098-0.098-0.098-0.256,0-0.354s0.256-0.098,0.354,0   l0.754,0.754c0.098,0.098,0.098,0.256,0,0.354C45.953,12.013,45.889,12.037,45.825,12.037z"></path><path d="M44.287,10.499c-0.064,0-0.128-0.024-0.177-0.073l-0.729-0.729c-0.098-0.098-0.098-0.256,0-0.354s0.256-0.098,0.354,0   l0.729,0.729c0.098,0.098,0.098,0.256,0,0.354C44.415,10.475,44.352,10.499,44.287,10.499z"></path><path d="M43.558,12.037c-0.064,0-0.128-0.024-0.177-0.073c-0.098-0.098-0.098-0.256,0-0.354l0.729-0.729   c0.098-0.098,0.256-0.098,0.354,0s0.098,0.256,0,0.354l-0.729,0.729C43.686,12.013,43.622,12.037,43.558,12.037z"></path><path d="M45.071,10.523c-0.063,0-0.128-0.024-0.177-0.073c-0.098-0.097-0.098-0.256,0-0.354l0.754-0.754   c0.098-0.098,0.256-0.098,0.354,0s0.098,0.256,0,0.354l-0.754,0.754C45.199,10.499,45.136,10.523,45.071,10.523z"></path><path d="M30.948,40.571c-0.063,0-0.128-0.024-0.177-0.073l-0.754-0.754c-0.098-0.098-0.098-0.256,0-0.354   c0.099-0.098,0.257-0.097,0.354,0l0.754,0.754c0.098,0.097,0.098,0.256,0,0.354C31.076,40.547,31.013,40.571,30.948,40.571z"></path><path d="M29.41,39.033c-0.064,0-0.128-0.024-0.177-0.073l-0.729-0.729c-0.098-0.098-0.098-0.256,0-0.354s0.256-0.098,0.354,0   l0.729,0.729c0.098,0.098,0.098,0.256,0,0.354C29.538,39.009,29.475,39.033,29.41,39.033z"></path><path d="M28.681,40.571c-0.064,0-0.128-0.024-0.177-0.073c-0.098-0.098-0.098-0.256,0-0.354l0.729-0.729   c0.098-0.098,0.256-0.098,0.354,0s0.098,0.256,0,0.354l-0.729,0.729C28.809,40.547,28.745,40.571,28.681,40.571z"></path><path d="M30.194,39.058c-0.063,0-0.128-0.024-0.177-0.073c-0.098-0.097-0.098-0.256,0-0.354l0.754-0.754   c0.099-0.098,0.257-0.097,0.354,0c0.098,0.098,0.098,0.256,0,0.354l-0.754,0.754C30.322,39.033,30.259,39.058,30.194,39.058z"></path><path d="M70.757,62.596c-0.064,0-0.128-0.024-0.177-0.073l-0.754-0.754c-0.098-0.099-0.098-0.257,0-0.354   c0.099-0.098,0.257-0.097,0.354,0l0.754,0.754c0.098,0.098,0.098,0.256,0,0.354C70.885,62.571,70.821,62.596,70.757,62.596z"></path><path d="M69.219,61.058c-0.064,0-0.128-0.024-0.177-0.073l-0.729-0.729c-0.098-0.098-0.098-0.256,0-0.354s0.256-0.098,0.354,0   l0.729,0.729c0.098,0.098,0.098,0.256,0,0.354C69.347,61.033,69.283,61.058,69.219,61.058z"></path><path d="M68.489,62.596c-0.064,0-0.128-0.024-0.177-0.073c-0.098-0.098-0.098-0.256,0-0.354l0.729-0.729   c0.098-0.098,0.256-0.098,0.354,0s0.098,0.256,0,0.354l-0.729,0.729C68.617,62.571,68.554,62.596,68.489,62.596z"></path><path d="M70.003,61.082c-0.064,0-0.128-0.024-0.177-0.073c-0.098-0.098-0.098-0.256,0-0.354l0.754-0.754   c0.097-0.097,0.255-0.099,0.354,0c0.098,0.097,0.098,0.255,0,0.354l-0.754,0.754C70.131,61.058,70.067,61.082,70.003,61.082z"></path><path d="M17.913,59.631c-0.063,0-0.128-0.024-0.177-0.073l-0.754-0.754c-0.098-0.099-0.098-0.257,0-0.354   c0.099-0.099,0.257-0.097,0.354,0l0.754,0.754c0.098,0.097,0.098,0.256,0,0.354C18.041,59.606,17.978,59.631,17.913,59.631z"></path><path d="M16.375,58.093c-0.064,0-0.128-0.024-0.177-0.073l-0.729-0.729c-0.098-0.098-0.098-0.256,0-0.354s0.256-0.098,0.354,0   l0.729,0.729c0.098,0.098,0.098,0.256,0,0.354C16.503,58.068,16.439,58.093,16.375,58.093z"></path><path d="M15.646,59.631c-0.064,0-0.128-0.024-0.177-0.073c-0.098-0.098-0.098-0.256,0-0.354l0.729-0.729   c0.098-0.098,0.256-0.098,0.354,0s0.098,0.256,0,0.354l-0.729,0.729C15.773,59.606,15.71,59.631,15.646,59.631z"></path><path d="M17.159,58.117c-0.064,0-0.128-0.024-0.177-0.073c-0.098-0.098-0.098-0.256,0-0.354l0.754-0.754   c0.098-0.098,0.256-0.098,0.354,0s0.098,0.256,0,0.354l-0.754,0.754C17.287,58.093,17.224,58.117,17.159,58.117z"></path><path d="M8.727,45.399c-0.064,0-0.128-0.024-0.177-0.073L7.204,43.98c-0.098-0.098-0.098-0.256,0-0.354   c0.098-0.099,0.256-0.097,0.354,0l1.346,1.346c0.098,0.098,0.098,0.256,0,0.354C8.854,45.375,8.79,45.399,8.727,45.399z"></path><path d="M5.981,42.653c-0.063,0-0.128-0.024-0.177-0.073l-1.303-1.303c-0.098-0.098-0.098-0.256,0-0.354   c0.098-0.098,0.256-0.097,0.354,0l1.303,1.303c0.098,0.098,0.098,0.256,0,0.354C6.109,42.629,6.046,42.653,5.981,42.653z"></path><path d="M4.679,45.399c-0.063,0-0.128-0.024-0.177-0.073c-0.098-0.097-0.098-0.255,0-0.354l1.303-1.303   c0.099-0.099,0.257-0.097,0.354,0c0.098,0.098,0.098,0.256,0,0.354l-1.303,1.303C4.807,45.375,4.743,45.399,4.679,45.399z"></path><path d="M7.381,42.697c-0.063,0-0.128-0.024-0.177-0.073c-0.098-0.098-0.098-0.256,0-0.354l1.346-1.346   c0.097-0.097,0.255-0.098,0.354,0c0.098,0.098,0.098,0.256,0,0.354l-1.346,1.346C7.509,42.672,7.445,42.697,7.381,42.697z"></path></g></svg>