<svg xmlns="http://www.w3.org/2000/svg" xmlns:xlink="http://www.w3.org/1999/xlink" version="1.1" x="0px" y="0px" viewBox="0 0 100 100" enable-background="new 0 0 100 100" xml:space="preserve"><g><path d="M92.917,39.795l-52.169-9.726L7.083,34.186V78.95l33.658,3.812l8.723-1.455h42.203v-2.5H64.452l28.465-4.748V39.795z    M41.958,32.838l3.29,0.613v46.024l-3.29,0.549V32.838z M47.748,33.917l2.5,0.466v44.258l-2.5,0.417V33.917z M52.748,78.225V34.85   l2.5,0.466v42.492L52.748,78.225z M57.748,35.782l2.5,0.466v40.726l-2.5,0.417V35.782z M62.748,36.714l2.5,0.466v38.96l-2.5,0.417   V36.714z M67.748,37.646l2.5,0.466v37.193l-2.5,0.417V37.646z M72.748,38.578l2.5,0.466v35.428l-2.5,0.417V38.578z M77.748,39.51   l2.5,0.466v33.661l-2.5,0.417V39.51z M82.748,40.442l2.5,0.466v31.896l-2.5,0.417V40.442z M9.583,36.398l29.875-3.653v47.355   L9.583,76.718V36.398z M90.417,71.941l-2.669,0.445V41.375l2.669,0.498V71.941z"></path><polygon points="36.701,36.392 10.917,39.152 10.917,75.074 13.417,75.074 13.417,41.399 36.966,38.877  "></polygon><rect x="13.25" y="84.75" width="59.25" height="2.5"></rect><rect x="75.25" y="84.75" width="8.25" height="2.5"></rect><path d="M36.833,27.25h-7.382c0.36-5.113,4.625-9.167,9.828-9.167c0.346,0,0.709,0.022,1.108,0.066l1.095,0.123l0.259-1.071   c1.298-5.369,6.06-9.118,11.579-9.118c6.576,0,11.927,5.35,11.927,11.927c0,0.204-0.015,0.404-0.028,0.604l-0.146,2.261   l1.893-0.851c1.129-0.508,2.323-0.765,3.549-0.765c4.36,0,7.97,3.236,8.579,7.43H73.5v2.5h14.833v-2.5h-6.712   c-0.624-5.578-5.364-9.93-11.105-9.93c-0.95,0-1.885,0.12-2.795,0.357c-0.463-7.541-6.744-13.534-14.399-13.534   c-6.32,0-11.819,4.063-13.721,10.005c-0.108-0.003-0.214-0.005-0.32-0.005c-6.582,0-11.963,5.174-12.328,11.667H13.25v2.5h23.583   V27.25z"></path></g></svg>