<svg xmlns="http://www.w3.org/2000/svg" xmlns:xlink="http://www.w3.org/1999/xlink" version="1.1" x="0px" y="0px" viewBox="0 0 100 100" enable-background="new 0 0 100 100" xml:space="preserve"><path d="M36.576,60.735c0.704,3.05-0.114,7.382-3.721,8.194c-3.583,0.808-5.467-2.411-5.524-5.567c-0.035-1.936,2.965-1.933,3,0  c0.016,0.846,0.088,1.907,0.786,2.496c0.354,0.297,0.745,0.292,1.275,0.071c1.538-0.637,1.625-2.947,1.291-4.397  C33.249,59.649,36.142,58.851,36.576,60.735z M65.599,54.449c-0.037,2.025-0.742,4.508-2.503,5.727  c-1.816,1.258-2.2-2.267-2.312-3.497c-0.173-1.91-3.175-1.928-3,0c0.273,3.023,1.746,8.132,5.892,6.548  c3.361-1.284,4.863-5.47,4.923-8.777C68.634,52.514,65.634,52.517,65.599,54.449z M94.513,55.51  c-4.926,5.407-11.335,9.05-16.944,13.672c-5.239,4.317-9.95,9.189-15.488,13.137c-0.515,5.349-2.147,10.648-7.102,11.352  c-3.913,0.556-8.789-0.9-11.091-4.309c-0.796-1.18-1.328-2.497-1.762-3.862c-5.228-0.602-10.48-1.632-15.488-3.231  c-6.693-2.138-13.809-2.497-20.488-4.831c-0.627-0.219-1.115-0.747-1.102-1.446c0.139-7.168,1.684-14.271,3.405-21.205  c1.86-7.487-1.93-15.896-1.322-23.732c0.28-3.603-0.151-10.392,4.417-11.626c3.257-0.88,6.944,3.153,8.931,5.11  c3.827,3.771,7.63,7.443,11.781,10.858c1.783,1.466,8.63-0.347,10.693-0.685c2.917-0.478,5.976-0.896,8.775-1.882  c3.439-1.21,4.638-3.054,5.648-6.402c0.801-2.652,1.566-5.325,2.526-7.926c1.672-4.53,3.575-9.157,7.538-12.142  c0.42-0.317,1.085-0.24,1.514,0c7.556,4.221,9.226,13.216,11.162,20.942c0.586,2.339,1.148,4.716,2.006,6.975  c1.196,3.149,3.005,5.1,5.184,7.622c3.197,3.701,5.757,7.604,7.592,12.152C95.1,54.548,94.846,55.145,94.513,55.51z M81.993,40.653  c-2.329-2.365-3.356-7.071-4.156-10.151c-1.132-4.363-1.945-8.915-3.642-13.107c-0.993-2.453-2.264-5.111-4.355-6.835  c-2.21-1.821-3.089,0.305-4.257,2.456c-2.256,4.154-3.638,8.657-4.998,13.164c-0.588,1.948-1.209,6.521-3.31,7.615  c-3.366,1.754-7.158,2.698-10.878,3.357c-4.118,0.729-9.104,1.966-13.276,1.45c-2.68-0.331-3.927-2.033-5.997-3.651  c-3.184-2.488-5.862-5.501-8.767-8.292c-1.441-1.386-2.955-3.033-4.788-3.899c-2.795-1.321-3.099,3.082-3.199,4.808  c-0.433,7.408,0.09,14.389,1.531,21.688c0.759,3.845-0.921,7.58-1.734,11.366C9.154,65.338,8.289,70.078,8.09,74.9  c5.963,1.858,12.256,2.211,18.169,4.099c4.874,1.556,9.911,2.73,14.992,3.392c-0.665-2.487-1.388-4.927-3.081-6.826  c-1.283-1.438,0.831-3.568,2.121-2.121c2.339,2.622,3.005,5.885,3.945,9.176c1.202,4.207,4.576,9.581,9.945,8.158  c6.25-1.657,5.1-12.855,5.088-17.759c-0.005-1.935,2.995-1.935,3,0c0.004,1.419,0.061,3.331,0.021,5.423  c4.578-3.582,8.555-7.811,13.156-11.381c4.774-3.705,10.298-7.017,14.603-11.241C93.98,51.962,84.768,43.471,81.993,40.653z   M54.852,83.286c-0.882-0.503-1.99-0.447-2.937-0.2c-1.792,0.466-3.263,2.045-3.044,3.921c-0.013,0.099-0.005,0.207,0.033,0.324  c0.498,1.542,2.038,1.949,3.498,1.674c1.63-0.308,2.994-1.687,3.244-3.32C55.79,84.747,55.729,83.786,54.852,83.286z M38.076,46.869  c0.123,0.653-0.743,1.379-1.254,0.729c-0.225-0.286-0.37-0.529-0.403-0.897c-0.006-0.065,0.012-0.115,0.02-0.172  c-0.232-0.735-0.557-1.439-0.726-2.195c-0.21-0.942,1.236-1.343,1.447-0.398C37.384,44.94,37.884,45.854,38.076,46.869z   M37.919,46.701c-0.012-0.055-0.024-0.108-0.036-0.163c-0.004,0.002-0.007,0.004-0.011,0.006  C37.888,46.597,37.913,46.642,37.919,46.701z M42.109,43.936c-0.193-1.251-0.567-2.452-0.917-3.665  c-0.269-0.928-1.716-0.533-1.447,0.398c0.351,1.213,0.724,2.415,0.917,3.665C40.81,45.288,42.255,44.881,42.109,43.936z   M48.524,44.119c-0.181-1.271-0.327-2.548-0.34-3.833c-0.01-0.967-1.51-0.968-1.5,0c0.014,1.42,0.194,2.827,0.393,4.231  C47.213,45.473,48.658,45.064,48.524,44.119z M55.489,42.502c0.414-1.171,0.221-2.468,0.21-3.683c-0.009-0.967-1.509-0.968-1.5,0  c0.01,1.077,0.21,2.247-0.157,3.284C53.719,43.018,55.168,43.407,55.489,42.502z M52.033,52.933  c-0.014-1.59-0.172-3.175-0.184-4.765c-0.008-0.967-1.508-0.968-1.5,0c0.012,1.59,0.17,3.175,0.184,4.765  C50.541,53.899,52.041,53.9,52.033,52.933z M45.774,52.184c-0.212-1.486-0.706-2.912-0.916-4.398  c-0.136-0.955-1.581-0.547-1.447,0.398c0.211,1.486,0.705,2.912,0.916,4.398C44.463,53.537,45.908,53.129,45.774,52.184z   M43.025,58.232c-0.233-1.631-0.774-3.574-1.726-4.944c-0.548-0.788-1.849-0.039-1.295,0.758c0.885,1.273,1.357,3.067,1.573,4.585  C41.715,59.586,43.16,59.178,43.025,58.232z M46.867,58.432c0.012,1.18,0.157,2.391,0.576,3.499c0.339,0.896,1.79,0.508,1.447-0.398  c-0.376-0.994-0.513-2.042-0.523-3.101C48.357,57.465,46.857,57.464,46.867,58.432z M45.698,67.219  c-0.73-1.311-1.33-2.731-1.573-4.22c-0.156-0.953-1.602-0.547-1.447,0.398c0.264,1.604,0.938,3.165,1.726,4.579  C44.874,68.821,46.17,68.064,45.698,67.219z M49.99,71.247c-0.367-1.65-0.733-3.3-1.1-4.949c-0.211-0.944-1.656-0.544-1.447,0.398  c0.367,1.649,0.733,3.3,1.1,4.949C48.753,72.59,50.199,72.189,49.99,71.247z M53.283,66.863c0.012,1.347,0.17,2.687,0.183,4.033  c0.01,0.967,1.51,0.968,1.5,0c-0.013-1.347-0.171-2.687-0.183-4.033C54.775,65.896,53.275,65.896,53.283,66.863z M46.163,72.814  c-0.776-0.579-1.522,0.724-0.758,1.295c0.973,0.727,1.06,2.528,1.488,3.585c0.359,0.884,1.811,0.498,1.447-0.398  C47.71,75.742,47.602,73.889,46.163,72.814z M50.926,76.411c0.198,1.133,0.056,2.243,0.626,3.294  c0.461,0.85,1.757,0.093,1.295-0.758c-0.474-0.873-0.308-1.979-0.474-2.935C52.207,75.061,50.762,75.466,50.926,76.411z   M55.115,74.746c-0.012,1.225-0.171,2.44-0.183,3.665c-0.01,0.968,1.49,0.967,1.5,0c0.012-1.225,0.171-2.44,0.183-3.665  C56.625,73.778,55.125,73.779,55.115,74.746z M65.562,33.871c0.026,0.965,1.526,0.968,1.5,0c-0.014-0.51,0.09-1.006,0.256-1.487  l1.832-2.706c0.56-0.544,1.168-1.021,1.758-1.392c0.816-0.513,0.064-1.812-0.758-1.295C67.865,28.427,65.484,31.002,65.562,33.871z   M73.816,30.107c-2.084,1.15-4.353,2.342-5.294,4.664c-0.363,0.896,1.089,1.283,1.447,0.398c0.757-1.869,2.948-2.854,4.604-3.768  C75.421,30.935,74.664,29.64,73.816,30.107z M66.33,26.906c0.106-2.132,2.317-3.689,3.63-5.151c0.645-0.718-0.413-1.782-1.061-1.061  c-1.642,1.828-3.937,3.554-4.069,6.212C64.782,27.873,66.282,27.869,66.33,26.906z M15.191,42.495  c-0.906-0.344-1.294,1.107-0.398,1.447c1.396,0.529,2.635,1.263,3.851,2.123c0.792,0.561,1.54-0.741,0.758-1.295  C18.072,43.83,16.713,43.072,15.191,42.495z M15.741,37.546c-0.944-0.19-1.347,1.256-0.398,1.447  c2.249,0.454,3.957,2.091,5.533,3.656c0.687,0.683,1.747-0.378,1.061-1.061C20.187,39.85,18.237,38.05,15.741,37.546z M15.525,33.86  c1.702,0.446,2.965,2.01,4.067,3.29c0.632,0.734,1.688-0.332,1.061-1.061c-1.283-1.491-2.754-3.157-4.729-3.677  C14.987,32.167,14.591,33.614,15.525,33.86z M18.657,59.882c-1.429-0.037-2.791-0.507-4.199-0.707  c-0.945-0.134-1.354,1.312-0.398,1.447c1.542,0.219,3.03,0.72,4.598,0.76C19.625,61.406,19.623,59.906,18.657,59.882z   M12.975,64.314c0.92,0.014,1.83,0.17,2.75,0.184c0.968,0.014,0.967-1.486,0-1.5c-0.92-0.014-1.83-0.17-2.75-0.184  C12.007,62.801,12.008,64.301,12.975,64.314z M15.709,67.606c-1.445,0.423-2.888,0.976-3.997,2.026  c-0.703,0.666,0.359,1.726,1.061,1.061c0.918-0.869,2.144-1.292,3.335-1.64C17.034,68.782,16.64,67.335,15.709,67.606z   M18.095,71.349c-0.797,0.608-1.525,1.304-2.382,1.833c-0.82,0.508-0.067,1.806,0.758,1.295c0.858-0.531,1.583-1.223,2.382-1.833  c0.324-0.247,0.494-0.641,0.269-1.026C18.934,71.298,18.421,71.1,18.095,71.349z M77.514,44.338  c-1.089,1.071-2.394,2.029-3.05,3.451c-0.402,0.872,0.89,1.635,1.295,0.758c0.602-1.303,1.817-2.166,2.815-3.148  C79.265,44.719,78.203,43.659,77.514,44.338z M81.538,49.915c1.425-0.712,2.846-1.386,4.402-1.757  c0.94-0.225,0.542-1.672-0.398-1.447c-1.68,0.401-3.225,1.142-4.762,1.909C79.915,49.053,80.675,50.346,81.538,49.915z   M83.542,53.683c1.422-0.176,2.873-0.049,4.232-0.576c0.892-0.347,0.505-1.797-0.398-1.447c-1.236,0.479-2.541,0.364-3.834,0.523  C82.595,52.3,82.584,53.801,83.542,53.683z M84.642,56.766c-1.597,0.172-3.205,0.043-4.782,0.393  c-0.944,0.21-0.544,1.656,0.398,1.447c1.44-0.32,2.925-0.183,4.384-0.34C85.593,58.163,85.603,56.662,84.642,56.766z M54.224,61.738  C54.005,60.439,54,59,54,58s-1.5-1-1.5,0c0.001,1,0.035,2.796,0.276,4.23C52.937,63.183,54.382,62.684,54.224,61.738z"></path></svg>
