<svg xmlns="http://www.w3.org/2000/svg" xmlns:xlink="http://www.w3.org/1999/xlink" version="1.1" x="0px" y="0px" viewBox="38 -38 100 100" style="enable-background:new 38 -38 100 100;" xml:space="preserve"><path d="M105.5-27h-34c-1.9,0-3.5,1.6-3.5,3.5v39c0,1.9,1.6,3.5,3.5,3.5h34c1.9,0,3.5-1.6,3.5-3.5v-39C109-25.4,107.4-27,105.5-27z   M80,4h-8V1h8V4z M93,4h-9V1h9V4z M105,4h-8V1h8V4z"></path><path d="M109.5-33h-42c-3,0-5.5,2.5-5.5,5.5v48.8c0,2.9,1.1,5.6,3,7.7l5.1,5.6l0.1,0.1c3.5,3.8,3.9,4.2,4.8,4.2h8v13.2l1.4,4.8h8.3  l1.4-4.8V39h8c0.9,0,1.3-0.4,4.8-4.2l5.2-5.8c1.9-2.1,3-4.9,3-7.7v-48.8C115-30.5,112.5-33,109.5-33z M77,36v-3h6v3H77z M90,49v-6  h-3v6h-1V33h5v16H90z M86.6,54l-0.6-2h4.9l-0.6,2H86.6z M94,33h6v3h-6V33z M112,21.3c0,2.1-0.8,4.1-2.2,5.7l-5.1,5.6l-0.1,0.1  c-0.5,0.6-1.1,1.2-1.6,1.7v-3c0-0.8-0.7-1.5-1.5-1.5h-26c-0.8,0-1.5,0.7-1.5,1.5v3c-0.5-0.6-1.1-1.2-1.6-1.7L67.2,27  c-1.4-1.6-2.2-3.6-2.2-5.7v-48.8c0-1.4,1.1-2.5,2.5-2.5h42c1.4,0,2.5,1.1,2.5,2.5V21.3z"></path><ellipse transform="matrix(-0.7071 0.7071 -0.7071 -0.7071 151.8282 -14.8889)" cx="79" cy="24" rx="3.6" ry="2.2"></ellipse><ellipse transform="matrix(-0.7071 0.7071 -0.7071 -0.7071 182.5605 -27.6174)" cx="97" cy="24" rx="3.6" ry="2.2"></ellipse><ellipse transform="matrix(-0.7071 0.7071 -0.7071 -0.7071 167.1971 -21.2535)" cx="88" cy="24" rx="3.6" ry="2.2"></ellipse></svg>