<svg xmlns:dc="http://purl.org/dc/elements/1.1/" xmlns:cc="http://creativecommons.org/ns#" xmlns:rdf="http://www.w3.org/1999/02/22-rdf-syntax-ns#" xmlns:svg="http://www.w3.org/2000/svg" xmlns="http://www.w3.org/2000/svg" xmlns:sodipodi="http://sodipodi.sourceforge.net/DTD/sodipodi-0.dtd" xmlns:inkscape="http://www.inkscape.org/namespaces/inkscape" version="1.1" viewBox="0 0 135.466 135.466" x="0px" y="0px"><path style="" d="m 53.8702,63.978 c -0.062,0.155 -0.8448,-0.02 -2.2479,-0.356 -0.5311,-0.128 -1.3798,-0.329 -2.1519,-0.586 -0.7135,-0.239 -1.4643,-0.553 -2.2677,-0.96 -0.6965,-0.351 -1.4039,-0.759 -2.1412,-1.137 -0.7378,-0.378 -1.7989,-0.86 -2.711,-1.414 C 41.7652,59.166 41.2266,58.774 40.6971,58.436 39.9066,57.928 38.9854,57.456 38.012,56.851 37.0972,56.28 36.2216,55.636 35.3538,54.934 34.4624,54.215 33.5622,53.422 32.7,52.543 32.0728,51.914 31.5306,51.286 30.9718,50.917 30.4109,50.516 29.5426,50.188 28.5975,49.52 c -1.0016,-0.753 -1.6808,-1.612 -2.3157,-2.337 -0.8674,-0.972 -1.8604,-1.857 -2.9226,-2.867 -0.1384,-0.131 -0.277,-0.263 -0.4155,-0.397 -0.476,-0.46 -0.9443,-0.929 -1.4002,-1.416 -0.6374,-0.674 -1.2617,-1.416 -1.7888,-2.282 -0.5991,-1.016 -0.984,-2.048 -1.3639,-2.87 -0.3411,-0.729 -0.7513,-1.462 -1.1032,-2.365 -0.8644,-2.288 -0.8419,-4.698 -0.267,-6.783 0.2064,-0.75 0.4685,-1.447 0.7003,-2.073 0.2996,-0.864 0.6619,-1.802 1.3345,-2.684 0.7426,-0.923 1.7474,-1.515 2.7901,-1.765 1.052,-0.246 2.09,-0.157 2.9889,0.141 1.3763,0.469 2.4231,1.332 3.1768,2.141 0.843,0.894 1.702,2.096 2.1955,2.739 0.9162,1.19 1.3625,1.71 1.8012,2.493 0.3159,0.565 0.399,0.906 0.3178,0.959 -0.09,0.06 -0.3419,-0.17 -0.7912,-0.593 -0.4885,-0.46 -1.2472,-1.11 -2.2212,-2.065 -0.7235,-0.707 -1.4835,-1.589 -2.4062,-2.389 -0.7326,-0.625 -1.634,-1.267 -2.6021,-1.489 -0.6238,-0.151 -1.3172,-0.166 -1.9387,0.03 -0.6108,0.188 -1.2023,0.586 -1.5819,1.125 -0.3899,0.502 -0.5877,1.225 -0.8903,2.106 -0.209,0.651 -0.4285,1.301 -0.5695,1.911 -0.3874,1.684 -0.3626,3.591 0.3318,5.263 0.2626,0.658 0.6742,1.358 1.0732,2.185 0.4727,0.969 0.8131,1.893 1.2711,2.622 0.3747,0.623 0.891,1.213 1.469,1.834 0.4186,0.444 0.8574,0.881 1.3121,1.321 0.1323,0.127 0.2654,0.255 0.399,0.382 1.0283,0.975 2.0733,1.924 3.063,3.043 0.7374,0.82 1.2632,1.557 1.8835,1.993 0.5488,0.427 1.4169,0.774 2.3193,1.419 0.8651,0.648 1.5018,1.387 2.043,1.982 0.7574,0.817 1.5684,1.577 2.3826,2.285 0.7953,0.689 1.569,1.31 2.364,1.855 0.8436,0.581 1.764,1.115 2.6341,1.741 0.5814,0.42 1.0771,0.831 1.5534,1.165 0.7902,0.56 1.6711,1.023 2.5,1.538 0.7587,0.472 1.417,0.935 2.0332,1.329 0.7128,0.454 1.3616,0.82 1.9855,1.124 0.727,0.356 1.4105,0.631 1.9779,0.892 1.337,0.615 2.0065,1.073 1.9499,1.214 z" fill="#000000" stroke="none"></path><path style="" d="m 62.2726,58.807 c -0.1687,-0.05 0.055,-1.089 0.04,-2.92 -0.01,-0.944 -0.095,-2.03 -0.3439,-3.347 -0.5102,-2.723 -1.1814,-4.211 -2.301,-7.895 -0.2324,-0.76 -0.4519,-1.535 -0.6955,-2.305 -0.2785,-0.876 -0.6384,-1.903 -0.8725,-2.986 -0.1964,-0.939 -0.2818,-1.808 -0.3973,-2.684 -0.1482,-1.115 -0.3493,-2.223 -0.5661,-3.422 -0.1386,-0.763 -0.2851,-1.574 -0.3916,-2.409 -0.1593,-1.261 -0.2133,-2.483 -0.3899,-3.623 -0.1067,-0.694 -0.2561,-1.379 -0.469,-2.035 0,0 0,0 0,0 -0.2319,-0.73 -0.5632,-1.47 -0.8984,-2.309 -0.3484,-0.857 -0.6543,-1.715 -1.0006,-2.458 -0.1494,-0.32 -0.3073,-0.622 -0.4825,-0.902 -0.5932,-0.989 -1.4469,-1.847 -2.3902,-2.582 -0.7093,-0.546 -1.4547,-1.007 -2.2291,-1.355 -0.757,-0.347 -1.607,-0.604 -2.4731,-0.857 -0.7734,-0.223 -1.8238,-0.508 -2.5973,-0.731 -1.2744,-0.362 -2.3808,-0.709 -3.4985,-0.883 -1.1666,-0.174 -2.2606,-0.191 -3.2098,0.105 -0.6425,0.182 -1.2992,0.539 -1.9554,0.909 -0.7605,0.439 -1.4395,0.862 -2.0427,1.342 -0.6009,0.478 -1.1133,0.985 -1.8697,1.481 -1.4765,0.926 -2.8306,1.188 -3.7567,1.744 -0.4748,0.285 -0.859,0.6 -1.1245,0.966 0,0 0,0 0,0 -0.3039,0.421 -0.4697,0.875 -0.471,1.29 -0.016,0.392 0.1284,0.823 0.2688,1.178 0,0 0,0 0,0 0.1723,0.423 0.4111,0.867 0.5834,1.29 0.2564,0.631 0.2858,0.997 0.2008,1.035 -0.099,0.04 -0.3102,-0.239 -0.7106,-0.739 -0.1724,-0.216 -0.5938,-0.722 -0.877,-1.162 0,0 0,0 0,0 -0.244,-0.372 -0.5056,-0.885 -0.596,-1.52 -0.079,-0.674 0.059,-1.423 0.4611,-2.103 0,0 0,0 0,0 0.3434,-0.584 0.8285,-1.098 1.4184,-1.517 1.1436,-0.811 2.5616,-1.233 3.5533,-1.996 0.4974,-0.361 0.9831,-0.904 1.6299,-1.477 0.6904,-0.611 1.4361,-1.138 2.2225,-1.638 0.6728,-0.438 1.4571,-0.896 2.3742,-1.219 1.3704,-0.455 2.8229,-0.523 4.2369,-0.329 1.3429,0.177 2.5706,0.514 3.8194,0.843 0.8474,0.221 1.7238,0.438 2.6225,0.679 0.9027,0.239 1.8714,0.522 2.8403,0.939 0.9857,0.431 1.9136,0.987 2.7723,1.639 1.1568,0.869 2.2327,1.959 3.0554,3.29 0.2295,0.383 0.4315,0.77 0.6145,1.156 0.4267,0.9 0.7498,1.8 1.0632,2.604 0.3113,0.783 0.6596,1.588 0.9462,2.493 0,0 0,0 0,0 0.2555,0.821 0.428,1.645 0.54,2.455 0.1827,1.331 0.2191,2.569 0.3405,3.701 0.079,0.749 0.2029,1.524 0.3226,2.291 0.1889,1.204 0.3652,2.366 0.4867,3.558 0.097,0.939 0.1425,1.744 0.2803,2.524 0.15,0.891 0.4545,1.878 0.7029,2.818 0.2106,0.793 0.4094,1.649 0.5865,2.365 0.8651,3.477 1.5075,5.502 1.7486,8.247 0.1233,1.423 0.066,2.622 -0.088,3.617 -0.3059,1.963 -0.9105,2.881 -1.0337,2.844 z" fill="#000000" stroke="none"></path><path style="" d="m 61.5186,46.312 c -0.1652,-0.08 0.017,-0.663 0.1272,-1.72 0.14,-1.272 -0.2033,-3.209 0.04,-6.04 0.053,-0.608 0.1496,-1.201 0.2044,-1.769 0.2215,-2.144 -0.2261,-4.728 -0.074,-7.824 0.093,-1.789 0.4269,-3.55 0.884,-5.353 0.1858,-0.741 0.3907,-1.486 0.5377,-2.184 0.1225,-0.574 0.2186,-1.169 0.3337,-1.813 0.051,-0.289 0.1057,-0.582 0.1644,-0.878 0.093,-0.468 0.1964,-0.937 0.3159,-1.407 0.22,-0.874 0.5084,-1.75 0.916,-2.6 0.3669,-0.754 0.8065,-1.438 1.2751,-2.056 0.4924,-0.651 1.0129,-1.241 1.4916,-1.782 0.8595,-0.976 1.6718,-1.897 2.5899,-2.786 0.8258,-0.806 1.7064,-1.524 2.6949,-2.092 1.0881,-0.63 2.2699,-0.991 3.4456,-1.044 0.7868,-0.03 1.5508,0.1 2.2401,0.368 0.7714,0.305 1.4059,0.801 1.8587,1.391 0.663,0.901 0.864,1.886 0.8869,2.649 0.095,2.403 -1.0298,3.244 -1.0807,3.222 -0.2047,-0.09 0.2574,-1.27 -0.1489,-3.072 C 80.0794,8.928 79.8212,8.212 79.3398,7.751 79.03,7.434 78.5981,7.185 78.1008,7.041 77.6524,6.911 77.144,6.883 76.6094,6.951 c -0.8036,0.09 -1.6275,0.434 -2.4421,0.957 -0.7442,0.481 -1.4288,1.12 -2.1482,1.875 -0.7995,0.845 -1.5242,1.738 -2.3659,2.75 -0.4643,0.561 -0.9346,1.119 -1.3334,1.674 -0.3794,0.529 -0.7228,1.079 -0.9865,1.648 -0.3025,0.64 -0.5239,1.354 -0.7194,2.122 -0.1041,0.414 -0.1961,0.839 -0.2825,1.275 -0.055,0.274 -0.1063,0.552 -0.157,0.83 -0.1119,0.619 -0.2186,1.248 -0.3639,1.905 -0.1794,0.803 -0.4015,1.574 -0.5927,2.28 -0.4609,1.719 -0.8147,3.3 -0.9492,4.863 -0.2423,2.7 0.034,5.484 -0.4004,7.94 -0.1189,0.65 -0.2651,1.215 -0.361,1.729 -0.4526,2.395 -0.4728,4.681 -0.97,6.016 -0.4198,1.11 -0.8978,1.559 -1.0186,1.502 z" fill="#000000" stroke="none"></path><path style="" d="m 81.0165,9.039 c 0.047,0 -0.9772,-0.989 0.5392,-2.471 0.3411,-0.337 0.8386,-0.647 1.4924,-0.763 0.8129,-0.101 1.6293,0.08 2.3145,0.452 0.8248,0.413 1.3889,0.842 2.0955,1.288 0,0 0,0 0,0 0.5787,0.34 1.1531,0.668 1.6491,0.705 0.2607,0.05 0.6458,0.02 1.1608,0.05 0.5048,0 1.1352,0.107 1.8191,0.436 0.07,0.04 0.1369,0.08 0.2016,0.125 0.5237,0.341 0.8771,0.708 1.1143,1.005 0.3036,0.313 0.4678,0.543 0.5959,0.589 0.126,0.123 0.6777,0.186 1.4121,0.541 0.492,0.25 0.9024,0.615 1.2081,1.055 0.32,0.464 0.4978,0.992 0.537,1.531 0.027,0.634 -0.1032,1.17 -0.2923,1.593 -0.1927,0.45 -0.4158,0.817 -0.589,1.101 -0.2315,0.385 -0.4354,0.744 -0.6211,1.086 -0.2267,0.423 -0.4085,0.783 -0.6833,1.166 -0.8389,1.155 -1.6768,1.209 -1.7813,1.071 -0.1513,-0.2 0.2962,-0.754 0.5681,-1.705 0.09,-0.304 0.1565,-0.68 0.2843,-1.158 0.1097,-0.418 0.2506,-0.861 0.4267,-1.326 0.1292,-0.347 0.2723,-0.69 0.3356,-0.963 0.052,-0.259 0.088,-0.489 0.036,-0.627 -0.028,-0.116 -0.097,-0.241 -0.1852,-0.337 -0.084,-0.09 -0.2064,-0.175 -0.3353,-0.225 -0.5106,-0.246 -1.0577,-0.279 -1.5683,-0.525 -0.6145,-0.361 -1.0281,-0.77 -1.3085,-1.107 -0.2621,-0.259 -0.435,-0.473 -0.5551,-0.537 -0.015,0 -0.029,-0.01 -0.043,-0.02 -0.097,-0.09 -0.3649,-0.101 -0.7184,-0.147 -0.3826,-0.02 -0.8604,-0.02 -1.4561,-0.126 -1.1043,-0.239 -1.9623,-0.757 -2.5999,-1.268 0,0 0,0 0,0 C 85.3419,8.974 84.8056,8.459 84.2971,8.109 83.8286,7.821 83.5093,7.607 83.2074,7.603 c -0.2317,-0.04 -0.511,0.04 -0.7476,0.145 -0.8902,0.407 -1.1681,1.306 -1.443,1.291 z" fill="#000000" stroke="none"></path><path style="" d="m 68.736,62.254 c -0.1176,-0.278 2.1123,-1.502 5.9297,-3.417 0.6674,-0.34 1.4291,-0.712 1.9941,-1.171 0.7333,-0.565 1.2489,-1.296 2.0934,-2.236 0.7624,-0.859 1.6037,-1.662 2.3669,-2.51 1.0877,-1.205 2.1388,-2.691 3.558,-4.142 1.0241,-1.039 2.1327,-1.921 3.0517,-2.877 1.02,-1.05 1.9657,-2.383 3.2085,-3.688 0.8941,-0.929 1.8573,-1.747 2.8455,-2.527 0.3023,-0.239 0.6043,-0.472 0.9023,-0.701 2.4292,-1.897 4.5678,-3.47 5.9749,-5.595 0.573,-0.863 1.01,-1.728 1.173,-2.597 0.152,-0.695 0.137,-1.606 0.212,-2.523 0.07,-0.916 0.21,-1.716 0.249,-2.434 0.03,-0.765 0,-1.436 -0.228,-1.977 -0.196,-0.551 -0.695,-1.171 -1.077,-1.985 -0.418,-0.941 -0.577,-1.891 -0.722,-2.599 -0.202,-0.853 -0.3706,-1.509 -0.7531,-1.987 -0.4033,-0.564 -1.0798,-0.914 -1.6678,-1.1 0,0 0,0 0,0 -0.3151,-0.08 -0.5437,-0.141 -0.7361,-0.1 -0.234,0.02 -0.4899,0.219 -0.6871,0.39 -0.2986,0.272 -0.5362,0.569 -0.7394,0.744 0,0 0,0 0,0 -0.2356,0.204 -0.3965,0.264 -0.4485,0.218 -0.056,-0.05 0,-0.205 0.1049,-0.47 0,0 0,0 0,0 0.065,-0.158 0.2512,-0.623 0.4811,-0.983 0.177,-0.288 0.4811,-0.643 0.985,-0.857 0.419,-0.151 0.8644,-0.171 1.2829,-0.1 0,0 0,0 0,0 0.7993,0.106 1.7723,0.457 2.5611,1.27 0.655,0.721 1.048,1.601 1.311,2.528 0.238,0.756 0.436,1.599 0.772,2.173 0.281,0.516 0.815,1.097 1.259,2.018 0.414,0.935 0.557,1.926 0.534,2.88 0,0.888 -0.112,1.729 -0.141,2.505 -0.02,0.773 0.02,1.766 -0.148,2.819 -0.229,1.297 -0.76,2.495 -1.461,3.561 -1.707,2.589 -4.0434,4.436 -6.4753,6.291 -0.2935,0.228 -0.5875,0.456 -0.8767,0.685 -0.9466,0.747 -1.8233,1.479 -2.5921,2.275 -1.0792,1.105 -2.062,2.445 -3.2795,3.662 -1.1087,1.098 -2.2349,1.947 -3.1499,2.823 -1.2785,1.214 -2.3918,2.663 -3.658,3.938 -0.8909,0.895 -1.7625,1.637 -2.5011,2.372 -0.8111,0.817 -1.5124,1.615 -2.5264,2.306 -0.8328,0.544 -1.7102,0.885 -2.4161,1.147 -4.0074,1.517 -6.452,2.236 -6.5659,1.967 z" fill="#000000" stroke="none"></path><path style="" d="m 73.2603,60.531 c -0.025,-0.06 1.8837,-1.382 6.0002,-2.008 0,0 0,0 0,0 1.0011,-0.152 2.1041,-0.237 3.2461,-0.431 1.1162,-0.188 2.166,-0.471 3.4685,-0.814 0,0 0,0 0,0 1.2147,-0.321 2.6439,-0.692 4.1138,-0.892 1.4761,-0.196 2.7798,-0.211 4.3038,-0.302 1.1427,-0.07 2.331,-0.181 3.451,-0.456 1.6076,-0.389 3.3473,-1.216 5.5043,-1.491 1.44,-0.159 2.799,-0.01 4.013,-0.09 1.093,-0.06 2.271,-0.329 3.584,-0.509 1.279,-0.178 2.619,-0.249 3.985,-0.149 1.274,0.09 2.559,0.345 3.813,0.762 0.878,0.295 1.676,0.642 2.437,0.906 0.855,0.296 1.892,0.565 2.938,1.025 1.047,0.472 1.994,1.105 2.842,1.83 0.6,0.504 1.189,1.094 1.699,1.803 0.508,0.702 0.9,1.539 1.083,2.477 0.25,1.502 -0.04,2.697 0.181,3.435 0.06,0.318 0.251,0.708 0.448,1.213 0.216,0.496 0.413,1.122 0.463,1.88 0,0.868 -0.202,1.626 -0.496,2.242 -0.275,0.613 -0.568,1.111 -0.762,1.548 0,0 0,0 0,0 -0.566,1.205 -0.719,2.673 -0.844,4.252 -0.04,0.62 -0.07,1.235 -0.08,1.844 0,0.354 0,0.706 0,1.054 0.02,0.598 0.07,1.291 0,2.08 -0.06,0.806 -0.344,1.678 -0.948,2.464 -0.775,0.852 -1.561,1.243 -1.994,1.548 0,0 0,0 0,0 -0.201,0.161 -0.363,0.302 -0.441,0.437 -0.07,0.13 -0.127,0.241 -0.111,0.291 -0.02,0.04 0.03,0.152 0.09,0.312 0.06,0.162 0.192,0.367 0.341,0.631 0,0 0,0 0,0 0.158,0.262 0.332,0.59 0.482,0.997 0,0 0,0 0,0 0.16,0.411 0.23,0.913 0.166,1.474 -0.1,0.574 -0.331,1.062 -0.657,1.438 0,0 0,0 0,0 -0.32,0.374 -0.674,0.653 -1.028,0.851 0,0 0,0 0,0 -0.71,0.394 -1.325,0.578 -1.751,0.764 -0.73,0.314 -1.542,0.943 -2.649,1.431 -1.146,0.475 -2.29,0.653 -3.325,0.742 -1.142,0.118 -2.336,0.165 -3.563,0 -1.281,-0.192 -2.448,-0.596 -3.504,-1.026 -1.125,-0.447 -2.105,-0.896 -3.094,-1.166 -1.027,-0.291 -2.217,-0.431 -3.457,-0.79 -1.186,-0.356 -2.258,-0.868 -3.2305,-1.37 -1.6078,-0.821 -3.1394,-1.682 -4.5928,-2.566 -1.0927,-0.663 -2.0397,-1.275 -3.0528,-1.814 -1.5482,-0.831 -3.206,-1.475 -4.7631,-2.273 -1.1053,-0.567 -2.0904,-1.161 -3.0491,-1.632 -0.8823,-0.434 -1.8265,-0.82 -2.7171,-1.33 -0.8619,-0.5 -1.662,-1.109 -2.3364,-1.594 -0.7487,-0.536 -1.5541,-1.073 -2.253,-1.542 0,0 0,0 0,0 -1.2346,-0.827 -2.2248,-1.501 -3.2027,-2.224 -0.7854,-0.581 -1.5703,-1.201 -2.3558,-1.782 -1.2104,-0.895 -1.6824,-1.192 -2.2481,-1.665 -0.2593,-0.216 -0.3785,-0.35 -0.3514,-0.394 0.027,-0.04 0.2,0 0.511,0.132 0.4117,0.171 1.4336,0.656 2.5133,1.277 0.8727,0.503 1.4395,0.883 2.5248,1.558 1.0483,0.652 1.9954,1.203 3.3131,1.976 0,0 0,0 0,0 0.7311,0.428 1.5671,0.92 2.3782,1.44 0.7268,0.464 1.5247,1.016 2.2824,1.404 0.7826,0.408 1.6978,0.732 2.6777,1.168 1.0647,0.473 2.0913,1.039 3.1381,1.53 1.4738,0.692 3.1452,1.281 4.8719,2.138 1.1235,0.56 2.129,1.169 3.206,1.787 1.4336,0.821 2.9388,1.621 4.5133,2.384 0.954,0.458 1.909,0.9 2.861,1.154 0.99,0.277 2.161,0.389 3.441,0.72 1.223,0.326 2.3,0.789 3.364,1.2 1.001,0.377 1.99,0.718 2.95,0.834 0.919,0.127 1.91,0.06 2.967,-0.05 0.951,-0.115 1.847,-0.24 2.565,-0.574 0.712,-0.301 1.501,-0.928 2.607,-1.441 0.648,-0.297 1.184,-0.444 1.5,-0.649 0,0 0,0 0,0 0.155,-0.1 0.278,-0.186 0.334,-0.269 0,0 0,0 0,0 0.05,-0.08 0.09,-0.139 0.08,-0.151 0.02,-0.01 -0.01,-0.09 -0.05,-0.229 0,0 0,0 0,0 -0.04,-0.138 -0.15,-0.318 -0.284,-0.557 0,0 0,0 0,0 -0.14,-0.234 -0.313,-0.526 -0.48,-0.894 -0.174,-0.368 -0.293,-0.827 -0.308,-1.364 0.02,-0.667 0.214,-1.26 0.538,-1.732 0.315,-0.465 0.682,-0.826 1.056,-1.098 0,0 0,0 0,0 0.741,-0.578 1.372,-0.824 1.536,-1.118 0.198,-0.193 0.288,-0.594 0.359,-1.056 0.06,-0.473 0,-1.047 -0.01,-1.726 -0.01,-0.396 -0.02,-0.789 -0.01,-1.181 0.01,-0.672 0.04,-1.335 0.09,-1.985 0.1,-1.669 0.33,-3.443 1.08,-5.156 0,0 0,0 0,0 0.279,-0.611 0.571,-1.104 0.762,-1.534 0.174,-0.436 0.311,-0.803 0.278,-1.078 0.01,-0.241 -0.12,-0.579 -0.272,-1.006 -0.174,-0.426 -0.4,-0.947 -0.559,-1.601 -0.307,-1.561 -0.02,-2.775 -0.181,-3.555 -0.08,-0.49 -0.32,-0.99 -0.638,-1.461 -0.326,-0.478 -0.769,-0.919 -1.258,-1.349 -0.704,-0.605 -1.443,-1.12 -2.224,-1.476 -0.784,-0.37 -1.729,-0.616 -2.73,-0.981 -0.877,-0.32 -1.657,-0.674 -2.395,-0.93 -1.05,-0.369 -2.139,-0.598 -3.223,-0.698 -1.162,-0.109 -2.341,-0.07 -3.495,0.07 -1.223,0.145 -2.401,0.388 -3.77,0.447 -1.481,0.05 -2.774,-0.129 -3.897,-0.02 -1.69,0.131 -3.416,0.905 -5.2969,1.297 -1.3137,0.271 -2.6119,0.353 -3.8048,0.38 -1.5911,0.04 -2.8285,0 -4.1904,0.126 -1.34,0.121 -2.7372,0.416 -3.961,0.672 0,0 0,0 0,0 -1.3086,0.275 -2.4386,0.509 -3.6385,0.636 -1.2377,0.13 -2.3353,0.136 -3.3025,0.205 0,0 0,0 0,0 -3.9289,0.276 -6.05,1.133 -6.1176,0.958 z" fill="#000000" stroke="none"></path><path style="" d="m 60.3417,72.723 c 0.113,0.02 0.2549,1.227 -0.3554,3.362 -0.2543,0.891 -0.6745,1.896 -0.9254,3.013 -0.2015,0.871 -0.2777,1.793 -0.3097,2.896 -0.037,1.379 0.012,2.642 0.056,4.288 0.039,1.381 0.069,2.986 -0.076,4.601 -0.088,0.961 -0.2381,1.911 -0.3416,2.846 -0.1983,1.78 -0.2382,3.631 -0.1773,5.619 0,0 0,0 0,0 0.057,1.762 0.2117,3.847 0.058,5.9 -0.1484,1.899 -0.5629,3.688 -0.5701,5.378 -0.015,0.999 0.1178,2.089 0.1828,3.281 0.059,1.023 0.056,2.007 0.1883,2.863 0,0 0,0 0,0 0.1099,0.779 0.348,1.595 0.5754,2.513 0.2125,0.839 0.3833,1.638 0.6344,2.329 0.1649,0.465 0.3743,0.922 0.6195,1.368 0.084,0.153 0.1724,0.305 0.2641,0.454 1.0126,1.615 2.4155,2.946 4.0371,3.57 0.9278,0.381 2.0126,0.548 3.1328,0.691 2.3201,0.278 4.5891,0.347 6.7822,0.211 0.9557,-0.07 1.8149,-0.148 2.5517,-0.411 0.9501,-0.324 2.0645,-1.062 3.5493,-1.374 1.2211,-0.205 2.1706,-0.05 2.8225,-0.19 0.6195,-0.1 1.2532,-0.473 1.8687,-0.904 0.678,-0.513 1.2451,-1.034 1.5453,-1.639 0.3404,-0.617 0.4402,-1.391 0.3987,-2.132 -0.05,-0.844 -0.33,-1.697 -0.6684,-2.486 -0.3534,-0.807 -0.7702,-1.531 -1.2474,-2.164 -0.7181,-0.953 -1.6353,-1.84 -2.2579,-2.881 -0.6298,-1.091 -0.9595,-2.337 -1.1908,-3.146 -0.361,-1.242 -0.571,-1.934 -0.7132,-2.761 -0.1567,-0.915 -0.1129,-1.41 -0.019,-1.427 0.1122,-0.02 0.2713,0.436 0.6063,1.261 0.2575,0.635 0.6476,1.479 1.112,2.575 0.3356,0.783 0.7773,1.962 1.3564,2.762 0.5548,0.799 1.4619,1.526 2.3763,2.591 0.6072,0.707 1.1462,1.519 1.6012,2.424 0.4509,0.882 0.8384,1.915 0.9804,3.066 0.128,1.023 0.014,2.158 -0.4827,3.234 -0.4989,1.009 -1.2494,1.818 -2.0833,2.453 -0.7207,0.584 -1.6242,1.121 -2.7183,1.384 -1.1679,0.239 -2.1641,0.116 -2.8423,0.278 -0.8463,0.139 -1.7931,0.859 -3.1785,1.366 -1.0818,0.384 -2.1614,0.531 -3.1895,0.605 -2.3504,0.188 -4.7789,0.15 -7.2538,-0.121 -1.1996,-0.123 -2.5016,-0.331 -3.7982,-0.825 -2.2428,-0.896 -4.087,-2.576 -5.3297,-4.622 -0.1146,-0.186 -0.225,-0.375 -0.3308,-0.567 -0.3082,-0.561 -0.575,-1.148 -0.7918,-1.757 -0.3177,-0.91 -0.5103,-1.791 -0.702,-2.579 -0.2146,-0.862 -0.4652,-1.769 -0.6116,-2.777 0,0 0,0 0,0 -0.1505,-1.115 -0.1461,-2.175 -0.1861,-3.103 -0.051,-1.103 -0.1719,-2.218 -0.1458,-3.461 0.062,-2.064 0.5084,-3.883 0.6715,-5.544 0.1818,-1.787 0.075,-3.812 0.071,-5.646 0,0 0,0 0,0 -0.01,-2.07 0.1011,-4.034 0.3827,-5.935 0.1489,-1 0.3338,-1.924 0.4506,-2.796 0.1988,-1.456 0.2426,-3.007 0.2818,-4.375 0.044,-1.617 0.08,-2.966 0.2193,-4.384 0.1104,-1.152 0.288,-2.18 0.6025,-3.148 0.3383,-1.021 1.0259,-2.391 1.2846,-2.979 0.8374,-1.906 1.0712,-3.071 1.2338,-3.048 z" fill="#000000" stroke="none"></path><path style="" d="m 74.2049,75.313 c 0.2146,-0.08 0.7987,1.211 2.4272,2.807 0.8805,0.864 2.2309,1.73 3.5232,3.355 0,0 0,0 0,0 0.452,0.583 0.8185,1.199 1.2032,1.733 0.4193,0.583 0.916,1.147 1.4882,1.687 0.7816,0.723 1.9934,1.639 2.8874,2.945 0,0 0,0 0,0 0.678,1.068 1.0117,2.159 1.4522,2.96 0.7769,1.498 2.4954,2.8 3.8582,4.924 0.5208,0.832 0.8906,1.652 1.2761,2.354 0.2325,0.421 0.4982,0.849 0.7788,1.305 0.4404,0.716 0.894,1.467 1.2787,2.321 0.3039,0.695 0.5225,1.373 0.7208,1.987 0.423,1.292 0.8479,2.546 1.1606,3.906 0.2143,0.935 0.3558,1.878 0.4001,2.828 0.033,0.757 0.01,1.436 0.023,2.044 0.027,0.999 0.1711,2.078 0.1592,3.203 0.01,1.246 -0.2753,2.506 -0.9588,3.592 -0.548,0.826 -1.3007,1.419 -2.1009,1.775 -1.0649,0.482 -2.2056,0.517 -3.1773,0.215 -0.9591,-0.329 -1.6677,-0.911 -2.1664,-1.379 -0.6549,-0.596 -1.1491,-1.139 -1.5318,-1.664 0,0 0,0 0,0 -0.8049,-1.108 -0.933,-1.852 -0.8188,-1.918 0.1662,-0.1 0.5818,0.478 1.5136,1.288 0,0 0,0 0,0 0.454,0.396 0.9587,0.778 1.6602,1.252 0.5344,0.347 1.1731,0.762 1.7694,0.859 0.591,0.124 1.2966,0 1.9291,-0.339 0.4744,-0.266 0.9098,-0.673 1.1815,-1.169 0.3848,-0.638 0.4705,-1.5 0.4558,-2.49 -0.032,-0.907 -0.2239,-1.926 -0.3054,-3.107 -0.049,-0.718 -0.046,-1.395 -0.096,-2.014 -0.06,-0.775 -0.2052,-1.567 -0.4107,-2.382 -0.2997,-1.192 -0.7235,-2.355 -1.1698,-3.672 -0.214,-0.624 -0.4089,-1.223 -0.6462,-1.743 -0.2837,-0.647 -0.6851,-1.291 -1.1251,-2.004 -0.2803,-0.454 -0.5674,-0.922 -0.8412,-1.426 -0.4567,-0.837 -0.7909,-1.61 -1.1795,-2.23 -0.9759,-1.609 -2.7392,-3.068 -3.84,-5.166 -0.5774,-1.148 -0.8229,-2.162 -1.2506,-2.848 0,0 0,0 0,0 -0.4798,-0.871 -1.5631,-1.751 -2.4222,-2.679 -0.6326,-0.672 -1.1739,-1.382 -1.622,-2.113 -0.4098,-0.67 -0.7013,-1.277 -1.02,-1.767 0,0 0,0 0,0 -0.8768,-1.393 -2.1751,-2.482 -2.999,-3.591 -1.5574,-2.098 -1.5872,-3.591 -1.4644,-3.639 z" fill="#000000" stroke="none"></path><path style="" d="m 52.1153,63.43 c 0,0.152 -0.6147,0.253 -1.7106,0.504 0,0 0,0 0,0 -0.1718,0.04 -3.9236,1.031 -5.3449,1.217 -1.5176,0.192 -2.5884,0.135 -4.2664,0.214 -1.6623,0.08 -3.5114,0.342 -5.5967,0.446 0,0 0,0 0,0 -3.6543,0.18 -7.6406,-0.4 -11.568,0.157 -1.945,0.265 -3.9102,0.831 -5.8068,1.696 -0.711,0.325 -1.4642,0.719 -2.3077,1.076 -0.1142,0.05 -0.2299,0.1 -0.347,0.143 -0.8762,0.351 -1.6203,0.547 -2.1583,0.871 -0.8418,0.453 -1.5099,1.306 -1.9893,2.236 -0.1928,0.385 -0.3767,0.859 -0.6308,1.377 -0.2501,0.535 -0.60898,1.094 -1.12645,1.606 -0.62039,0.556 -1.20932,0.863 -1.58186,1.105 0,0 0,0 0,0 -0.18698,0.132 -0.33578,0.24 -0.42209,0.345 0,0 0,0 0,0 -0.0812,0.104 -0.14386,0.183 -0.14615,0.227 -0.0503,0.05 -5e-4,0.249 0.0378,0.548 0.0699,0.308 0.18395,0.724 0.23363,1.274 0.0248,0.549 -0.0348,0.98 -0.0673,1.284 -0.006,0.309 -0.0357,0.515 0.0151,0.584 0.009,0.05 0.0639,0.129 0.13534,0.212 0.0753,0.09 0.19584,0.168 0.34003,0.254 0.29035,0.176 0.74478,0.311 1.24885,0.511 0.86379,0.322 1.4359,0.668 1.9711,0.715 0.7013,0.15 1.6686,-0.201 2.7947,-0.27 1.718,-0.09 3.0076,0.329 4.0652,0.293 0.8274,-0.01 1.7173,-0.265 2.4524,-0.487 2.9307,-0.902 4.5367,-1.737 4.6591,-1.533 0.092,0.154 -1.2435,1.432 -4.1963,2.757 -0.7374,0.335 -1.6985,0.717 -2.7918,0.855 -1.3871,0.153 -2.8079,-0.162 -4.0084,0.02 -0.6994,0.1 -1.8876,0.515 -3.1929,0.45 C 9.77832,84.001 8.99217,83.646 8.29352,83.396 7.88605,83.262 7.33997,83.112 6.74366,82.822 6.44844,82.676 6.14755,82.476 5.86057,82.212 5.57474,81.949 5.32886,81.608 5.15402,81.193 4.93647,80.579 4.89725,80.026 4.9435,79.589 4.9615,79.167 5.0088,78.849 4.9759,78.659 4.9679,78.467 4.85995,78.17 4.76207,77.74 4.63641,77.318 4.57617,76.75 4.70117,76.069 c 0.13155,-0.513 0.36575,-0.946 0.6633,-1.281 0,0 0,0 0,0 0.28848,-0.33 0.59128,-0.586 0.88118,-0.784 0,0 10e-6,0 10e-6,0 0.55869,-0.403 1.03207,-0.631 1.24445,-0.876 0.20736,-0.185 0.37876,-0.503 0.57428,-0.888 0.21914,-0.46 0.39472,-0.932 0.61386,-1.391 0.61576,-1.319 1.61935,-2.556 3.02025,-3.386 0.9224,-0.512 1.7832,-0.767 2.4989,-1.043 0.095,-0.04 0.1907,-0.08 0.2869,-0.116 0.7106,-0.3 1.4456,-0.684 2.247,-1.045 2.1387,-0.965 4.3633,-1.578 6.573,-1.842 4.4606,-0.51 8.4188,0.191 11.8328,0.181 0,0 0,0 0,0 1.9482,0 3.8505,-0.166 5.6339,-0.13 1.5925,0.03 2.9635,0.174 4.1614,0.134 2.2232,-0.06 4.1118,-0.458 5.3827,-0.465 0,0 0,0 0,0 1.1794,0 1.7991,0.166 1.8002,0.292 z" fill="#000000" stroke="none"></path><path style="" d="m 58.666,77.903 c 0.079,0.03 0.092,0.33 -0.065,0.872 -0.3704,1.262 -1.2341,2.637 -3.32,4.789 -0.7003,0.734 -1.6305,1.678 -2.3575,2.596 -0.5392,0.676 -1.0727,1.472 -1.745,2.303 -1.5531,1.915 -3.6642,3.548 -5.1015,5.644 0,0 0,0 0,0 -0.7823,1.129 -1.4717,2.62 -2.7687,4.012 -0.6186,0.638 -1.3076,1.163 -2.0185,1.613 0,0 0,0 0,0 -0.7507,0.479 -1.5043,0.883 -2.2014,1.295 -0.725,0.431 -1.4293,0.89 -2.0624,1.406 -0.758,0.611 -1.4988,1.383 -2.3639,2.166 -0.8354,0.774 -1.8291,1.544 -3.0441,2.09 -0.6013,0.252 -1.195,0.428 -1.7696,0.567 -0.5277,0.127 -1.0374,0.221 -1.5095,0.313 -2.2914,0.493 -4.6526,1.126 -7.2751,0.832 -1.0454,-0.129 -2.079,-0.448 -3.0223,-0.983 -1.4795,-0.88 -2.3924,-1.977 -3.3195,-2.559 -0.5888,-0.368 -1.3912,-0.712 -2.2222,-1.449 -0.6185,-0.599 -1.0321,-1.295 -1.2888,-1.982 -0.2671,-0.701 -0.4181,-1.382 -0.5309,-1.998 C 10.4929,98.479 10.385,97.688 10.1105,97.003 9.83068,96.27 9.28567,95.435 8.97088,94.383 8.66044,93.206 8.72587,92.247 8.57287,91.527 8.32355,90.163 7.32669,88.783 7.00219,87.268 6.73294,86.032 6.98859,84.866 7.54286,84.025 c 0.51633,-0.756 1.2348,-1.153 1.83367,-1.313 1.54817,-0.41 2.05287,0.4 2.06327,0.37 -0.046,0.133 -0.8083,-0.1 -1.78793,0.392 -0.415,0.207 -0.87342,0.585 -1.14113,1.133 -0.31281,0.602 -0.34971,1.421 -0.0941,2.311 0.43793,1.504 1.49124,2.667 1.92916,4.171 0.2778,1.025 0.2737,2.005 0.5376,2.71 0.2041,0.648 0.7501,1.354 1.2034,2.38 0.4119,0.963 0.6037,1.894 0.8028,2.789 0.1359,0.573 0.2717,1.122 0.477,1.585 0.2026,0.444 0.4434,0.848 0.7505,1.101 0.3601,0.359 1.0696,0.604 1.9018,1.119 1.3594,0.839 2.2962,1.918 3.2755,2.427 0.6027,0.339 1.322,0.537 2.0857,0.631 1.9378,0.268 3.9843,-0.374 6.4277,-0.852 0.5023,-0.108 0.9845,-0.198 1.4344,-0.301 0.4886,-0.112 0.9332,-0.237 1.3237,-0.415 0.8081,-0.332 1.571,-0.946 2.3385,-1.616 0.7821,-0.7 1.5738,-1.5 2.5013,-2.238 0.7825,-0.616 1.5993,-1.135 2.4036,-1.59 0.771,-0.438 1.5041,-0.81 2.1528,-1.207 0,0 0,0 0,0 0.6106,-0.377 1.1579,-0.763 1.6007,-1.207 0.9758,-0.924 1.6618,-2.338 2.6573,-3.65 0,0 0,0 0,0 1.8521,-2.421 4.0088,-3.923 5.4942,-5.548 0.6456,-0.704 1.2427,-1.475 1.8934,-2.181 0.8979,-0.968 1.9121,-1.834 2.691,-2.5 2.4118,-2.092 2.9888,-2.736 3.8231,-3.973 0.2963,-0.436 0.453,-0.681 0.5444,-0.65 z" fill="#000000" stroke="none"></path><path style="opacity:1;fill:#000000;fill-opacity:1;stroke:#000000;stroke-width:0.793746;stroke-linecap:round;stroke-linejoin:round;stroke-miterlimit:4;stroke-dasharray:none;stroke-dashoffset:0;stroke-opacity:1;paint-order:normal" d="m 53.472,69.931 c 0.9222,0 0.6976,1.032 1.2343,1.323 -0.3231,0.884 -0.9165,1.262 -1.8387,1.259 -0.9222,0 -0.9656,-0.386 -0.9625,-1.322 0,-0.938 0.6448,-1.263 1.5669,-1.26 z"></path><path d="m 53.4921,71.805 c 0.5937,-0.706 0.916,-0.07 1.4842,-0.294 0.468,0.815 0.591,1.554 -0.01,2.257 -0.5937,0.707 -0.9711,0.329 -1.7397,0.1 -0.7173,-0.603 -0.3354,-1.359 0.2598,-2.063 z" style="opacity:1;fill:#000000;fill-opacity:1;stroke:#000000;stroke-width:0.793746;stroke-linecap:round;stroke-linejoin:round;stroke-miterlimit:4;stroke-dasharray:none;stroke-dashoffset:0;stroke-opacity:1;paint-order:normal"></path><path d="m 58.1908,57.374 c -0.061,0.921 -1.0759,0.629 -1.4012,1.145 -0.8606,-0.379 -1.1992,-0.996 -1.1366,-1.916 0.06,-0.92 0.4481,-0.939 1.3827,-0.874 0.9354,0.06 1.2177,0.725 1.1551,1.645 z" style="opacity:1;fill:#000000;fill-opacity:1;stroke:#000000;stroke-width:0.793746;stroke-linecap:round;stroke-linejoin:round;stroke-miterlimit:4;stroke-dasharray:none;stroke-dashoffset:0;stroke-opacity:1;paint-order:normal"></path><path style="opacity:1;fill:#000000;fill-opacity:1;stroke:#000000;stroke-width:0.793746;stroke-linecap:round;stroke-linejoin:round;stroke-miterlimit:4;stroke-dasharray:none;stroke-dashoffset:0;stroke-opacity:1;paint-order:normal" d="m 56.3193,57.272 c 0.6659,0.639 0.013,0.919 0.1968,1.501 -0.8445,0.413 -1.5894,0.487 -2.2525,-0.156 -0.666,-0.638 -0.2649,-0.991 0.014,-1.743 0.6484,-0.676 1.3788,-0.246 2.0422,0.394 z"></path><path style="" d="m 65.1722,68.019 c -1.0006,0.09 -2.3652,0.212 -4.0674,0.375 -0.9213,0.09 -2.0409,0.187 -3.0346,0.59 -0.347,0.133 -0.6882,0.306 -0.9821,0.548 -0.2861,0.235 -0.557,0.57 -0.7627,0.794 -0.24,0.267 -0.4785,0.488 -0.7212,0.664 -0.3129,0.227 -0.5969,0.352 -0.846,0.423 -0.1201,0.03 -0.4862,0.215 -0.6187,0.213 0.1325,0 0.5556,0.08 0.6905,0.04 0.2808,-0.08 0.5923,-0.224 0.924,-0.475 0.2562,-0.194 0.502,-0.434 0.7424,-0.718 0.2058,-0.248 0.4418,-0.578 0.7003,-0.818 0.2626,-0.243 0.5779,-0.429 0.9119,-0.58 0.9715,-0.418 2.0752,-0.541 3,-0.644 1.6762,-0.184 3.0866,-0.324 4.0636,-0.413 z" fill="#000000" fill-rule="nonzero" stroke="#000000" stroke-width="0.264582px" stroke-linecap="butt" stroke-linejoin="miter" stroke-opacity="1"></path><path style="" d="M 65.146,67.948 C 64.9596,67.784 64.703,67.569 64.3772,67.344 63.8541,66.992 63.3353,66.737 62.73,66.403 62.1999,66.11 61.6529,65.782 61.1923,65.339 c -0.1487,-0.151 -0.2769,-0.303 -0.4281,-0.474 -0.3,-0.319 -0.6205,-0.627 -0.9138,-0.951 -0.2942,-0.325 -0.5578,-0.663 -0.752,-1.044 -0.2102,-0.421 -0.3335,-0.894 -0.4616,-1.33 -0.2367,-0.789 -0.4912,-1.475 -0.8323,-2.102 -0.3327,-0.615 -0.6776,-1.02 -1.0477,-1.296 -0.1028,-0.08 -0.3319,-0.176 -0.5416,-0.293 -0.1049,-0.04 -0.2036,-0.08 -0.2443,-0.119 0.039,0.04 0.097,0.132 0.1647,0.225 0.1402,0.138 0.4185,0.366 0.4632,0.399 0.334,0.249 0.6602,0.614 0.9943,1.202 0.3398,0.601 0.6009,1.265 0.8513,2.044 0.139,0.424 0.2828,0.912 0.5158,1.342 0.2099,0.394 0.4895,0.738 0.7929,1.061 0.3033,0.324 0.6294,0.626 0.9325,0.938 0.1621,0.157 0.3023,0.301 0.4633,0.444 0.4716,0.442 1.0281,0.768 1.561,1.055 0.6097,0.327 1.1302,0.577 1.6547,0.922 0.3326,0.213 0.5951,0.422 0.7814,0.586 z" fill="#000000" fill-rule="nonzero" stroke="#000000" stroke-width="0.264582px" stroke-linecap="butt" stroke-linejoin="miter" stroke-opacity="1"></path><path style="opacity:1;fill:#000000;fill-opacity:1;stroke:#000000;stroke-width:0.793746;stroke-linecap:round;stroke-linejoin:round;stroke-miterlimit:4;stroke-dasharray:none;stroke-dashoffset:0;stroke-opacity:1;paint-order:normal" d="m 75.8866,69.421 c -0.8388,-0.384 -0.2046,-1.229 -0.5716,-1.717 0.6612,-0.669 1.3579,-0.766 2.1959,-0.38 0.8383,0.383 0.9328,0.753 0.5398,1.604 -0.3932,0.851 -1.3268,0.879 -2.1641,0.493 z"></path><path d="m 76.6477,67.708 c -0.8337,0.395 -0.8626,-0.314 -1.4719,-0.35 -0.086,-0.936 0.11,-1.659 0.9471,-2.05 0.8337,-0.395 1.1818,0.321 1.7855,0.849 0.4012,0.847 -0.4227,1.161 -1.257,1.553 z" style="opacity:1;fill:#000000;fill-opacity:1;stroke:#000000;stroke-width:0.793746;stroke-linecap:round;stroke-linejoin:round;stroke-miterlimit:4;stroke-dasharray:none;stroke-dashoffset:0;stroke-opacity:1;paint-order:normal"></path><path style="" d="m 65.1778,67.97 c 0.1954,0.03 0.4581,0.04 0.7613,0 0.431,-0.06 0.8101,-0.225 1.2814,-0.413 0.3959,-0.157 0.8329,-0.319 1.2831,-0.336 0.1911,0 0.3839,0.02 0.5742,0.06 0.3459,0.07 0.6794,0.211 1.0238,0.314 0.6002,0.176 1.2211,0.243 1.7937,0.28 0.6169,0.04 1.1778,0.04 1.7059,0.01 0.45,-0.03 0.8684,-0.08 1.2464,-0.104 0.4789,-0.03 0.8555,-0.01 1.2046,0.05 0.1353,0.03 0.5772,0.02 0.7091,0.08 -0.1319,-0.06 -0.5133,-0.31 -0.6597,-0.338 -0.3776,-0.07 -0.779,-0.08 -1.2706,-0.05 -0.3879,0.03 -0.8077,0.08 -1.2474,0.116 -0.5159,0.04 -1.0662,0.05 -1.6769,0.02 -0.5671,-0.03 -1.1734,-0.08 -1.7583,-0.234 -0.3367,-0.09 -0.6812,-0.216 -1.0462,-0.278 -0.2021,-0.03 -0.4048,-0.04 -0.6036,-0.02 -0.4652,0.03 -0.9093,0.213 -1.2981,0.38 -0.4653,0.2 -0.8389,0.369 -1.2644,0.443 -0.2997,0.06 -0.5624,0.05 -0.7583,0.02 z" fill="#000000" fill-rule="nonzero" stroke="#000000" stroke-width="0.264582px" stroke-linecap="butt" stroke-linejoin="miter" stroke-opacity="1"></path><path d="m 64.7135,78.838 c 0.584,-0.713 1.2414,0.111 1.8058,-0.117 0.4793,0.809 0.3959,1.508 -0.1902,2.22 -0.5833,0.714 -0.9651,0.711 -1.6879,0.115 -0.7236,-0.596 -0.5138,-1.506 0.072,-2.218 z" style="opacity:1;fill:#000000;fill-opacity:1;stroke:#000000;stroke-width:0.793746;stroke-linecap:round;stroke-linejoin:round;stroke-miterlimit:4;stroke-dasharray:none;stroke-dashoffset:0;stroke-opacity:1;paint-order:normal"></path><path style="opacity:1;fill:#000000;fill-opacity:1;stroke:#000000;stroke-width:0.793746;stroke-linecap:round;stroke-linejoin:round;stroke-miterlimit:4;stroke-dasharray:none;stroke-dashoffset:0;stroke-opacity:1;paint-order:normal" d="m 66.177,80.009 c -0.1703,-0.907 0.5232,-0.755 0.7121,-1.335 0.9283,0.153 1.5767,0.528 1.7423,1.436 0.1704,0.907 -0.6103,1.063 -1.2743,1.512 -0.9205,0.173 -1.0153,-0.704 -1.1825,-1.61 z"></path><path style="" d="m 65.2612,67.92 c -0.2193,0.249 -0.4763,0.6 -0.6811,1.058 -0.3034,0.687 -0.4229,1.461 -0.4525,2.344 -0.011,0.308 -0.01,0.638 0.033,0.961 0.042,0.31 0.1241,0.622 0.2803,0.91 0.1197,0.222 0.2764,0.418 0.4372,0.615 0.1575,0.193 0.316,0.383 0.4401,0.594 0.087,0.15 0.1561,0.309 0.2274,0.472 0.071,0.162 0.143,0.328 0.2345,0.485 0.083,0.149 0.1832,0.291 0.2743,0.421 0.208,0.287 0.3899,0.547 0.537,0.829 0.1646,0.315 0.262,0.617 0.2894,0.906 0.028,0.279 -0.01,0.551 -0.061,0.795 -0.059,0.278 -0.1597,0.597 -0.2222,0.81 -0.042,0.142 -0.033,0.604 -0.07,0.747 0.037,-0.143 0.2825,-0.532 0.3239,-0.673 0.061,-0.208 0.1627,-0.536 0.2227,-0.831 0.053,-0.258 0.091,-0.56 0.054,-0.874 -0.039,-0.328 -0.1586,-0.657 -0.3435,-0.985 -0.1644,-0.292 -0.3639,-0.557 -0.5815,-0.836 -0.1015,-0.125 -0.206,-0.252 -0.2947,-0.387 -0.092,-0.145 -0.166,-0.301 -0.243,-0.462 -0.076,-0.16 -0.1541,-0.322 -0.2501,-0.475 -0.1347,-0.217 -0.304,-0.411 -0.4642,-0.598 -0.1655,-0.193 -0.322,-0.379 -0.4425,-0.591 -0.1557,-0.275 -0.2419,-0.576 -0.2885,-0.881 -0.048,-0.317 -0.055,-0.644 -0.049,-0.95 0.018,-0.88 0.1275,-1.653 0.4224,-2.34 0.1954,-0.46 0.4475,-0.814 0.6671,-1.064 z" fill="#000000" fill-rule="nonzero" stroke="#000000" stroke-width="0.264582px" stroke-linecap="butt" stroke-linejoin="miter" stroke-opacity="1"></path><path style="color:#000000;font-style:normal;font-variant:normal;font-weight:normal;font-stretch:normal;font-size:medium;line-height:normal;font-family:sans-serif;font-variant-ligatures:normal;font-variant-position:normal;font-variant-caps:normal;font-variant-numeric:normal;font-variant-alternates:normal;font-feature-settings:normal;text-indent:0;text-align:start;text-decoration:none;text-decoration-line:none;text-decoration-style:solid;text-decoration-color:#000000;letter-spacing:normal;word-spacing:normal;text-transform:none;writing-mode:lr-tb;direction:ltr;text-orientation:mixed;dominant-baseline:auto;baseline-shift:baseline;text-anchor:start;white-space:normal;shape-padding:0;clip-rule:nonzero;display:inline;overflow:visible;visibility:visible;opacity:1;isolation:auto;mix-blend-mode:normal;color-interpolation:sRGB;color-interpolation-filters:linearRGB;solid-color:#000000;solid-opacity:1;vector-effect:none;fill:#000000;fill-opacity:1;fill-rule:nonzero;stroke:none;stroke-width:1px;stroke-linecap:butt;stroke-linejoin:miter;stroke-miterlimit:4;stroke-dasharray:none;stroke-dashoffset:0;stroke-opacity:1;color-rendering:auto;image-rendering:auto;shape-rendering:auto;text-rendering:auto;enable-background:accumulate" d="M 239.742 246.1 C 239.595 246.1 239.337 246.098 239.064 246.238 C 238.913 246.321 238.785 246.401 238.666 246.473 L 238.627 246.473 C 238.233 246.764 237.868 246.995 237.52 247.041 C 237.236 247.079 236.952 247.039 236.664 246.947 L 236.627 246.947 L 236.588 246.947 C 236.221 246.868 235.824 246.829 235.422 246.867 C 235.203 246.867 235.052 246.943 234.965 246.984 C 234.757 247.083 234.653 247.204 234.684 247.186 L 234.545 247.287 L 234.477 247.527 C 234.417 247.637 234.366 247.759 234.344 247.885 L 234.344 247.93 L 234.344 247.967 C 234.344 247.921 234.346 247.966 234.344 248.004 C 234.344 248.053 234.307 248.11 234.307 248.234 L 234.307 248.281 L 234.254 248.383 L 234.254 248.424 C 234.254 248.462 234.194 248.482 234.145 248.52 C 234.069 248.557 233.997 248.571 233.914 248.602 C 233.85 248.602 233.793 248.639 233.744 248.646 C 233.4 248.646 233.229 248.829 233.115 248.928 C 232.956 249.075 232.799 249.298 232.732 249.562 C 232.672 249.797 232.672 250.047 232.732 250.264 L 232.732 250.301 C 232.77 250.399 232.78 250.449 232.807 250.559 L 232.807 250.596 L 232.807 250.635 L 232.807 250.729 L 232.807 250.766 L 232.807 250.805 C 232.769 250.85 232.739 250.864 232.807 250.842 L 232.762 250.879 L 232.725 250.918 C 232.649 250.978 232.548 251.018 232.453 251.041 L 232.406 251.041 L 232.354 251.08 C 232.248 251.125 232.081 251.164 231.852 251.273 C 231.625 251.379 231.403 251.545 231.24 251.797 C 231.059 252.061 231.025 252.338 231.006 252.564 C 230.968 252.769 230.96 252.928 230.938 253.008 C 230.9 253.076 230.843 253.177 230.76 253.271 C 230.661 253.362 230.549 253.457 230.428 253.559 C 230.175 253.755 229.893 253.984 229.658 254.289 C 229.424 254.603 229.229 255.019 229.26 255.492 C 229.26 255.772 229.37 256.013 229.502 256.201 C 229.646 256.375 229.843 256.552 230.152 256.629 L 230.213 256.629 L 230.76 256.629 L 230.826 256.629 C 230.936 256.591 231.087 256.543 231.232 256.475 C 231.361 256.437 231.457 256.422 231.506 256.422 C 231.55 256.422 231.553 256.42 231.562 256.418 C 231.575 256.433 231.591 256.445 231.596 256.479 L 231.596 256.516 L 231.596 256.555 L 231.596 256.797 C 231.558 257.05 231.514 257.332 231.525 257.66 C 231.528 258.004 231.62 258.369 231.865 258.672 C 232.016 258.868 232.223 259.012 232.447 259.078 L 232.516 259.115 L 232.787 259.115 C 232.919 259.115 232.992 259.001 233.098 258.93 C 233.06 259.039 233.026 259.153 232.996 259.301 L 232.996 259.361 L 232.996 259.414 L 232.996 259.492 C 232.996 259.549 233.033 259.668 233.041 259.773 C 233.079 259.944 233.121 260.087 233.174 260.172 C 233.317 260.376 233.497 260.455 233.586 260.496 L 233.689 260.541 L 233.791 260.541 C 233.749 260.541 233.953 260.542 234.115 260.504 C 234.357 260.504 234.506 260.353 234.662 260.225 C 234.661 260.225 234.662 260.266 234.662 260.277 C 234.662 260.387 234.66 260.431 234.662 260.469 C 234.666 260.631 234.7 260.685 234.73 260.742 C 234.768 260.803 234.787 260.852 234.84 260.92 C 235.002 261.124 235.245 261.223 235.475 261.223 C 235.569 261.223 235.739 261.222 235.947 261.143 C 236.019 261.105 236.082 261.089 236.146 261.059 C 236.146 261.149 236.098 261.249 236.102 261.324 C 236.099 261.286 236.143 261.527 236.264 261.693 C 236.267 261.693 236.303 261.733 236.303 261.74 L 236.34 261.777 C 236.34 261.777 236.343 261.777 236.34 261.814 C 236.34 261.814 236.377 261.854 236.393 261.861 L 236.43 261.898 L 236.469 261.898 L 236.506 261.898 C 236.506 261.901 236.744 261.959 236.748 261.959 L 236.865 261.959 L 237.107 261.959 L 237.217 261.898 C 237.436 261.777 237.531 261.611 237.596 261.455 C 237.69 261.232 237.7 261.092 237.719 261.027 C 237.719 260.99 237.768 260.956 237.844 260.918 C 237.897 260.88 237.949 260.873 238.006 260.873 C 238.069 260.873 238.086 260.87 238.092 260.867 L 238.098 260.873 L 238.135 260.873 C 238.135 260.873 238.181 260.956 238.344 261.107 C 238.393 261.153 238.442 261.205 238.506 261.254 C 238.574 261.307 238.699 261.439 238.979 261.439 C 239.02 261.439 239.144 261.398 239.234 261.379 C 239.423 261.341 239.579 261.259 239.648 261.18 C 239.713 261.108 239.735 261.055 239.758 261.002 C 239.924 260.73 239.916 260.444 239.867 260.219 C 239.81 259.996 239.72 259.83 239.652 259.701 C 239.611 259.633 239.554 259.509 239.52 259.422 C 239.482 259.324 239.482 259.249 239.52 259.215 L 239.52 259.176 C 239.52 259.115 239.577 259.09 239.596 259.082 L 239.633 259.045 L 239.656 259.02 C 239.67 259.015 239.708 259.006 239.781 259.006 C 239.914 259.006 239.988 259.007 240.037 259.045 L 240.102 259.045 L 240.566 259.045 C 240.873 259.045 241.058 258.913 241.195 258.811 C 241.396 258.686 241.467 258.542 241.52 258.447 C 241.569 258.349 241.606 258.257 241.637 258.182 L 241.6 258.221 C 241.656 258.111 241.674 258.046 241.686 258.012 C 241.686 258.011 241.806 257.952 241.936 257.875 C 242.031 257.836 242.101 257.789 242.137 257.756 C 242.193 257.703 242.224 257.673 242.197 257.695 C 242.382 257.525 242.417 257.389 242.443 257.215 L 242.443 257.178 L 242.443 257.139 L 242.443 256.947 C 242.443 256.898 242.372 256.822 242.342 256.754 C 242.38 256.756 242.341 256.754 242.387 256.754 C 242.349 256.754 242.387 256.752 242.451 256.754 C 242.504 256.754 242.617 256.755 242.715 256.717 C 242.889 256.679 243.036 256.633 243.113 256.584 C 243.314 256.452 243.367 256.3 243.416 256.162 C 243.492 255.984 243.5 255.82 243.5 255.75 C 243.5 255.508 243.404 255.348 243.234 255.203 C 243.091 255.063 242.929 254.979 242.836 254.945 L 242.752 254.908 L 242.658 254.908 C 242.696 254.908 242.62 254.909 242.541 254.863 L 242.457 254.824 L 242.379 254.824 C 242.417 254.786 242.469 254.745 242.602 254.646 L 242.639 254.609 C 242.805 254.5 243.018 254.36 243.201 254.115 C 243.318 253.968 243.378 253.828 243.408 253.768 L 243.408 253.73 L 243.408 253.691 C 243.45 253.563 243.468 253.381 243.461 253.211 C 243.461 252.816 243.25 252.525 242.975 252.342 C 242.706 252.153 242.408 252.107 242.154 252.107 C 242.071 252.107 241.991 252.145 241.912 252.16 C 242.06 252.069 242.182 251.967 242.254 251.857 C 242.364 251.672 242.396 251.49 242.328 251.229 C 242.29 251.115 242.276 251 242.227 250.936 C 242.159 250.849 242.097 250.814 242.086 250.803 C 242.022 250.75 241.959 250.704 241.895 250.662 C 241.792 250.59 241.721 250.542 241.672 250.508 C 241.672 250.508 241.633 250.47 241.633 250.463 L 241.633 250.121 C 241.633 250.119 241.672 249.955 241.672 249.73 C 241.672 249.496 241.599 249.278 241.516 249.119 C 241.342 248.813 241.067 248.694 240.91 248.617 C 240.691 248.511 240.579 248.477 240.527 248.439 C 240.418 248.368 240.373 248.329 240.357 248.307 C 240.312 248.242 240.318 248.268 240.318 248.234 C 240.317 248.272 240.318 248.197 240.318 248.174 C 240.356 248.113 240.38 248.057 240.414 247.996 C 240.456 247.924 240.511 247.842 240.561 247.74 C 240.621 247.619 240.666 247.448 240.67 247.281 C 240.67 247.009 240.56 246.752 240.436 246.588 C 240.239 246.342 239.973 246.274 239.83 246.232 L 239.762 246.195 L 239.742 246.1 z M 234.24 248.449 C 234.236 248.46 234.235 248.482 234.254 248.463 L 234.254 248.5 C 234.254 248.438 234.245 248.438 234.24 248.449 z " transform="scale(0.264582)"></path><path style="color:#000000;font-style:normal;font-variant:normal;font-weight:normal;font-stretch:normal;font-size:medium;line-height:normal;font-family:sans-serif;font-variant-ligatures:normal;font-variant-position:normal;font-variant-caps:normal;font-variant-numeric:normal;font-variant-alternates:normal;font-feature-settings:normal;text-indent:0;text-align:start;text-decoration:none;text-decoration-line:none;text-decoration-style:solid;text-decoration-color:#000000;letter-spacing:normal;word-spacing:normal;text-transform:none;writing-mode:lr-tb;direction:ltr;text-orientation:mixed;dominant-baseline:auto;baseline-shift:baseline;text-anchor:start;white-space:normal;shape-padding:0;clip-rule:nonzero;display:inline;overflow:visible;visibility:visible;opacity:1;isolation:auto;mix-blend-mode:normal;color-interpolation:sRGB;color-interpolation-filters:linearRGB;solid-color:#000000;solid-opacity:1;vector-effect:none;fill:#000000;fill-opacity:1;fill-rule:nonzero;stroke:none;stroke-width:1px;stroke-linecap:butt;stroke-linejoin:miter;stroke-miterlimit:4;stroke-dasharray:none;stroke-dashoffset:0;stroke-opacity:1;color-rendering:auto;image-rendering:auto;shape-rendering:auto;text-rendering:auto;enable-background:accumulate" d="M 248.875 233.52 C 248.477 233.52 248.204 233.676 248.018 233.736 C 247.829 233.785 247.554 233.785 247.205 233.883 C 246.685 234.03 246.315 234.332 246.002 234.518 C 245.681 234.725 245.378 234.874 245.109 234.889 C 244.909 234.889 244.589 234.836 244.209 234.889 C 243.714 234.889 243.343 235.153 243.072 235.354 C 242.789 235.558 242.561 235.754 242.34 235.877 C 242.071 236.028 241.779 236.101 241.521 236.078 L 241.484 236.078 L 241.445 236.078 C 241.203 236.078 240.956 235.987 240.723 235.877 C 240.655 235.741 240.62 235.601 240.457 235.479 C 240.26 235.316 240.029 235.205 239.793 235.152 L 239.732 235.152 L 239.68 235.152 C 239.506 235.152 239.246 235.153 238.957 235.277 C 238.723 235.387 238.514 235.562 238.359 235.795 C 238.235 235.973 238.173 236.131 238.135 236.193 C 238.105 236.242 238.079 236.263 238.062 236.279 L 238.053 236.279 L 237.83 236.279 L 237.6 236.279 C 237.358 236.279 237.133 236.416 237.002 236.598 C 236.96 236.654 236.873 236.816 236.824 236.98 C 236.771 237.135 236.748 237.287 236.748 237.352 C 236.747 237.412 236.747 237.469 236.748 237.529 C 236.744 237.532 236.738 237.534 236.734 237.537 C 236.734 237.537 236.733 237.537 236.732 237.537 C 236.73 237.539 236.727 237.541 236.725 237.543 L 236.701 237.52 L 236.701 237.555 C 236.672 237.572 236.639 237.59 236.604 237.607 C 236.52 237.632 236.45 237.665 236.416 237.688 C 236.356 237.729 236.317 237.752 236.34 237.74 C 236.136 237.861 236.065 237.986 236.068 237.982 L 236.021 238.035 L 235.984 238.096 C 235.909 238.251 235.883 238.42 235.891 238.561 C 235.891 238.784 235.965 238.9 235.965 238.9 L 235.965 238.969 L 236.004 239.029 C 236.121 239.237 236.268 239.363 236.387 239.48 L 236.424 239.48 C 236.617 239.635 236.764 239.707 236.83 239.768 L 236.869 239.805 L 236.914 239.844 C 236.913 239.882 236.912 239.884 236.875 239.914 L 236.713 240.078 C 236.675 240.116 236.676 240.114 236.639 240.145 C 236.529 240.235 236.422 240.331 236.381 240.369 L 236.344 240.406 L 236.305 240.451 C 236.191 240.591 236.052 240.811 236.025 241.094 L 236.025 241.131 L 236.025 241.17 C 236.025 241.283 236.026 241.508 236.15 241.744 C 236.215 241.884 236.278 241.983 236.312 242.047 C 236.392 242.194 236.422 242.237 236.43 242.264 L 236.43 242.309 L 236.43 242.346 C 236.429 242.348 236.43 242.347 236.385 242.385 C 236.352 242.417 236.226 242.454 236.072 242.531 C 235.888 242.592 235.74 242.676 235.615 242.758 C 235.411 242.89 235.216 243.114 235.156 243.416 L 235.156 243.469 L 235.156 243.904 L 235.217 244.006 C 235.219 244.006 235.217 244.063 235.285 244.191 L 235.285 244.229 L 235.285 244.268 C 235.323 244.309 235.323 244.346 235.338 244.406 L 235.338 244.451 L 235.365 244.479 C 235.359 244.495 235.36 244.502 235.338 244.535 C 235.3 244.596 235.262 244.652 235.221 244.713 C 235.168 244.796 235.116 244.886 235.066 244.992 C 234.991 245.14 234.975 245.332 234.986 245.494 C 234.986 245.664 235.055 245.826 235.127 245.922 C 235.203 246.024 235.271 246.081 235.32 246.123 C 235.558 246.331 235.841 246.322 235.947 246.322 C 236.046 246.322 236.307 246.322 236.531 246.152 C 236.671 246.077 236.787 245.98 236.855 245.912 C 237.097 245.693 237.234 245.492 237.307 245.439 L 237.344 245.439 C 237.346 245.439 237.345 245.488 237.432 245.586 C 237.609 245.854 237.891 245.937 238.021 245.977 L 238.09 246.016 L 238.164 246.016 C 238.281 246.016 238.531 246.014 238.777 245.859 C 239.053 245.716 239.269 245.532 239.457 245.352 C 239.567 245.25 239.646 245.207 239.635 245.211 L 239.518 245.211 C 239.759 245.211 239.824 245.166 239.752 245.166 L 239.789 245.166 L 239.826 245.166 L 239.865 245.219 L 239.902 245.256 C 239.902 245.256 239.955 245.346 240.012 245.426 L 240.051 245.465 L 240.088 245.502 C 240.171 245.63 240.273 245.747 240.375 245.834 C 240.556 245.985 240.793 246.064 241.018 246.064 C 241.055 246.064 241.135 246.065 241.252 246.027 C 241.373 245.99 241.509 245.903 241.6 245.801 L 241.475 245.91 C 241.546 245.869 241.613 245.823 241.674 245.785 L 241.674 245.822 L 241.674 245.861 C 241.674 245.91 241.675 245.949 241.721 246.107 L 241.721 246.145 L 241.721 246.182 C 241.758 246.261 241.762 246.394 241.875 246.566 C 241.996 246.752 242.147 246.896 242.311 247.01 C 242.311 247.01 242.379 247.08 242.375 247.076 L 242.375 247.123 L 242.412 247.16 C 242.412 247.402 242.503 247.527 242.529 247.588 L 242.529 247.625 L 242.529 247.664 C 242.658 247.876 242.905 248.02 243.15 248.02 L 243.373 248.02 C 243.592 248.02 243.736 247.914 243.816 247.842 C 243.886 247.779 243.913 247.726 243.943 247.68 C 244.03 247.59 244.075 247.51 244.104 247.447 C 244.206 247.285 244.254 247.15 244.303 247.064 C 244.303 247.064 244.341 247.025 244.363 247.025 L 244.432 247.025 C 244.469 247.025 244.471 247.063 244.527 247.086 L 244.609 247.139 C 244.655 247.166 244.732 247.201 244.828 247.225 C 244.923 247.268 245.052 247.328 245.252 247.328 C 245.335 247.328 245.642 247.291 245.836 247.113 C 245.915 247.064 245.987 247.022 246.07 246.92 L 245.945 247.029 C 246.115 246.931 246.161 246.876 246.123 246.891 C 246.187 246.853 246.191 246.852 246.123 246.852 L 246.357 246.852 C 246.278 246.852 246.356 246.891 246.592 246.891 L 246.826 246.891 C 246.864 246.891 246.97 246.89 247.113 246.822 C 247.2 246.777 247.23 246.701 247.275 246.637 C 247.313 246.599 247.358 246.599 247.369 246.592 C 247.433 246.509 247.441 246.467 247.441 246.459 L 247.502 246.357 L 247.502 246.24 C 247.502 246.41 247.465 246.158 247.465 246.025 L 247.502 246.025 L 247.68 246.025 L 247.797 246.025 C 247.982 246.025 248.11 245.933 248.18 245.869 C 248.18 245.869 248.181 245.832 248.219 245.832 C 248.257 245.794 248.268 245.795 248.271 245.795 C 248.273 245.793 248.321 245.737 248.34 245.711 C 248.408 245.613 248.418 245.545 248.426 245.496 L 248.426 245.355 C 248.428 245.287 248.373 245.064 248.256 244.912 C 248.195 244.806 248.147 244.69 247.977 244.596 C 248.014 244.596 247.902 244.547 247.822 244.494 C 247.864 244.494 247.958 244.49 248.102 244.455 C 248.185 244.454 248.433 244.403 248.625 244.248 C 248.769 244.146 248.875 244.028 248.928 243.869 C 248.984 243.722 248.988 243.561 248.965 243.457 C 248.927 243.344 248.906 243.278 248.887 243.24 C 248.819 243.104 248.751 243.037 248.717 242.988 L 248.67 242.924 L 248.609 242.877 L 248.572 242.877 L 248.535 242.84 C 248.592 242.764 248.701 242.659 248.814 242.516 C 249.098 242.153 249.203 241.76 249.301 241.445 C 249.339 241.336 249.37 241.24 249.404 241.164 C 249.442 241.085 249.479 241.037 249.479 241.041 C 249.524 240.996 249.626 240.935 249.773 240.855 C 249.978 240.746 250.154 240.601 250.297 240.396 C 250.493 240.083 250.457 239.845 250.461 239.703 L 250.461 239.533 L 250.461 239.496 L 250.498 239.457 L 250.559 239.412 C 250.596 239.412 250.619 239.374 250.721 239.336 C 250.921 239.257 251.05 239.143 251.156 239.049 C 251.33 238.894 251.418 238.761 251.475 238.539 L 251.475 238.477 L 251.475 238.416 C 251.475 238.295 251.475 238.132 251.414 237.965 L 251.414 237.928 L 251.375 237.889 C 251.318 237.775 251.282 237.72 251.244 237.641 L 251.244 237.596 L 251.205 237.557 C 251.152 237.481 251.148 237.473 251.141 237.439 L 251.141 237.395 L 251.104 237.357 L 251.104 237.348 C 251.107 237.336 251.111 237.322 251.141 237.281 C 251.141 237.319 251.179 237.282 251.266 237.127 C 251.267 237.125 251.345 237.065 251.428 236.902 C 251.488 236.793 251.553 236.657 251.561 236.467 C 251.561 236.391 251.561 236.196 251.459 235.996 C 251.391 235.871 251.319 235.795 251.289 235.75 L 251.252 235.711 L 251.213 235.674 C 251.063 235.521 250.889 235.428 250.711 235.363 C 250.511 235.25 250.435 235.224 250.408 235.201 L 250.369 235.164 L 250.324 235.125 C 250.275 235.087 250.233 235.055 250.207 235.002 C 250.169 234.926 250.147 234.828 250.113 234.654 C 250.075 234.514 250.068 234.236 249.781 233.967 C 249.66 233.857 249.5 233.748 249.285 233.68 L 249.211 233.643 L 248.875 233.52 z " transform="scale(0.264582)"></path><path style="color:#000000;font-style:normal;font-variant:normal;font-weight:normal;font-stretch:normal;font-size:medium;line-height:normal;font-family:sans-serif;font-variant-ligatures:normal;font-variant-position:normal;font-variant-caps:normal;font-variant-numeric:normal;font-variant-alternates:normal;font-feature-settings:normal;text-indent:0;text-align:start;text-decoration:none;text-decoration-line:none;text-decoration-style:solid;text-decoration-color:#000000;letter-spacing:normal;word-spacing:normal;text-transform:none;writing-mode:lr-tb;direction:ltr;text-orientation:mixed;dominant-baseline:auto;baseline-shift:baseline;text-anchor:start;white-space:normal;shape-padding:0;clip-rule:nonzero;display:inline;overflow:visible;visibility:visible;opacity:1;isolation:auto;mix-blend-mode:normal;color-interpolation:sRGB;color-interpolation-filters:linearRGB;solid-color:#000000;solid-opacity:1;vector-effect:none;fill:#000000;fill-opacity:1;fill-rule:nonzero;stroke:none;stroke-width:1px;stroke-linecap:butt;stroke-linejoin:miter;stroke-miterlimit:4;stroke-dasharray:none;stroke-dashoffset:0;stroke-opacity:1;color-rendering:auto;image-rendering:auto;shape-rendering:auto;text-rendering:auto;enable-background:accumulate" d="M 254.205 244.311 L 254.293 244.379 C 253.645 244.381 253.049 244.663 252.602 245.088 C 252.462 245.209 252.357 245.353 252.277 245.531 C 252.213 245.667 252.184 245.864 252.184 245.938 C 252.184 246.009 252.224 246.246 252.314 246.387 L 252.354 246.426 C 252.206 246.464 252.054 246.49 251.939 246.596 C 251.735 246.781 251.614 247.034 251.568 247.289 C 251.5 247.599 251.568 247.833 251.607 247.99 C 251.645 248.115 251.671 248.286 251.689 248.404 C 251.689 248.529 251.652 248.656 251.652 248.66 L 251.588 248.725 C 251.588 248.725 251.494 248.788 251.434 248.826 C 251.305 248.872 251.112 248.922 250.895 248.99 C 250.622 249.039 250.307 249.137 250.037 249.367 C 249.939 249.45 249.788 249.594 249.689 249.803 C 249.61 249.969 249.561 250.165 249.572 250.371 C 249.572 250.515 249.61 250.582 249.633 250.643 C 249.595 250.645 249.596 250.643 249.547 250.643 L 249.199 250.643 C 249.161 250.643 249.074 250.644 248.949 250.682 C 248.859 250.719 248.787 250.792 248.715 250.867 C 248.677 250.905 248.613 250.907 248.598 250.926 C 248.545 250.986 248.518 251.021 248.537 250.998 L 248.5 251.037 L 248.461 251.074 C 248.366 251.218 248.307 251.44 248.314 251.627 C 248.314 251.839 248.375 251.949 248.387 251.998 L 248.387 252.035 L 248.387 252.074 C 248.455 252.248 248.504 252.399 248.504 252.406 C 248.504 252.452 248.499 252.459 248.457 252.531 C 248.419 252.592 248.353 252.663 248.326 252.686 L 248.287 252.686 C 248.132 252.833 247.848 253.02 247.645 253.381 C 247.527 253.581 247.461 253.794 247.461 254.029 C 247.461 254.279 247.513 254.497 247.623 254.693 C 247.721 254.86 247.872 255.029 248.08 255.158 C 248.288 255.287 248.521 255.352 248.752 255.352 C 248.986 255.352 249.173 255.303 249.32 255.266 C 249.369 255.266 249.438 255.264 249.461 255.227 L 249.514 255.227 C 249.476 255.227 249.57 255.266 249.74 255.383 C 249.804 255.424 249.87 255.472 249.941 255.514 C 250.021 255.559 250.164 255.654 250.406 255.654 C 250.505 255.654 250.785 255.656 251.018 255.461 C 251.074 255.423 251.185 255.364 251.166 255.375 L 251.238 255.336 L 251.299 255.283 C 251.367 255.215 251.423 255.178 251.385 255.197 L 251.457 255.158 L 251.502 255.121 L 251.732 255.121 C 251.528 255.121 251.581 255.122 251.785 255.193 L 251.881 255.238 L 251.947 255.238 C 252 255.276 252.084 255.314 252.25 255.314 L 252.613 255.314 L 252.699 255.275 C 252.926 255.185 253.059 255.035 253.143 254.914 C 253.267 254.736 253.305 254.599 253.305 254.596 L 253.305 254.559 L 253.305 254.52 C 253.342 254.455 253.344 254.449 253.352 254.434 C 253.541 254.551 253.771 254.627 254 254.627 C 254.049 254.627 254.107 254.562 254.164 254.551 C 254.1 254.607 254.031 254.656 253.971 254.721 L 253.932 254.758 L 253.895 254.797 C 253.74 255.016 253.63 255.28 253.66 255.607 C 253.66 255.838 253.747 255.993 253.762 256.043 C 253.818 256.198 253.85 256.255 253.857 256.293 C 253.895 256.376 253.895 256.474 253.895 256.58 C 253.895 256.622 253.856 256.735 253.826 256.867 C 253.781 257.03 253.728 257.248 253.709 257.48 L 253.709 257.518 C 253.709 257.707 253.709 257.934 253.789 258.189 L 253.789 258.229 L 253.789 258.266 C 253.91 258.553 254.083 258.755 254.166 258.885 C 254.211 258.964 254.259 259.063 254.338 259.203 C 254.421 259.351 254.544 259.528 254.75 259.668 C 254.988 259.838 255.246 259.838 255.355 259.838 L 255.695 259.838 C 255.698 259.838 255.756 259.837 255.865 259.883 L 255.949 259.922 L 256.033 259.922 L 256.424 259.922 C 256.704 259.884 256.912 259.788 257.037 259.713 C 257.158 259.641 257.272 259.582 257.393 259.514 C 257.438 259.476 257.565 259.475 257.805 259.43 L 257.703 259.43 C 258.021 259.43 258.295 259.304 258.516 259.119 C 258.735 258.923 258.844 258.681 258.906 258.479 C 258.967 258.282 258.98 258.126 259.01 257.982 C 259.048 257.903 259.058 257.848 259.088 257.799 C 259.05 257.799 259.047 257.798 259.156 257.881 C 259.221 257.968 259.304 258.09 259.467 258.207 C 259.641 258.347 259.861 258.43 260.08 258.43 L 260.5 258.43 L 260.584 258.391 C 260.913 258.277 261.161 258.066 261.344 257.83 C 261.518 257.581 261.627 257.31 261.691 257.047 C 261.756 256.786 261.786 256.551 261.816 256.34 C 261.903 255.743 262.038 255.195 262.324 254.797 C 262.589 254.438 263.014 254.154 263.492 253.932 C 263.73 253.826 264.027 253.695 264.303 253.461 C 264.477 253.329 264.62 253.143 264.701 252.922 C 264.799 252.688 264.811 252.47 264.773 252.25 L 264.773 252.205 L 264.773 252.166 C 264.679 251.879 264.494 251.703 264.354 251.576 C 264.176 251.414 264.005 251.32 263.895 251.252 C 263.895 251.252 263.828 251.172 263.756 251.074 C 263.718 250.995 263.691 250.915 263.688 250.881 C 263.688 250.809 263.725 250.68 263.74 250.475 L 263.74 250.438 L 263.74 250.195 C 263.74 249.935 263.631 249.796 263.57 249.701 L 263.57 249.662 L 263.57 249.625 C 263.408 249.421 263.218 249.36 263.119 249.322 L 263.033 249.285 L 262.939 249.285 C 262.977 249.285 262.871 249.238 262.645 249.238 C 262.546 249.238 262.526 249.236 262.533 249.238 L 262.447 249.201 L 262.41 249.201 C 262.372 249.122 262.372 249.088 262.35 248.967 L 262.35 248.93 L 262.35 248.891 C 262.312 248.804 262.296 248.692 262.217 248.529 L 262.18 248.482 L 262.141 248.445 C 262.031 248.302 261.891 248.173 261.676 248.09 L 261.594 248.053 L 261.26 248.053 C 261.109 248.053 261.049 248.105 260.98 248.146 C 260.98 248.078 261.018 248.015 261.018 247.947 C 261.018 247.781 260.936 247.666 260.895 247.613 C 260.849 247.553 260.818 247.523 260.807 247.512 C 260.761 247.466 260.622 247.324 260.357 247.305 C 260.233 247.267 260.099 247.252 260.031 247.252 L 259.736 247.252 L 259.736 247.213 C 259.736 247.251 259.737 247.148 259.684 247.027 L 259.684 246.982 L 259.67 246.969 C 259.674 246.951 259.649 246.863 259.578 246.695 C 259.54 246.646 259.528 246.434 259.207 246.26 C 259.113 246.203 258.977 246.113 258.75 246.113 L 258.52 246.113 L 258.129 246.113 C 258.127 246.113 258.045 246.056 257.887 245.928 C 257.792 245.852 257.625 245.647 257.311 245.514 C 257.012 245.385 256.743 245.396 256.551 245.396 C 256.362 245.396 256.296 245.397 256.277 245.359 C 256.213 245.314 256.187 245.287 256.184 245.279 C 256.146 245.234 256.146 245.22 256.146 245.205 L 255.363 245.057 L 255.918 244.887 C 255.443 244.52 254.843 244.289 254.205 244.311 z " transform="scale(0.264582)"></path><path style="color:#000000;font-style:normal;font-variant:normal;font-weight:normal;font-stretch:normal;font-size:medium;line-height:normal;font-family:sans-serif;font-variant-ligatures:normal;font-variant-position:normal;font-variant-caps:normal;font-variant-numeric:normal;font-variant-alternates:normal;font-feature-settings:normal;text-indent:0;text-align:start;text-decoration:none;text-decoration-line:none;text-decoration-style:solid;text-decoration-color:#000000;letter-spacing:normal;word-spacing:normal;text-transform:none;writing-mode:lr-tb;direction:ltr;text-orientation:mixed;dominant-baseline:auto;baseline-shift:baseline;text-anchor:start;white-space:normal;shape-padding:0;clip-rule:nonzero;display:inline;overflow:visible;visibility:visible;opacity:1;isolation:auto;mix-blend-mode:normal;color-interpolation:sRGB;color-interpolation-filters:linearRGB;solid-color:#000000;solid-opacity:1;vector-effect:none;fill:#000000;fill-opacity:1;fill-rule:nonzero;stroke:none;stroke-width:1px;stroke-linecap:butt;stroke-linejoin:miter;stroke-miterlimit:4;stroke-dasharray:none;stroke-dashoffset:0;stroke-opacity:1;color-rendering:auto;image-rendering:auto;shape-rendering:auto;text-rendering:auto;enable-background:accumulate" d="M 262.398 258.508 C 262.092 258.508 261.86 258.666 261.689 258.848 C 261.489 259.022 261.395 259.206 261.35 259.283 C 261.259 259.45 261.194 259.594 261.164 259.646 C 261.107 259.737 261.058 259.821 260.979 259.904 C 260.929 259.957 260.878 259.979 260.84 259.994 C 260.628 260.055 260.499 260.133 260.455 260.148 L 260.418 260.148 L 260.379 260.148 C 260.129 260.247 259.844 260.403 259.619 260.674 C 259.347 260.995 259.245 261.322 259.154 261.449 C 259.014 261.65 258.784 261.8 258.549 261.848 C 258.473 261.848 258.398 261.809 258.318 261.809 C 258.243 261.741 258.176 261.64 258.119 261.609 L 258.01 261.549 L 257.721 261.549 C 257.456 261.549 257.331 261.7 257.271 261.771 C 257.211 261.84 257.184 261.892 257.188 261.881 L 257.75 261.727 L 257.477 262.242 L 257.307 262.242 C 257.182 262.204 257.046 262.179 256.871 262.172 C 256.368 262.111 255.953 262.341 255.66 262.584 C 255.35 262.864 255.153 263.232 255.057 263.617 C 255 263.833 254.98 264.022 254.961 264.098 C 254.927 264.212 254.906 264.251 254.885 264.277 C 254.836 264.311 254.811 264.331 254.816 264.33 L 254.758 264.363 L 254.557 264.363 C 254.421 264.363 254.18 264.287 253.834 264.287 L 253.531 264.287 C 253.304 264.287 253.085 264.378 252.918 264.529 C 252.805 264.639 252.679 264.809 252.615 265.002 L 252.615 265.039 L 252.615 265.076 C 252.566 265.292 252.562 265.533 252.725 265.771 C 252.762 265.821 252.775 265.865 252.828 265.926 C 252.87 265.975 252.997 265.998 253.092 266.043 C 253.148 266.088 253.206 266.118 253.277 266.145 C 253.278 266.142 253.277 266.142 253.277 266.184 L 253.277 266.221 L 253.232 266.221 C 253.232 266.221 253.27 266.22 253.27 266.258 L 253.27 266.297 C 253.232 266.38 253.232 266.373 253.217 266.422 C 253.149 266.558 253.129 266.757 253.129 266.834 C 253.129 266.959 253.183 267.148 253.232 267.248 C 253.285 267.361 253.348 267.44 253.363 267.471 L 253.363 267.508 L 253.363 267.547 C 253.458 267.672 253.534 267.758 253.572 267.811 C 253.61 267.886 253.625 267.92 253.625 267.98 C 253.625 268.098 253.623 268.136 253.588 268.246 L 253.588 268.283 C 253.55 268.506 253.424 268.83 253.477 269.242 C 253.529 269.749 253.807 270.134 254.076 270.432 C 254.352 270.719 254.647 270.939 254.881 271.148 C 255.108 271.364 255.313 271.608 255.492 271.879 C 255.685 272.166 255.879 272.54 256.238 272.875 C 256.469 273.06 256.746 273.246 257.088 273.348 C 257.341 273.423 257.645 273.525 258.002 273.525 C 258.542 273.597 259.035 273.615 259.428 273.732 C 259.738 273.834 260.086 273.989 260.514 274.08 C 260.763 274.133 261.017 274.133 261.266 274.08 C 261.579 274.012 261.835 273.838 262.018 273.578 C 262.135 273.397 262.199 273.23 262.252 273.076 C 262.297 272.948 262.351 272.908 262.291 272.953 L 262.344 272.914 L 262.389 272.869 L 262.457 272.869 L 262.525 272.832 C 262.575 272.832 262.715 272.831 262.939 272.756 C 263.272 272.639 263.521 272.4 263.691 272.143 C 263.846 271.916 263.944 271.699 264.031 271.537 C 264.099 271.401 264.153 271.352 264.127 271.367 L 264.172 271.33 L 264.209 271.293 L 264.527 271.293 C 264.765 271.293 265.003 271.234 265.221 271.121 C 265.372 271.042 265.619 270.9 265.773 270.613 C 265.917 270.36 265.967 270.091 265.967 269.838 L 265.967 269.891 C 265.967 269.705 266.012 269.603 266.027 269.58 C 266.065 269.535 266.136 269.452 266.182 269.418 C 266.34 269.301 266.477 269.158 266.588 268.969 C 266.735 268.704 266.732 268.465 266.729 268.326 C 266.727 268.107 266.691 267.938 266.691 267.936 L 266.691 267.182 C 266.691 266.883 266.618 266.515 266.357 266.199 C 266.221 266.033 266.073 265.941 265.963 265.871 C 265.847 265.762 265.76 265.693 265.736 265.666 C 265.736 265.628 265.672 265.531 265.627 265.402 L 265.627 265.447 C 265.582 265.281 265.522 265.105 265.412 264.939 C 265.261 264.701 265.083 264.558 264.961 264.451 C 264.893 264.394 264.826 264.289 264.822 264.273 C 264.823 264.276 264.82 264.228 264.822 264.221 L 264.822 264.184 C 264.86 264.104 264.871 264.047 264.939 263.949 C 265.011 263.843 265.094 263.726 265.174 263.586 C 265.242 263.469 265.358 263.257 265.365 262.98 C 265.403 262.625 265.26 262.306 265.094 262.064 C 264.89 261.766 264.628 261.604 264.438 261.49 C 264.128 261.316 263.794 261.183 263.455 261.098 C 263.345 261.06 263.239 261.026 263.145 260.996 C 263.146 260.996 263.104 260.958 263.107 260.996 L 263.107 260.959 L 263.107 260.92 L 263.107 260.855 C 263.107 260.78 263.144 260.731 263.201 260.576 C 263.243 260.482 263.319 260.354 263.387 260.156 C 263.451 259.982 263.519 259.732 263.451 259.439 C 263.406 259.194 263.274 258.972 263.127 258.82 L 263.088 258.781 L 263.043 258.744 C 262.824 258.589 262.593 258.537 262.363 258.537 L 262.398 258.508 z " transform="scale(0.264582)"></path><path style="color:#000000;font-style:normal;font-variant:normal;font-weight:normal;font-stretch:normal;font-size:medium;line-height:normal;font-family:sans-serif;font-variant-ligatures:normal;font-variant-position:normal;font-variant-caps:normal;font-variant-numeric:normal;font-variant-alternates:normal;font-feature-settings:normal;text-indent:0;text-align:start;text-decoration:none;text-decoration-line:none;text-decoration-style:solid;text-decoration-color:#000000;letter-spacing:normal;word-spacing:normal;text-transform:none;writing-mode:lr-tb;direction:ltr;text-orientation:mixed;dominant-baseline:auto;baseline-shift:baseline;text-anchor:start;white-space:normal;shape-padding:0;clip-rule:nonzero;display:inline;overflow:visible;visibility:visible;opacity:1;isolation:auto;mix-blend-mode:normal;color-interpolation:sRGB;color-interpolation-filters:linearRGB;solid-color:#000000;solid-opacity:1;vector-effect:none;fill:#000000;fill-opacity:1;fill-rule:nonzero;stroke:none;stroke-width:1px;stroke-linecap:butt;stroke-linejoin:miter;stroke-miterlimit:4;stroke-dasharray:none;stroke-dashoffset:0;stroke-opacity:1;color-rendering:auto;image-rendering:auto;shape-rendering:auto;text-rendering:auto;enable-background:accumulate" d="M 243.709 261.992 L 243.049 262.037 L 242.971 262.074 C 242.861 262.112 242.682 262.169 242.512 262.309 C 242.338 262.452 242.237 262.529 242.15 262.566 L 241.863 262.566 C 241.735 262.529 241.628 262.508 241.553 262.471 C 241.402 262.395 241.19 262.285 240.889 262.277 C 240.681 262.24 240.472 262.228 240.268 262.277 C 239.954 262.357 239.794 262.521 239.729 262.559 C 239.543 262.668 239.446 262.732 239.465 262.729 L 239.42 262.729 L 239.367 262.766 C 239.303 262.803 239.209 262.804 239.02 262.729 L 238.98 262.729 L 238.943 262.729 C 238.758 262.691 238.495 262.611 238.146 262.611 C 237.905 262.611 237.66 262.66 237.438 262.773 C 237.267 262.857 237.033 263.001 236.869 263.254 C 236.737 263.454 236.666 263.631 236.605 263.77 C 236.568 263.86 236.544 263.89 236.518 263.932 C 236.518 263.86 236.518 263.786 236.48 263.74 L 236.441 263.68 L 236.396 263.627 C 236.396 263.627 236.358 263.588 236.316 263.539 C 236.26 263.482 236.135 263.384 235.918 263.369 C 235.839 263.369 235.729 263.309 235.695 263.309 C 235.435 263.309 235.343 263.354 235.51 263.354 L 235.363 263.354 L 235.238 263.434 C 235.03 263.573 234.899 263.755 234.811 263.943 L 234.811 263.98 L 234.811 264.02 C 234.769 264.152 234.723 264.317 234.719 264.527 C 234.719 264.86 234.779 265.088 234.779 265.215 L 234.779 265.486 C 234.779 265.524 234.742 265.54 234.734 265.582 C 234.734 265.582 234.682 265.631 234.58 265.691 C 234.463 265.759 234.358 265.807 234.309 265.822 C 234.093 265.883 233.922 265.993 233.791 266.072 C 233.598 266.197 233.444 266.357 233.334 266.561 L 233.334 266.598 L 233.334 266.635 C 233.236 266.922 233.246 267.17 233.246 267.359 L 233.246 267.615 C 233.246 267.653 233.208 267.681 233.246 267.654 C 233.057 267.749 232.986 267.82 233.023 267.801 C 232.944 267.839 232.784 267.907 232.645 268.059 C 232.542 268.164 232.457 268.282 232.396 268.406 L 232.396 268.443 L 232.396 268.48 C 232.328 268.688 232.328 268.93 232.396 269.139 C 232.438 269.29 232.494 269.421 232.535 269.521 C 232.581 269.616 232.614 269.712 232.645 269.803 C 232.647 269.803 232.642 269.84 232.645 269.84 C 232.644 269.842 232.645 269.88 232.6 269.926 C 232.6 269.926 232.563 269.927 232.453 270.074 C 232.45 270.074 232.377 270.119 232.26 270.289 C 232.173 270.41 232.128 270.512 232.098 270.576 L 232.061 270.637 L 232.061 270.697 C 232.011 270.932 232.021 271.165 232.135 271.391 C 232.214 271.606 232.343 271.793 232.506 271.922 C 232.782 272.179 233.064 272.31 233.236 272.426 C 233.471 272.585 233.761 272.905 234.256 273.074 C 234.57 273.188 234.861 273.184 235.082 273.184 L 235.119 273.184 L 235.166 273.184 C 235.389 273.146 235.639 273.1 235.904 273.006 C 236.357 272.843 236.732 272.688 237.062 272.658 L 237.1 272.658 L 237.139 272.658 L 237.521 272.658 C 237.521 272.658 237.582 272.659 237.639 272.727 C 237.737 272.81 237.835 273.006 237.934 273.258 C 238.036 273.526 238.118 273.758 238.148 273.988 C 238.148 274.113 238.151 274.265 238.188 274.439 C 238.225 274.64 238.271 274.863 238.418 275.074 C 238.626 275.392 238.946 275.569 239.266 275.627 C 239.591 275.687 239.87 275.629 240.078 275.59 C 240.638 275.488 240.986 275.258 241.201 275.258 L 241.238 275.258 L 241.277 275.258 C 241.47 275.22 241.663 275.256 241.846 275.328 C 242.103 275.438 242.348 275.557 242.605 275.67 C 243.404 276.033 244.167 276.297 244.643 276.783 C 244.764 276.908 244.882 277.055 245.027 277.219 C 245.175 277.377 245.359 277.583 245.654 277.715 C 245.896 277.824 246.187 277.892 246.502 277.824 L 246.541 277.824 C 246.764 277.756 246.981 277.607 247.123 277.395 C 247.255 277.194 247.328 277 247.332 276.746 C 247.332 276.538 247.294 276.349 247.223 276.154 C 247.147 275.98 247.047 275.838 246.941 275.705 C 246.681 275.418 246.377 275.281 246.131 275.166 C 245.806 275.015 245.551 274.978 245.385 274.902 C 245.241 274.823 245.116 274.773 245.09 274.754 C 244.984 274.682 244.947 274.648 244.936 274.629 C 244.89 274.565 244.896 274.588 244.896 274.543 L 244.928 274.543 L 244.998 274.502 C 245.004 274.497 245.022 274.49 245.061 274.49 L 245.162 274.49 L 245.264 274.443 C 245.347 274.406 245.384 274.406 245.301 274.406 L 245.418 274.406 L 245.514 274.354 C 245.601 274.312 245.778 274.214 245.904 274.029 C 246.071 273.791 246.082 273.519 246.082 273.408 C 246.082 273.223 246.026 273.08 245.988 272.959 C 245.95 272.838 245.936 272.755 245.936 272.773 L 246.363 272.773 C 246.681 272.773 246.952 272.645 247.168 272.494 C 247.346 272.366 247.522 272.22 247.684 272.027 C 247.967 271.702 248.163 271.365 248.363 271.098 C 248.469 270.95 248.628 270.784 248.77 270.529 C 248.894 270.287 249.027 269.984 248.947 269.592 C 248.894 269.331 248.774 269.119 248.615 268.941 C 248.498 268.809 248.369 268.693 248.252 268.58 L 248.213 268.541 L 248.176 268.504 C 248.138 268.466 248.085 268.435 248.043 268.371 L 248.043 268.334 C 248.005 268.251 248.001 268.182 247.982 268.246 L 247.982 268.209 L 247.982 268.172 C 247.984 268.172 248.025 268.059 248.07 268.002 C 248.142 267.915 248.277 267.766 248.387 267.543 C 248.481 267.358 248.528 267.146 248.535 266.932 C 248.577 266.682 248.535 266.482 248.535 266.422 L 248.535 266.383 L 248.535 266.346 C 248.463 265.608 248.323 264.879 248.121 264.168 L 247.959 263.6 L 247.619 263.762 C 247.121 263.543 246.642 263.266 246.23 262.906 C 246.147 262.834 246.061 262.751 245.951 262.664 C 245.774 262.52 245.541 262.441 245.316 262.441 C 245.09 262.441 244.937 262.525 244.844 262.566 C 244.64 262.657 244.556 262.74 244.594 262.721 C 244.508 262.762 244.463 262.774 244.445 262.779 C 244.409 262.743 244.401 262.716 244.371 262.664 C 244.333 262.6 244.288 262.502 244.209 262.393 C 244.137 262.291 244.027 262.139 243.803 262.037 L 243.709 261.992 z " transform="scale(0.264582)"></path><path style="" d="m 64.8311,64.625 c 0,0 -0.1282,-0.03 -0.1282,-0.03 -0.097,0.385 -0.1653,0.97 0,1.638 0.036,0.119 0.083,0.242 0.1146,0.369 0.039,0.175 0.047,0.373 0.088,0.564 0.03,0.158 0.085,0.316 0.1296,0.458 0.05,0.158 0.09,0.302 0.1009,0.452 0.012,0.02 0.02,0.04 0.02,0.05 0,-0.01 0.01,-0.03 0.018,-0.05 0,-0.155 -0.034,-0.305 -0.074,-0.468 -0.036,-0.149 -0.078,-0.302 -0.096,-0.456 -0.018,-0.182 0,-0.376 -0.023,-0.574 -0.01,-0.131 -0.041,-0.291 -0.057,-0.393 -0.1309,-0.628 -0.053,-1.169 0.037,-1.524 0,0 -0.1282,-0.03 -0.1282,-0.03 z" fill="#000000" fill-rule="nonzero" stroke="#000000" stroke-width="0.264582px" stroke-linecap="butt" stroke-linejoin="miter" stroke-opacity="1"></path><path style="" d="m 62.9458,67.345 c 0,0 -0.067,0.114 -0.067,0.114 0.1308,0.08 0.32,0.17 0.5559,0.249 0.1546,0.05 0.3245,0.09 0.4924,0.15 0.177,0.06 0.3396,0.136 0.5259,0.215 0.069,0.03 0.1415,0.06 0.2163,0.08 0.077,0.02 0.1542,0.03 0.2324,0.02 0.077,-0.01 0.1488,-0.04 0.2052,-0.07 0.029,-0.02 0.055,-0.03 0.074,-0.04 -0.019,0 -0.048,0.01 -0.082,0.01 -0.062,0.01 -0.1317,0.02 -0.1996,0.02 -0.066,0 -0.1315,-0.02 -0.1969,-0.04 -0.064,-0.03 -0.1274,-0.06 -0.1914,-0.1 -0.1716,-0.09 -0.3364,-0.189 -0.5143,-0.269 -0.1722,-0.08 -0.3381,-0.136 -0.478,-0.196 -0.2147,-0.09 -0.3845,-0.186 -0.5059,-0.257 0,0 -0.067,0.114 -0.067,0.114 z" fill="#000000" fill-rule="nonzero" stroke="#000000" stroke-width="0.264582px" stroke-linecap="butt" stroke-linejoin="miter" stroke-opacity="1"></path><path style="" d="m 67.7396,66.967 c 0,0 -0.109,-0.08 -0.109,-0.08 -0.1652,0.24 -0.4464,0.545 -0.8759,0.747 -0.1866,0.09 -0.4053,0.164 -0.6485,0.198 -0.1947,0.03 -0.4017,0.03 -0.6091,0 -0.044,0 -0.098,0 -0.1501,0 -0.056,0 -0.1108,0.02 -0.1535,0.05 -0.03,0.03 -0.048,0.06 -0.057,0.09 -0.012,0.04 -0.01,0.07 -0.01,0.1 0,-0.02 0.01,-0.06 0.029,-0.09 0.017,-0.02 0.042,-0.04 0.07,-0.05 0.035,-0.01 0.075,-0.01 0.1152,0 0.04,0.01 0.078,0.03 0.1244,0.05 0.2221,0.05 0.4473,0.07 0.6623,0.05 0.2682,-0.02 0.5141,-0.09 0.7267,-0.178 0.4852,-0.212 0.8074,-0.546 0.9941,-0.817 0,0 -0.109,-0.07 -0.109,-0.07 z" fill="#000000" fill-rule="nonzero" stroke="#000000" stroke-width="0.264582px" stroke-linecap="butt" stroke-linejoin="miter" stroke-opacity="1"></path><path style="" d="m 68.3858,70.172 c 0,0 0.1,-0.09 0.1,-0.09 -0.2413,-0.278 -0.5644,-0.639 -0.9518,-1.054 -0.2151,-0.229 -0.4969,-0.528 -0.8405,-0.722 -0.1751,-0.09 -0.3588,-0.16 -0.5496,-0.229 -0.1619,-0.06 -0.3255,-0.116 -0.4905,-0.176 -0.067,-0.02 -0.1401,-0.04 -0.2169,-0.05 -0.041,0 -0.079,0.01 -0.1143,0.02 -0.039,0.02 -0.07,0.04 -0.093,0.06 -0.042,0.04 -0.056,0.09 -0.061,0.128 0,-0.04 0.027,-0.08 0.073,-0.114 0.026,-0.02 0.058,-0.02 0.093,-0.03 0.03,0 0.062,0 0.092,0.02 0.06,0.01 0.115,0.04 0.1777,0.08 0.1601,0.07 0.3193,0.146 0.4769,0.216 0.1893,0.08 0.3531,0.154 0.5064,0.251 0.3033,0.184 0.5545,0.467 0.7661,0.704 0.3778,0.421 0.6927,0.784 0.9334,1.062 0,0 0.1,-0.09 0.1,-0.09 z" fill="#000000" fill-rule="nonzero" stroke="#000000" stroke-width="0.264582px" stroke-linecap="butt" stroke-linejoin="miter" stroke-opacity="1"></path><path style="opacity:1;fill:#000000;fill-opacity:1;stroke:#000000;stroke-width:0.793746;stroke-linecap:round;stroke-linejoin:round;stroke-miterlimit:4;stroke-dasharray:none;stroke-dashoffset:0;stroke-opacity:1;paint-order:normal" d="m 70.43,57.072 c -0.7569,0.528 -1.1629,-0.448 -1.7696,-0.379 -0.2406,-0.909 0.03,-1.558 0.788,-2.085 0.7558,-0.527 1.0128,-0.235 1.5458,0.535 0.5336,0.771 0.1934,1.405 -0.5642,1.929 z"></path><path d="m 69.3411,55.547 c -0.083,0.919 -0.7093,0.583 -1.0491,1.09 -0.8503,-0.401 -1.3732,-0.937 -1.2846,-1.856 0.083,-0.919 0.6086,-0.826 1.37,-1.078 0.9332,0.09 1.0528,0.924 0.967,1.842 z" style="opacity:1;fill:#000000;fill-opacity:1;stroke:#000000;stroke-width:0.793746;stroke-linecap:round;stroke-linejoin:round;stroke-miterlimit:4;stroke-dasharray:none;stroke-dashoffset:0;stroke-opacity:1;paint-order:normal"></path><path style="" d="m 68.9873,55.965 c 0,0 -0.1027,-0.08 -0.1027,-0.08 -0.2544,0.313 -0.5623,0.702 -0.906,1.154 -0.1108,0.148 -0.2388,0.321 -0.3647,0.501 -0.1031,0.147 -0.2104,0.306 -0.3158,0.474 -0.4027,0.618 -0.7606,1.322 -0.9313,2.092 -0.1146,0.523 -0.1406,1.065 -0.1154,1.61 0.019,0.438 0.069,0.877 0.094,1.311 0.025,0.433 0.023,0.861 -0.061,1.281 -0.038,0.205 -0.094,0.405 -0.183,0.589 -0.1281,0.263 -0.3202,0.493 -0.4965,0.727 -0.1243,0.167 -0.2386,0.335 -0.2996,0.527 -0.054,0.172 -0.061,0.354 -0.058,0.514 0,0.185 0.018,0.357 0.013,0.513 -0.012,0.33 -0.098,0.612 -0.1966,0.825 0.098,-0.213 0.1876,-0.493 0.2062,-0.825 0.01,-0.156 0,-0.329 0.01,-0.513 0,-0.16 0.019,-0.335 0.078,-0.498 0.065,-0.179 0.1814,-0.335 0.3116,-0.495 0.1785,-0.223 0.3868,-0.458 0.5285,-0.727 0.1022,-0.192 0.1709,-0.399 0.2192,-0.611 0.092,-0.435 0.098,-0.876 0.078,-1.314 -0.02,-0.441 -0.067,-0.88 -0.08,-1.31 -0.016,-0.537 0.019,-1.061 0.1378,-1.562 0.1727,-0.738 0.5257,-1.416 0.9267,-2.018 0.1101,-0.159 0.2219,-0.311 0.3288,-0.452 0.1293,-0.17 0.2632,-0.34 0.3763,-0.483 0.3471,-0.446 0.6562,-0.831 0.9094,-1.144 0,0 -0.1027,-0.08 -0.1027,-0.08 z" fill="#000000" fill-rule="nonzero" stroke="#000000" stroke-width="0.264582px" stroke-linecap="butt" stroke-linejoin="miter" stroke-opacity="1"></path><path style="" d="m 52.5721,69.066 c -0.082,0.383 -2.2764,0.101 -4.2614,1.765 -0.3715,0.305 -0.7749,0.738 -1.3618,1.2 0,0 0,0 0,0 -1.351,1.029 -2.9497,1.623 -4.706,2.026 -1.1381,0.276 -2.3357,0.506 -3.5833,0.674 -2.0845,0.28 -4.0665,0.355 -5.8977,0.277 -0.8102,-0.03 -1.5852,-0.1 -2.3493,-0.228 -1.6042,-0.277 -2.82,-0.716 -3.8203,-0.954 0,0 0,0 0,0 -1.8614,-0.446 -3.0747,-0.457 -3.1176,-0.798 -0.032,-0.255 1.1251,-0.851 3.3084,-0.824 0,0 0,0 0,0 1.1609,0.02 2.5203,0.266 3.8955,0.344 0.6587,0.04 1.3358,0.03 2.1015,0.01 1.7267,-0.05 3.5667,-0.188 5.5269,-0.452 1.1712,-0.157 2.2984,-0.348 3.3803,-0.563 1.6617,-0.353 2.9302,-0.659 3.9818,-1.326 0,0 0,0 0,0 0.4619,-0.279 0.9568,-0.677 1.5244,-1.016 3.5681,-2.103 5.3577,-0.04 5.3786,-0.137 z" fill="#000000" stroke="none"></path><path style="" d="m 51.5057,73.789 c 0.1294,0.445 -1.8546,1.275 -4.5947,2.949 0,0 0,0 0,0 -1.7481,1.095 -4.1414,2.705 -5.2738,4.912 -0.058,0.108 -0.1161,0.225 -0.1777,0.349 -0.2325,0.468 -0.4932,1.006 -0.8915,1.576 -0.5468,0.737 -1.2016,1.29 -1.8519,1.699 -1.81,1.152 -3.4137,1.56 -4.4587,2.258 -1.0756,0.684 -1.8682,1.672 -2.3657,2.32 -0.5663,0.744 -0.8854,1.22 -1.1044,1.152 -0.1909,-0.06 -0.2731,-0.666 0.023,-1.682 0.2607,-0.901 0.8824,-2.251 2.1779,-3.418 1.2715,-1.108 3.0117,-1.806 4.2985,-2.746 0.4533,-0.336 0.8718,-0.7 1.1391,-1.107 0.2212,-0.301 0.4024,-0.721 0.664,-1.24 0.069,-0.137 0.1433,-0.279 0.224,-0.425 1.7036,-3.003 4.55,-4.651 6.6402,-5.518 0,0 0,0 0,0 3.2092,-1.368 5.4456,-1.443 5.5515,-1.079 z" fill="#000000" stroke="none"></path><path style="" d="m 51.5057,55.965 c -0.5144,0.349 -2.9657,-2.726 -7.2582,-5.176 -0.3428,-0.195 -0.7184,-0.399 -1.1162,-0.634 -0.473,-0.279 -0.9422,-0.584 -1.4046,-0.914 -2.9229,-2.089 -4.7964,-4.64 -5.8262,-6.721 -1.0214,-2.063 -1.1569,-3.486 -0.8476,-3.617 0.3555,-0.151 1.111,0.985 2.4276,2.616 1.3532,1.676 3.1936,3.718 5.7844,5.57 0.4091,0.292 0.8195,0.567 1.2302,0.826 0.3466,0.218 0.7159,0.439 1.09,0.68 4.8866,3.151 6.3254,7.095 5.9206,7.37 z" fill="#000000" stroke="none"></path><path style="" d="m 56.6855,54.137 c -0.5366,0.08 -1.2361,-2.37 -3.1082,-5.171 -0.5595,-0.841 -1.2839,-1.762 -1.9748,-2.908 -0.1034,-0.171 -0.2017,-0.341 -0.2969,-0.509 -0.3426,-0.606 -0.604,-1.113 -0.9083,-1.573 -0.4371,-0.684 -1.0212,-1.35 -1.5445,-2.064 -0.6619,-0.875 -1.1448,-1.766 -1.3933,-2.698 -0.2288,-0.933 -0.1702,-1.746 -0.085,-2.235 0.1056,-0.622 0.2831,-0.961 0.4753,-0.971 0.1976,-0.01 0.3916,0.308 0.6149,0.861 0.1546,0.378 0.4291,1.187 0.7283,1.695 0.3315,0.602 0.788,1.102 1.4708,1.833 0.5221,0.54 1.2488,1.253 1.8698,2.099 0.4257,0.594 0.7551,1.179 1.0775,1.751 0.091,0.161 0.1776,0.315 0.2643,0.465 0.5781,0.995 1.2608,1.992 1.7986,3.03 1.8535,3.592 1.4486,6.326 1.0116,6.395 z" fill="#000000" stroke="none"></path><path style="" d="m 67.0449,52.157 c -0.3695,0 -0.7098,-1.783 -0.9578,-4.658 0,0 0,0 0,0 -0.09,-1.032 -0.1856,-2.395 -0.084,-3.799 0.1273,-1.786 0.6227,-3.816 1.7794,-5.701 0.248,-0.398 0.5013,-0.755 0.7437,-1.096 0.096,-0.137 0.1931,-0.274 0.2894,-0.412 0.9368,-1.337 1.7326,-2.531 2.3735,-3.783 0.7038,-1.355 1.2404,-2.779 1.8371,-4.041 0.3009,-0.639 0.5865,-1.187 0.8068,-1.69 1.0202,-2.31 1.0798,-4.047 1.4384,-4.07 0.2424,-0.02 1.0453,1.678 0.315,4.654 -0.1628,0.658 -0.3608,1.23 -0.58,1.898 -0.3719,1.14 -0.8753,2.847 -1.5421,4.341 -0.6624,1.464 -1.5096,2.832 -2.4822,4.213 -0.1006,0.143 -0.2014,0.284 -0.3021,0.424 -0.2503,0.351 -0.4791,0.662 -0.6751,0.966 -0.9269,1.412 -1.4178,3.066 -1.6744,4.569 -0.1935,1.143 -0.2737,2.531 -0.3551,3.521 0,0 0,0 0,0 -0.2323,2.877 -0.5607,4.663 -0.9304,4.664 z" fill="#000000" stroke="none"></path><path style="" d="m 72.2244,53.376 c -0.3972,-0.03 -1.3174,-4.552 2.0313,-10.117 0,0 0,0 0,0 0.6805,-1.126 1.4879,-2.204 2.4079,-3.26 0.3255,-0.374 0.6553,-0.733 0.9845,-1.079 0.6137,-0.647 1.2309,-1.253 1.8608,-1.818 4.5492,-4.083 8.7884,-5.212 9.0162,-4.75 0.2654,0.538 -3.3647,2.668 -7.2704,6.592 -0.5552,0.558 -1.1073,1.143 -1.6806,1.77 -0.3051,0.335 -0.612,0.677 -0.9146,1.024 -0.8589,0.985 -1.6085,1.924 -2.2604,2.887 0,0 0,0 0,0 -3.0496,4.483 -3.5734,8.792 -4.1747,8.751 z" fill="#000000" stroke="none"></path><path style="" d="m 80.7556,65.867 c 0.118,-0.467 2.5389,-0.112 6.1689,-0.113 1.9077,10e-4 3.534,-0.09 5.9404,-0.216 0.7768,-0.04 1.5959,-0.08 2.3776,-0.146 0.737,-0.06 1.4348,-0.139 2.1086,-0.258 1.2594,-0.214 2.5381,-0.574 3.8169,-0.794 5.402,-0.929 8.756,0.693 8.685,1.07 -0.1,0.522 -3.603,0.08 -8.185,1.276 -1.123,0.292 -2.3733,0.72 -3.8335,1.018 -0.7818,0.155 -1.5717,0.257 -2.3743,0.325 -0.8603,0.07 -1.7047,0.101 -2.4991,0.117 -2.3113,0.05 -4.2965,0 -6.1786,-0.24 -3.8713,-0.498 -6.1238,-1.655 -6.0269,-2.039 z" fill="#000000" stroke="none"></path><path style="" d="m 79.2322,70.285 c 0.2129,-0.509 2.2854,-0.05 5.153,0.386 0,0 0,0 0,0 0.9673,0.146 2.3578,0.331 3.592,0.595 0.206,0.04 0.4109,0.09 0.6147,0.14 0,0 0,0 0,0 4.8089,1.178 7.5851,3.804 7.2461,4.364 -0.3623,0.599 -3.6159,-0.849 -7.8489,-1.794 0,0 0,0 0,0 -0.1852,-0.04 -0.3727,-0.08 -0.5642,-0.123 -1.2935,-0.276 -2.3868,-0.485 -3.5681,-0.834 0,0 0,0 0,0 -3.0705,-0.907 -4.8193,-2.269 -4.6246,-2.734 z" fill="#000000" stroke="none"></path><path style="" d="m 64.7596,85.367 c 0.4716,0.152 -0.1039,2.684 -0.282,6.509 -0.02,0.552 -0.041,1.11 0.05,1.566 0.1322,1.013 0.8116,1.931 1.623,3.248 0.4461,0.684 0.8985,1.402 1.3405,2.144 0.6039,1.014 1.1529,2.016 1.6439,3.021 0,0 0,0 0,0 1.4411,2.925 2.1183,5.509 2.1961,7.785 0,0 0,0 0,0 0.082,2.664 -0.6571,4.104 -0.9342,4.064 -0.3411,-0.05 -0.3286,-1.578 -0.8412,-3.848 0,0 0,0 0,0 -0.4528,-2.043 -1.2502,-4.07 -2.7173,-6.825 0,0 0,0 0,0 -0.4998,-0.93 -1.0359,-1.862 -1.6206,-2.843 -0.4234,-0.71 -0.8593,-1.425 -1.2744,-2.106 -0.831,-1.287 -1.5808,-2.681 -1.7698,-4.36 -0.057,-0.791 0.031,-1.499 0.1357,-2.084 0.6892,-4.081 2.0755,-6.392 2.4508,-6.271 z" fill="#000000" stroke="none"></path><path style="" d="m 71.3105,81.863 c 0.7029,-0.198 2.1713,3.374 5.3194,6.518 0.4851,0.484 0.9735,0.928 1.4616,1.337 0.5001,0.415 0.9994,0.802 1.5107,1.34 0.5949,0.605 1.0051,1.346 1.1837,2.117 0.1055,0.535 0.079,0.999 0.013,1.363 -0.051,0.302 -0.1436,0.591 -0.1878,0.745 -0.079,0.297 -0.1366,0.506 -0.1843,0.671 -0.03,0.1 -0.064,0.183 -0.1285,0.23 -0.063,0.05 -0.1575,0.06 -0.2769,0 -0.1966,-0.09 -0.45,-0.371 -0.5864,-0.82 -0.1004,-0.309 -0.126,-0.509 -0.2007,-0.812 -0.071,-0.272 -0.1589,-0.572 -0.2925,-0.789 -0.1771,-0.337 -0.4943,-0.627 -0.9404,-0.994 -0.3841,-0.301 -0.891,-0.6 -1.4748,-1.021 -0.6047,-0.432 -1.1988,-0.931 -1.7659,-1.497 -3.9244,-3.916 -4.0495,-8.221 -3.4505,-8.39 z" fill="#000000" stroke="none"></path><path style="" d="m 63.6731,70.9301 c 0,0 0.055,0.1202 0.055,0.1202 0.196,-0.09 0.431,-0.2252 0.6674,-0.4247 0.3291,-0.275 0.6305,-0.6481 0.8365,-1.1082 0.1078,-0.2444 0.1884,-0.513 0.2351,-0.7998 0.01,-0.06 0.016,-0.1273 0.015,-0.1958 -0,-0.067 -0.012,-0.1386 -0.041,-0.2076 -0.03,-0.064 -0.069,-0.1103 -0.095,-0.1534 -0.021,-0.038 -0.036,-0.077 -0.057,-0.1248 -0.02,-0.045 -0.045,-0.094 -0.081,-0.1368 -0.029,-0.029 -0.067,-0.056 -0.091,-0.075 -0.028,-0.022 -0.05,-0.045 -0.062,-0.071 -0.012,-0.026 -0.015,-0.056 -0.014,-0.087 0,-0.035 0.01,-0.069 0.01,-0.099 -0,-0.019 -0,-0.035 -0,-0.048 7e-4,0.013 -0,0.029 -0.01,0.047 -0.01,0.033 -0.016,0.056 -0.027,0.095 -0.01,0.03 -0.017,0.069 -0.011,0.1084 0.01,0.044 0.03,0.082 0.055,0.1156 0.025,0.034 0.046,0.058 0.062,0.087 0.022,0.032 0.036,0.069 0.05,0.1124 0.013,0.041 0.028,0.093 0.048,0.1406 0.024,0.062 0.052,0.1118 0.062,0.1536 0.014,0.043 0.018,0.091 0.015,0.1411 -0,0.052 -0.013,0.1066 -0.026,0.1621 -0.053,0.2683 -0.1369,0.5164 -0.2435,0.7396 -0.1985,0.4224 -0.4823,0.7615 -0.7871,1.0092 -0.2209,0.1776 -0.4377,0.2978 -0.6166,0.3799 0,0 0.055,0.1202 0.055,0.1202 z" fill="#000000" fill-rule="nonzero" stroke="none"></path></svg>