<svg xmlns="http://www.w3.org/2000/svg" viewBox="0 0 60 60" x="0px" y="0px"><title>Office Equipment -004 - Laptop off</title><rect x="6" y="1" width="48" height="32" rx="2" ry="2" fill="none" stroke="#000" stroke-linecap="round" stroke-linejoin="round" stroke-width="2"></rect><rect x="18" y="-3" width="24" height="40" rx="1" ry="1" transform="translate(47 -13) rotate(90)" fill="none" stroke="#000" stroke-linecap="round" stroke-linejoin="round" stroke-width="2"></rect><path d="M37,53H56.94a2.00542,2.00542,0,0,0,1.94-2.66L52.64,33H7.36L1.12,50.34A2.00542,2.00542,0,0,0,3.06,53H23" fill="none" stroke="#000" stroke-linecap="round" stroke-linejoin="round" stroke-width="2"></path><path d="M59,51.01V56a2.996,2.996,0,0,1-3,3H4a2.996,2.996,0,0,1-3-3V51.01" fill="none" stroke="#000" stroke-linecap="round" stroke-linejoin="round" stroke-width="2"></path><path d="M37,53v1a1,1,0,0,1-1,1H24a1,1,0,0,1-1-1V53" fill="none" stroke="#000" stroke-linecap="round" stroke-linejoin="round" stroke-width="2"></path><path d="M35.46792,42H24.53208a1.03714,1.03714,0,0,0-1.00226.72528l-1.48909,5A1.009,1.009,0,0,0,23.043,49H36.957a1.009,1.009,0,0,0,1.00226-1.27472l-1.48909-5A1.03714,1.03714,0,0,0,35.46792,42Z" fill="none" stroke="#000" stroke-linecap="round" stroke-linejoin="round" stroke-width="2"></path><line x1="18" y1="5" x2="10" y2="13" fill="none" stroke="#000" stroke-linecap="round" stroke-linejoin="round" stroke-width="2"></line><line x1="24" y1="5" x2="10" y2="19" fill="none" stroke="#000" stroke-linecap="round" stroke-linejoin="round" stroke-width="2"></line><line x1="30" y1="5" x2="10" y2="25" fill="none" stroke="#000" stroke-linecap="round" stroke-linejoin="round" stroke-width="2"></line><line x1="36" y1="5" x2="12" y2="29" fill="none" stroke="#000" stroke-linecap="round" stroke-linejoin="round" stroke-width="2"></line><line x1="42" y1="5" x2="18" y2="29" fill="none" stroke="#000" stroke-linecap="round" stroke-linejoin="round" stroke-width="2"></line><line x1="48" y1="5" x2="24" y2="29" fill="none" stroke="#000" stroke-linecap="round" stroke-linejoin="round" stroke-width="2"></line><line x1="50" y1="9" x2="30" y2="29" fill="none" stroke="#000" stroke-linecap="round" stroke-linejoin="round" stroke-width="2"></line><line x1="50" y1="15" x2="36" y2="29" fill="none" stroke="#000" stroke-linecap="round" stroke-linejoin="round" stroke-width="2"></line><line x1="50" y1="21" x2="42" y2="29" fill="none" stroke="#000" stroke-linecap="round" stroke-linejoin="round" stroke-width="2"></line><line x1="4" y1="42" x2="56" y2="42" fill="none" stroke="#000" stroke-linejoin="round" stroke-width="2"></line></svg>
