<svg xmlns="http://www.w3.org/2000/svg" xmlns:xlink="http://www.w3.org/1999/xlink" version="1.1" x="0px" y="0px" viewBox="0 0 512 512" enable-background="new 0 0 512 512" xml:space="preserve"><g><g><g><path d="M255.992,284.002c-0.508,0-1.03-0.102-1.53-0.305c-2.038-0.844-3.007-3.186-2.163-5.225L339.52,67.921     c0.852-2.042,3.209-3.003,5.225-2.163c2.037,0.843,3.006,3.182,2.162,5.224l-87.221,210.552     C259.045,283.072,257.562,284.002,255.992,284.002z"></path></g></g><g><g><path d="M255.992,284.002c-1.569,0-3.053-0.93-3.693-2.468L165.084,70.982c-0.843-2.042,0.125-4.381,2.163-5.224     c2.046-0.832,4.381,0.128,5.225,2.163l87.213,210.552c0.844,2.039-0.125,4.381-2.162,5.225     C257.023,283.9,256.5,284.002,255.992,284.002z"></path></g></g><g><g><path d="M256.015,511.898c-3.615,0-7.239-1.374-9.996-4.115c-2.522-2.522-7.044-2.819-9.886-0.648     c-6.154,4.725-15.018,3.562-19.75-2.592c-2.179-2.828-6.638-3.733-9.738-1.938c-3.241,1.875-7.044,2.358-10.691,1.391     c-3.647-0.977-6.685-3.304-8.559-6.553c-1.789-3.1-6.092-4.553-9.379-3.193c-3.46,1.437-7.263,1.444-10.754,0.016     c-3.498-1.445-6.224-4.162-7.676-7.653c-1.367-3.304-5.412-5.295-8.879-4.404c-7.465,2.038-15.197-2.452-17.227-9.949     c-0.93-3.475-4.771-5.974-8.231-5.505c-7.723,0.976-14.814-4.459-15.822-12.144c-0.468-3.538-3.881-6.528-7.45-6.528     c-7.77-0.016-14.088-6.334-14.088-14.096c-0.008-3.562-2.999-6.981-6.529-7.458c-3.709-0.477-7.028-2.39-9.332-5.389     s-3.295-6.7-2.803-10.433c0.46-3.522-2.062-7.294-5.505-8.224c-3.608-0.952-6.646-3.28-8.536-6.536     c-1.89-3.271-2.397-7.075-1.429-10.715c0.93-3.459-1.085-7.535-4.381-8.902c-3.459-1.429-6.169-4.131-7.614-7.605     c-1.444-3.483-1.452-7.317-0.016-10.793c1.367-3.311-0.086-7.598-3.178-9.371c-6.724-3.912-9.035-12.549-5.169-19.273     c1.788-3.092,0.906-7.543-1.929-9.714c-2.968-2.257-4.881-5.561-5.381-9.293c-0.5-3.757,0.484-7.474,2.78-10.465     c2.171-2.835,1.882-7.349-0.641-9.87c-2.655-2.648-4.123-6.186-4.123-9.965c0-3.772,1.46-7.317,4.123-9.98     c2.53-2.522,2.819-7.036,0.641-9.871c-4.732-6.173-3.554-15.036,2.616-19.761c2.819-2.179,3.702-6.642,1.921-9.734     c-1.882-3.233-2.382-7.028-1.398-10.679c0.976-3.643,3.295-6.681,6.536-8.563c3.108-1.788,4.569-6.079,3.202-9.379     c-1.437-3.467-1.437-7.294,0.008-10.776c1.445-3.487,4.155-6.197,7.622-7.63c3.295-1.378,5.311-5.458,4.381-8.906     c-2.007-7.493,2.46-15.224,9.949-17.235c3.451-0.933,5.981-4.713,5.521-8.246c-0.492-3.721,0.5-7.423,2.803-10.422     c2.296-2.991,5.615-4.904,9.332-5.388c3.53-0.473,6.529-3.894,6.529-7.458c0-7.759,6.318-14.076,14.08-14.088     c3.577,0,6.981-2.983,7.442-6.517c1.023-7.712,8.161-13.167,15.822-12.144c3.491,0.457,7.333-2.112,8.239-5.506     c2.015-7.504,9.746-11.975,17.258-9.964c3.459,0.917,7.52-1.089,8.887-4.381c1.437-3.463,4.139-6.162,7.629-7.61     c2.023-0.84,4.374,0.113,5.225,2.159c0.844,2.042-0.125,4.381-2.163,5.228c-1.515,0.628-2.687,1.792-3.303,3.28     c-2.913,7.052-11.003,11.03-18.344,9.047c-3.264-0.855-6.591,1.062-7.458,4.311c-1.952,7.255-9.496,12.362-17.016,11.363     c-3.374-0.425-6.404,1.929-6.841,5.263c-0.977,7.423-7.864,13.467-15.369,13.467c-3.358,0.004-6.091,2.737-6.091,6.091     c0,7.61-5.919,14.369-13.479,15.388c-1.617,0.207-3.046,1.035-4.038,2.331c-1,1.297-1.429,2.897-1.21,4.502     c0.984,7.556-4.014,15.025-11.37,17.017c-3.249,0.867-5.178,4.205-4.303,7.442c1.937,7.231-2.116,15.466-9.043,18.359     c-1.508,0.625-2.679,1.796-3.304,3.307c-0.625,1.507-0.625,3.163-0.008,4.654c2.874,6.931-0.078,15.619-6.583,19.363     c-1.39,0.809-2.397,2.124-2.819,3.709c-0.422,1.582-0.211,3.213,0.594,4.604c3.811,6.606,2.062,15.419-3.967,20.077     c-2.678,2.054-3.186,5.888-1.148,8.555c4.584,5.951,3.982,15.1-1.335,20.402c-1.14,1.14-1.773,2.678-1.773,4.318     c0,1.632,0.633,3.162,1.773,4.303c5.396,5.396,5.982,14.354,1.335,20.405c-0.984,1.28-1.405,2.897-1.195,4.529     c0.219,1.616,1.039,3.038,2.304,4.007c5.966,4.561,7.762,13.557,4.006,20.062c-1.671,2.913-0.672,6.661,2.233,8.348     c6.497,3.718,9.449,12.409,6.575,19.359c-0.617,1.499-0.617,3.155,0.008,4.662c0.625,1.499,1.796,2.671,3.288,3.28     c7.051,2.928,11.026,10.987,9.059,18.367c-0.422,1.569-0.203,3.217,0.617,4.631c0.82,1.413,2.124,2.413,3.678,2.826     c7.247,1.953,12.346,9.574,11.378,16.993c-0.219,1.616,0.211,3.218,1.21,4.514c1,1.297,2.429,2.124,4.03,2.335     c7.551,1.016,13.463,7.771,13.486,15.369c0,3.373,2.733,6.106,6.099,6.114c7.481,0,14.385,6.044,15.377,13.479     c0.437,3.335,3.482,5.74,6.849,5.264c7.388-0.96,15.041,4.092,16.993,11.347c0.875,3.241,4.186,5.186,7.434,4.311     c7.231-1.905,15.471,2.14,18.336,9.066c0.625,1.516,1.812,2.694,3.334,3.319c1.507,0.617,3.14,0.617,4.631,0     c6.911-2.882,15.626,0.062,19.391,6.583c0.796,1.391,2.116,2.397,3.693,2.819c1.585,0.422,3.233,0.211,4.631-0.602     c6.638-3.803,15.423-2.03,20.07,3.999c2.054,2.662,5.888,3.162,8.543,1.124c5.958-4.568,15.111-3.959,20.397,1.327     c2.39,2.367,6.264,2.391,8.653,0.016c5.287-5.317,14.432-5.935,20.391-1.351c1.279,0.983,2.896,1.397,4.514,1.194     c1.623-0.219,3.053-1.038,4.029-2.318c4.646-6.053,13.471-7.778,20.055-4.007c2.936,1.718,6.66,0.703,8.348-2.21     c3.725-6.505,12.408-9.488,19.367-6.583c3.084,1.28,6.66-0.195,7.957-3.304c2.936-7.066,11.02-11.026,18.367-9.02     c3.24,0.867,6.584-1.085,7.449-4.334c1.961-7.271,9.605-12.354,17.01-11.37c1.568,0.227,3.17-0.211,4.475-1.194     c1.311-1,2.146-2.445,2.357-4.054c0.992-7.435,7.881-13.471,15.361-13.471c0.008,0,0.016,0,0.023,0c3.35,0,6.092-2.757,6.1-6.138     c0.008-7.489,6.059-14.377,13.486-15.338c3.318-0.43,5.668-3.514,5.24-6.856c-0.992-7.552,3.998-15.024,11.369-17.001     c3.24-0.866,5.17-4.217,4.303-7.473c-1.943-7.255,2.117-15.486,9.059-18.352c1.5-0.609,2.656-1.773,3.289-3.272     c0.623-1.515,0.631-3.179,0.008-4.678c-2.883-6.958,0.07-15.649,6.574-19.375c2.906-1.671,3.896-5.419,2.219-8.34     c-3.742-6.497-1.945-15.493,4.006-20.054c2.654-2.047,3.154-5.881,1.109-8.536c-4.631-6.091-4.031-15.056,1.342-20.429     c1.141-1.148,1.773-2.671,1.773-4.303c0-1.633-0.633-3.155-1.781-4.303c-5.295-5.334-5.887-14.486-1.342-20.41     c0.99-1.288,1.412-2.881,1.209-4.502c-0.219-1.628-1.045-3.069-2.334-4.061c-6.045-4.643-7.793-13.459-3.99-20.065     c0.812-1.395,1.029-3.019,0.609-4.588c-0.422-1.593-1.43-2.917-2.836-3.733c-6.605-3.834-9.488-12.346-6.566-19.378     c1.279-3.088-0.211-6.661-3.32-7.958c-7.043-2.933-11.002-10.991-9.02-18.352c0.867-3.237-1.078-6.587-4.334-7.466     c-7.246-1.94-12.338-9.574-11.338-17.013c0.211-1.585-0.219-3.166-1.203-4.459c-1-1.312-2.445-2.155-4.068-2.37     c-7.561-1.007-13.471-7.758-13.463-15.368c0-3.354-2.75-6.095-6.123-6.103c-7.52-0.02-14.408-6.08-15.346-13.51     c-0.43-3.295-3.373-5.665-6.848-5.22c-7.6,0.976-15.025-4.026-17.01-11.367c-0.414-1.562-1.42-2.862-2.826-3.678     c-1.445-0.836-3.084-1.046-4.654-0.629c-7.271,1.933-15.494-2.144-18.359-9.047c-0.609-1.476-1.766-2.636-3.264-3.268     c-2.039-0.859-2.992-3.206-2.133-5.236c0.867-2.038,3.217-2.983,5.24-2.128c3.451,1.456,6.131,4.146,7.543,7.579     c1.367,3.288,5.467,5.294,8.918,4.373c3.617-0.964,7.428-0.46,10.715,1.433c3.256,1.89,5.584,4.916,6.545,8.527     c0.928,3.437,4.717,5.998,8.262,5.51c7.645-0.977,14.791,4.439,15.807,12.128c0.443,3.541,3.85,6.524,7.426,6.536     c7.777,0.023,14.104,6.349,14.104,14.104c-0.008,3.561,2.982,6.966,6.527,7.438c3.734,0.496,7.061,2.432,9.363,5.446     c2.289,2.991,3.266,6.677,2.766,10.375c-0.469,3.529,2.045,7.298,5.49,8.223c7.52,2.027,11.994,9.77,9.988,17.267     c-0.938,3.448,1.068,7.521,4.373,8.895c7.168,2.983,10.588,11.237,7.629,18.398c-1.375,3.3,0.094,7.599,3.193,9.398     c3.258,1.89,5.584,4.943,6.553,8.602c0.969,3.639,0.461,7.418-1.422,10.644c-1.771,3.084-0.891,7.544,1.945,9.719     c2.982,2.296,4.896,5.622,5.389,9.371c0.484,3.74-0.508,7.435-2.805,10.405c-2.154,2.815-1.85,7.345,0.672,9.891     c2.648,2.64,4.115,6.177,4.115,9.949c0,3.764-1.459,7.301-4.115,9.957c-2.521,2.514-2.811,7.059-0.641,9.917     c4.717,6.13,3.561,14.994-2.6,19.734c-2.836,2.179-3.725,6.63-1.938,9.722c3.873,6.748,1.555,15.385-5.162,19.258     c-3.1,1.781-4.553,6.076-3.178,9.387c1.445,3.476,1.438,7.317-0.016,10.816c-1.453,3.475-4.162,6.177-7.629,7.598     c-3.297,1.359-5.295,5.428-4.373,8.879c2.006,7.521-2.469,15.268-9.965,17.267c-3.445,0.93-5.967,4.701-5.498,8.247     c0.984,7.723-4.459,14.813-12.145,15.813c-3.467,0.453-6.512,3.92-6.52,7.427c-0.023,7.785-6.35,14.119-14.104,14.119h-0.008     c-3.506,0-6.975,3.045-7.434,6.521c-0.5,3.732-2.43,7.06-5.443,9.363c-3,2.288-6.701,3.272-10.395,2.765     c-3.545-0.531-7.287,2.054-8.223,5.521c-2.008,7.497-9.715,11.964-17.244,9.98c-3.436-0.938-7.527,1.054-8.902,4.365     c-2.982,7.185-11.236,10.573-18.406,7.622c-3.311-1.367-7.59,0.086-9.379,3.186c-3.912,6.74-12.541,9.035-19.266,5.154     c-3.068-1.772-7.527-0.891-9.715,1.938c-2.264,2.967-5.582,4.88-9.324,5.38c-3.826,0.508-7.465-0.5-10.439-2.78     c-2.781-2.124-7.373-1.835-9.855,0.656C263.238,510.524,259.623,511.898,256.015,511.898z"></path></g></g><g><g><path d="M237.531,276.356c-0.515,0-1.03-0.102-1.53-0.304L43.909,196.492c-2.038-0.843-3.006-3.182-2.163-5.224     c0.852-2.046,3.194-2.999,5.225-2.163l192.091,79.56c2.039,0.844,3.006,3.179,2.164,5.225     C240.584,275.428,239.101,276.356,237.531,276.356z"></path></g></g><g><g><path d="M466.553,371.223c-0.508,0-1.031-0.101-1.531-0.304l-192.084-79.561c-2.037-0.844-3.006-3.187-2.162-5.225     c0.852-2.046,3.209-2.999,5.225-2.163l192.082,79.561c2.039,0.844,3.008,3.178,2.164,5.225     C469.605,370.294,468.121,371.223,466.553,371.223z"></path></g></g><g><g><path d="M45.44,371.223c-1.57,0-3.054-0.929-3.694-2.467c-0.843-2.047,0.125-4.381,2.163-5.225L236,283.955     c2.054-0.844,4.373,0.125,5.225,2.163c0.843,2.038-0.125,4.381-2.164,5.225L46.97,370.919     C46.47,371.122,45.947,371.223,45.44,371.223z"></path></g></g><g><g><path d="M274.477,276.356c-1.57,0-3.053-0.929-3.693-2.468c-0.844-2.046,0.125-4.381,2.162-5.225l192.076-79.56     c2.062-0.84,4.381,0.129,5.225,2.163c0.844,2.042-0.125,4.381-2.164,5.224l-192.074,79.561     C275.508,276.255,274.984,276.356,274.477,276.356z"></path></g></g><g><g><path d="M168.779,494.562c-0.508,0-1.031-0.102-1.531-0.305c-2.038-0.844-3.006-3.187-2.163-5.225l79.561-192.1     c0.844-2.038,3.187-3.006,5.225-2.162c2.038,0.843,3.007,3.178,2.163,5.224l-79.561,192.1     C171.832,493.633,170.348,494.562,168.779,494.562z"></path></g></g><g><g><path d="M343.213,494.562c-1.568,0-3.053-0.93-3.693-2.468l-79.584-192.092c-0.844-2.046,0.125-4.381,2.164-5.224     c2.045-0.844,4.381,0.124,5.225,2.162l79.582,192.092c0.844,2.038-0.125,4.381-2.162,5.225     C344.244,494.461,343.721,494.562,343.213,494.562z"></path></g></g><g><g><path d="M255.726,487.916c-26.473,0-53.36-5.083-79.294-15.829C70.523,428.215,20.044,306.352,63.909,200.436     c21.256-51.303,61.216-91.267,112.523-112.523c2.015-0.832,4.373,0.117,5.224,2.163c0.844,2.042-0.125,4.381-2.163,5.225     c-49.331,20.44-87.76,58.866-108.197,108.197c-42.177,101.84,6.357,219.017,108.197,261.203     c101.833,42.186,219.009-6.356,261.203-108.196c20.438-49.331,20.438-103.671,0-153.006     C420.26,154.162,381.838,115.736,332.5,95.3c-2.039-0.844-3.008-3.183-2.164-5.225c0.852-2.046,3.193-2.995,5.225-2.163     c51.307,21.253,91.273,61.217,112.523,112.523c21.256,51.311,21.256,107.822,0,159.129     C414.949,439.546,337.35,487.916,255.726,487.916z"></path></g></g><g><g><path d="M68.415,273.686c-1.023,0-2.046-0.391-2.827-1.171c-1.562-1.562-1.562-4.092,0-5.653l35.399-35.408     c1.562-1.562,4.092-1.562,5.654,0s1.562,4.092,0,5.654l-35.399,35.407C70.46,273.295,69.437,273.686,68.415,273.686z"></path></g></g><g><g><path d="M128.295,213.805c-1.023,0-2.046-0.391-2.827-1.171c-1.562-1.562-1.562-4.092,0-5.654l57.492-57.499     c1.562-1.562,4.092-1.562,5.653,0c1.562,1.562,1.562,4.092,0,5.653l-57.491,57.5     C130.341,213.414,129.319,213.805,128.295,213.805z"></path></g></g><g><g><path d="M82.846,338.425c-1.023,0-2.046-0.391-2.827-1.172c-1.562-1.562-1.562-4.092,0-5.653l76.952-76.96     c1.562-1.562,4.092-1.562,5.653,0c1.562,1.562,1.562,4.092,0,5.654l-76.952,76.96C84.892,338.034,83.869,338.425,82.846,338.425z     "></path></g></g><g><g><path d="M184.28,236.99c-1.023,0-2.046-0.391-2.827-1.171c-1.562-1.559-1.562-4.092,0-5.654l24.701-24.716     c1.562-1.562,4.092-1.562,5.653,0c1.562,1.558,1.562,4.092,0,5.653l-24.7,24.717C186.326,236.6,185.303,236.99,184.28,236.99z"></path></g></g><g><g><path d="M104.883,395.557c-1.023,0-2.046-0.391-2.827-1.171c-1.562-1.562-1.562-4.093,0-5.654l53.993-54.001     c1.562-1.562,4.092-1.562,5.654,0c1.562,1.562,1.562,4.092,0,5.654l-53.993,54.001     C106.929,395.166,105.907,395.557,104.883,395.557z"></path></g></g><g><g><path d="M313.531,186.895c-1.023,0-2.047-0.391-2.828-1.172c-1.561-1.562-1.561-4.092,0-5.654l54.064-54.071     c1.561-1.562,4.092-1.562,5.652,0c1.562,1.562,1.562,4.092,0,5.654l-54.062,54.071     C315.576,186.504,314.553,186.895,313.531,186.895z"></path></g></g><g><g><path d="M144.414,435.165c-1.023,0-2.046-0.391-2.827-1.171c-1.562-1.562-1.562-4.092,0-5.654l54.055-54.056     c1.562-1.562,4.092-1.562,5.654,0c1.562,1.562,1.562,4.093,0,5.654l-54.056,54.056     C146.459,434.774,145.437,435.165,144.414,435.165z"></path></g></g><g><g><path d="M353.115,226.464c-1.023,0-2.045-0.391-2.826-1.172c-1.562-1.562-1.562-4.092,0-5.653l54.008-54.001     c1.562-1.562,4.092-1.562,5.654,0c1.562,1.562,1.562,4.092,0,5.654l-54.008,54C355.162,226.073,354.139,226.464,353.115,226.464z     "></path></g></g><g><g><path d="M201.601,457.148c-1.023,0-2.046-0.391-2.827-1.172c-1.562-1.562-1.562-4.092,0-5.653l76.937-76.937     c1.561-1.562,4.092-1.562,5.654,0c1.561,1.562,1.561,4.092,0,5.653l-76.938,76.937     C203.647,456.758,202.624,457.148,201.601,457.148z"></path></g></g><g><g><path d="M303.02,355.729c-1.023,0-2.047-0.39-2.828-1.171c-1.561-1.562-1.561-4.092,0-5.654l24.701-24.7     c1.562-1.562,4.092-1.562,5.654,0s1.562,4.092,0,5.653l-24.701,24.701C305.064,355.34,304.043,355.729,303.02,355.729z"></path></g></g><g><g><path d="M352.201,306.555c-1.021,0-2.045-0.391-2.826-1.171c-1.562-1.562-1.562-4.093,0-5.654l76.975-76.976     c1.562-1.562,4.094-1.562,5.654,0c1.562,1.562,1.562,4.092,0,5.654l-76.975,76.976     C354.248,306.164,353.225,306.555,352.201,306.555z"></path></g></g><g><g><path d="M266.23,471.682c-1.023,0-2.047-0.391-2.828-1.172c-1.561-1.562-1.561-4.092,0-5.654l35.494-35.492     c1.561-1.562,4.092-1.562,5.654,0c1.561,1.562,1.561,4.092,0,5.653l-35.494,35.493     C268.275,471.291,267.254,471.682,266.23,471.682z"></path></g></g><g><g><path d="M326.205,411.706c-1.023,0-2.047-0.39-2.826-1.171c-1.562-1.562-1.562-4.092,0-5.654l57.49-57.491     c1.562-1.562,4.092-1.562,5.654,0s1.562,4.092,0,5.653l-57.492,57.492C328.25,411.316,327.229,411.706,326.205,411.706z"></path></g></g><g><g><path d="M408.17,329.732c-1.021,0-2.045-0.391-2.826-1.171c-1.562-1.562-1.562-4.092,0-5.654l35.414-35.415     c1.562-1.562,4.092-1.562,5.654,0c1.562,1.562,1.562,4.093,0,5.654l-35.414,35.415     C410.217,329.342,409.193,329.732,408.17,329.732z"></path></g></g><g><g><path d="M383.713,213.797c-1.023,0-2.047-0.391-2.828-1.171l-57.498-57.508c-1.562-1.562-1.562-4.092,0-5.653     c1.561-1.562,4.092-1.562,5.652,0l57.5,57.507c1.562,1.562,1.562,4.092,0,5.654C385.758,213.406,384.734,213.797,383.713,213.797     z"></path></g></g><g><g><path d="M443.578,273.662c-1.023,0-2.047-0.39-2.828-1.171l-35.422-35.431c-1.562-1.562-1.562-4.092,0-5.654s4.092-1.562,5.654,0     l35.422,35.431c1.562,1.562,1.562,4.092,0,5.653C445.623,273.272,444.6,273.662,443.578,273.662z"></path></g></g><g><g><g><path d="M255.992,236.014c-0.508,0-1.03-0.097-1.53-0.304c-2.038-0.844-3.007-3.183-2.163-5.225L339.52,19.933      c0.852-2.042,3.209-3.002,5.225-2.163c2.037,0.844,3.006,3.183,2.162,5.225l-87.221,210.553      C259.045,235.085,257.562,236.014,255.992,236.014z"></path></g></g><g><g><path d="M255.992,236.014c-1.569,0-3.053-0.929-3.693-2.467L165.084,22.994c-0.843-2.042,0.125-4.381,2.163-5.225      c2.046-0.843,4.381,0.133,5.225,2.163l87.213,210.553c0.844,2.042-0.125,4.381-2.162,5.225      C257.023,235.917,256.5,236.014,255.992,236.014z"></path></g></g><g><g><path d="M180.61,26.228c-1.921,0-3.843-0.355-5.646-1.102c-1.499-0.609-3.139-0.609-4.654,0.016      c-2.015,0.84-4.373-0.113-5.225-2.159c-0.843-2.042,0.125-4.381,2.163-5.229c3.483-1.444,7.31-1.452,10.777-0.016      c3.311,1.379,7.606-0.094,9.387-3.189c3.873-6.72,12.494-9.028,19.25-5.158c3.116,1.808,7.528,0.914,9.699-1.921      c4.756-6.174,13.62-7.333,19.781-2.593c2.842,2.163,7.349,1.851,9.871-0.656c5.474-5.486,14.416-5.49,19.922-0.027      c2.529,2.542,7.066,2.839,9.91,0.66c2.967-2.28,6.676-3.265,10.393-2.772c3.75,0.492,7.068,2.405,9.355,5.393      c2.18,2.831,6.639,3.697,9.715,1.921c6.709-3.881,15.346-1.578,19.25,5.143c1.758,3.057,6.107,4.553,9.379,3.201      c3.467-1.46,7.326-1.44,10.855,0.027c2.037,0.855,2.99,3.198,2.139,5.236c-0.85,2.034-3.186,2.991-5.23,2.144      c-1.531-0.641-3.195-0.641-4.693-0.023c-6.92,2.874-15.627-0.074-19.375-6.587c-1.672-2.897-5.404-3.905-8.324-2.214      c-6.475,3.729-15.494,1.964-20.055-3.979c-0.992-1.292-2.43-2.12-4.053-2.331c-1.602-0.23-3.211,0.207-4.49,1.191      c-5.975,4.557-15.135,3.959-20.43-1.347c-2.357-2.351-6.24-2.354-8.614,0.02c-5.287,5.29-14.439,5.892-20.382,1.351      c-2.694-2.065-6.513-1.55-8.575,1.113c-4.568,5.955-13.549,7.739-20.046,3.979c-2.881-1.66-6.646-0.676-8.316,2.222      C191.566,23.357,186.083,26.228,180.61,26.228z"></path></g></g><g><g><path d="M177.962,47.625c-1.57,0-3.054-0.929-3.694-2.468c-0.843-2.042,0.125-4.381,2.164-5.224      c51.307-21.249,107.822-21.257,159.129-0.016c2.037,0.843,3.006,3.182,2.162,5.224c-0.842,2.039-3.178,3.018-5.223,2.163      c-49.34-20.421-103.684-20.421-153.007,0.016C178.993,47.527,178.478,47.625,177.962,47.625z"></path></g></g><g><g><path d="M210.269,83.836c-1.023,0-2.046-0.391-2.827-1.171c-1.562-1.562-1.562-4.092,0-5.654l35.517-35.509      c1.562-1.562,4.092-1.562,5.654,0c1.562,1.562,1.562,4.092,0,5.654l-35.516,35.508      C212.315,83.445,211.292,83.836,210.269,83.836z"></path></g></g><g><g><path d="M233.455,139.805c-1.023,0-2.046-0.391-2.827-1.171c-1.562-1.562-1.562-4.092,0-5.654l76.945-76.937      c1.562-1.562,4.092-1.562,5.654,0c1.561,1.562,1.561,4.092,0,5.654l-76.945,76.937      C235.5,139.414,234.478,139.805,233.455,139.805z"></path></g></g><g><g><path d="M301.746,83.844c-1.023,0-2.045-0.391-2.826-1.171l-35.518-35.516c-1.561-1.562-1.561-4.092,0-5.654      c1.562-1.562,4.092-1.562,5.654,0l35.518,35.517c1.561,1.562,1.561,4.092,0,5.654C303.793,83.453,302.77,83.844,301.746,83.844z      "></path></g></g><g><g><path d="M278.553,139.82c-1.023,0-2.045-0.391-2.826-1.171l-76.992-76.991c-1.562-1.562-1.562-4.092,0-5.654      c1.562-1.562,4.092-1.562,5.654,0l76.992,76.991c1.561,1.562,1.561,4.092,0,5.654C280.6,139.43,279.576,139.82,278.553,139.82z"></path></g></g></g><g><g><path d="M327.705,236.959c-1.023,0-2.047-0.39-2.828-1.171l-24.678-24.678c-1.561-1.562-1.561-4.092,0-5.653     c1.562-1.562,4.094-1.562,5.654,0l24.678,24.677c1.562,1.562,1.562,4.092,0,5.654     C329.75,236.569,328.727,236.959,327.705,236.959z"></path></g></g><g><g><path d="M429.17,338.433c-1.023,0-2.047-0.391-2.828-1.172l-76.951-76.96c-1.562-1.562-1.562-4.092,0-5.654s4.092-1.562,5.654,0     l76.951,76.96c1.562,1.562,1.562,4.092,0,5.653C431.215,338.042,430.193,338.433,429.17,338.433z"></path></g></g><g><g><path d="M198.43,186.832c-1.023,0-2.046-0.391-2.827-1.172l-54.032-54.032c-1.562-1.562-1.562-4.092,0-5.654     c1.562-1.562,4.092-1.562,5.654,0l54.032,54.032c1.562,1.562,1.562,4.092,0,5.653     C200.476,186.441,199.453,186.832,198.43,186.832z"></path></g></g><g><g><path d="M407.18,395.588c-1.023,0-2.047-0.391-2.828-1.171l-54.031-54.04c-1.562-1.562-1.562-4.092,0-5.654     c1.561-1.562,4.092-1.562,5.654,0l54.031,54.04c1.562,1.562,1.562,4.092,0,5.654C409.225,395.197,408.201,395.588,407.18,395.588     z"></path></g></g><g><g><path d="M158.876,226.456c-1.023,0-2.046-0.391-2.827-1.172l-54.032-54.032c-1.562-1.562-1.562-4.092,0-5.654     c1.562-1.562,4.092-1.562,5.654,0l54.032,54.032c1.562,1.562,1.562,4.092,0,5.653     C160.922,226.065,159.899,226.456,158.876,226.456z"></path></g></g><g><g><path d="M367.594,435.173c-1.023,0-2.047-0.391-2.826-1.171l-54.096-54.095c-1.561-1.562-1.561-4.092,0-5.654     c1.562-1.562,4.092-1.562,5.654,0l54.094,54.095c1.562,1.562,1.562,4.092,0,5.654     C369.641,434.782,368.617,435.173,367.594,435.173z"></path></g></g><g><g><path d="M159.806,306.547c-1.023,0-2.046-0.391-2.827-1.171l-76.937-76.937c-1.562-1.562-1.562-4.092,0-5.654     c1.562-1.562,4.092-1.562,5.653,0l76.937,76.937c1.562,1.562,1.562,4.093,0,5.654     C161.852,306.156,160.829,306.547,159.806,306.547z"></path></g></g><g><g><path d="M208.98,355.722c-1.023,0-2.046-0.39-2.827-1.171l-24.678-24.678c-1.562-1.562-1.562-4.092,0-5.653     c1.562-1.562,4.092-1.562,5.654,0l24.677,24.677c1.562,1.562,1.562,4.092,0,5.654     C211.026,355.332,210.003,355.722,208.98,355.722z"></path></g></g><g><g><path d="M310.359,457.094c-1.021,0-2.045-0.391-2.826-1.172l-76.914-76.913c-1.562-1.562-1.562-4.092,0-5.653     c1.562-1.562,4.092-1.562,5.654,0l76.914,76.913c1.561,1.562,1.561,4.092,0,5.653     C312.406,456.703,311.383,457.094,310.359,457.094z"></path></g></g><g><g><path d="M103.821,329.717c-1.023,0-2.046-0.391-2.827-1.171l-35.735-35.735c-1.562-1.562-1.562-4.092,0-5.653     c1.562-1.562,4.092-1.562,5.654,0l35.734,35.734c1.562,1.562,1.562,4.093,0,5.654     C105.868,329.326,104.844,329.717,103.821,329.717z"></path></g></g><g><g><path d="M185.795,411.69c-1.023,0-2.046-0.39-2.827-1.171l-57.484-57.492c-1.562-1.562-1.562-4.092,0-5.653     c1.562-1.562,4.092-1.562,5.654,0l57.483,57.491c1.562,1.562,1.562,4.092,0,5.654C187.841,411.301,186.818,411.69,185.795,411.69     z"></path></g></g><g><g><path d="M245.786,471.689c-1.023,0-2.046-0.391-2.827-1.172l-35.493-35.493c-1.562-1.562-1.562-4.092,0-5.653     c1.562-1.562,4.092-1.562,5.654,0l35.493,35.492c1.562,1.562,1.562,4.093,0,5.654     C247.832,471.299,246.808,471.689,245.786,471.689z"></path></g></g></g></svg>