<svg xmlns="http://www.w3.org/2000/svg" xmlns:xlink="http://www.w3.org/1999/xlink" version="1.1" x="0px" y="0px" viewBox="0 0 100 100" enable-background="new 0 0 100 100" xml:space="preserve"><rect fill="none" width="100" height="100"></rect><path d="M88.082,59.732l-7.908-32.948h0.642v-1.023H79.14c-0.322-4.104-3.751-1.456-3.751-1.456h-1.023  c-5.098-1.289-18.838-1.104-22.157-1.039c0.065-6.041,1.244-7.975,1.244-7.975c3.932,0.64,3.484-1.726,3.484-1.726  c-0.857-2.449-6.464-2.318-6.937-2.303c-0.473-0.016-6.079-0.146-6.937,2.303c0,0-0.447,2.365,3.484,1.726  c0,0,1.179,1.934,1.244,7.975c-3.319-0.065-17.059-0.25-22.157,1.039h-1.022c0,0-3.43-2.648-3.751,1.456h-1.677v1.023h0.642  l-7.908,32.948H8.546l0.895,3.579c0,0,1.15,1.149,3.835,1.149h7.101h1.451h7.101c2.685,0,3.835-1.149,3.835-1.149l0.895-3.579  h-3.372l-7.908-32.948h0.643v-1.023h-1.503c0.123-0.779,0.664-2.288,3.031-0.562h1.087h22.428l0.636,3.346l-0.603,1.051h-1.79  c0,0-0.127,2.813,1.492,2.813l-0.25,32.691c0,0-0.923,1.229,0.144,1.74l-1.918,2.215l-0.767,0.384v0.576l1.48,1.48v10.087  c0,0-3.438,0-3.438,2.813l-7.976,2.365v1.982h14.895h0.064h14.895v-1.982l-7.976-2.365c0-2.813-3.438-2.813-3.438-2.813V71.496  l1.48-1.48v-0.576l-0.767-0.384l-1.918-2.215c1.066-0.512,0.144-1.74,0.144-1.74l-0.25-32.691c1.619,0,1.492-2.813,1.492-2.813  h-1.79l-0.603-1.051l0.636-3.346h22.428h1.087c2.368-1.726,2.908-0.217,3.031,0.562H76.98v1.023h0.643l-7.907,32.948h-3.373  l0.895,3.579c0,0,1.15,1.149,3.835,1.149h7.101h1.451h7.101c2.685,0,3.834-1.149,3.834-1.149l0.896-3.579H88.082z M30.06,59.732  h-8.232h-1.451h-8.232l7.907-32.948h2.102L30.06,59.732z M50,83.33l-0.352-59.537c0,0,0.639-9.845-2.94-9.845  c0,0-0.19-1.334,3.292-1.342c3.482,0.008,3.292,1.342,3.292,1.342c-3.579,0-2.94,9.845-2.94,9.845L50,83.33z M79.624,59.732h-1.451  H69.94l7.907-32.948h2.101l7.908,32.948H79.624z"></path></svg>