<svg xmlns="http://www.w3.org/2000/svg" xmlns:xlink="http://www.w3.org/1999/xlink" version="1.1" x="0px" y="0px" viewBox="0 0 100 100" style="enable-background:new 0 0 100 100;" xml:space="preserve"><style type="text/css">
	.st0{fill:none;stroke:#000000;stroke-width:2;stroke-linecap:round;stroke-linejoin:round;stroke-miterlimit:10;}
	.st1{fill:none;stroke:#000000;stroke-width:2;stroke-miterlimit:10;}
</style><path d="M23.229,29.742c0.195,0.195,0.451,0.293,0.707,0.293s0.512-0.098,0.707-0.293l2.146-2.146l2.146,2.146  c0.195,0.195,0.451,0.293,0.707,0.293s0.512-0.098,0.707-0.293c0.391-0.391,0.391-1.023,0-1.414l-2.146-2.146l2.146-2.146  c0.391-0.391,0.391-1.023,0-1.414s-1.023-0.391-1.414,0l-2.146,2.146l-2.146-2.146c-0.391-0.391-1.023-0.391-1.414,0  s-0.391,1.023,0,1.414l2.146,2.146l-2.146,2.146C22.839,28.719,22.839,29.352,23.229,29.742z"></path><path d="M23.229,53.989c0.195,0.195,0.451,0.293,0.707,0.293s0.512-0.098,0.707-0.293l2.146-2.146l2.146,2.146  c0.195,0.195,0.451,0.293,0.707,0.293s0.512-0.098,0.707-0.293c0.391-0.391,0.391-1.023,0-1.414l-2.146-2.146l2.146-2.146  c0.391-0.391,0.391-1.023,0-1.414s-1.023-0.391-1.414,0l-2.146,2.146l-2.146-2.146c-0.391-0.391-1.023-0.391-1.414,0  s-0.391,1.023,0,1.414l2.146,2.146l-2.146,2.146C22.839,52.966,22.839,53.599,23.229,53.989z"></path><path d="M72.235,22.423V11.502c0-0.553-0.447-1-1-1H11.533c-0.553,0-1,0.447-1,1v78c0,0.553,0.447,1,1,1h59.702c0.553,0,1-0.447,1-1  V69.937c10.177-3.104,17.603-12.578,17.603-23.757S82.412,25.527,72.235,22.423z M60.684,88.502l9.551-9.571v9.571H60.684z   M59.774,86.582v-8.541h8.523L59.774,86.582z M70.235,76.041H58.774c-0.553,0-1,0.447-1,1v11.461H12.533v-76h57.702v9.404  c-1.687-0.363-3.436-0.559-5.23-0.559c-13.693,0-24.834,11.14-24.834,24.833s11.141,24.834,24.834,24.834  c1.794,0,3.543-0.196,5.23-0.559V76.041z M65.005,69.014c-12.591,0-22.834-10.243-22.834-22.834  c0-12.59,10.243-22.833,22.834-22.833c12.59,0,22.833,10.243,22.833,22.833C87.838,58.771,77.595,69.014,65.005,69.014z"></path><path d="M65.005,25.188c-11.575,0-20.992,9.417-20.992,20.991c0,11.575,9.417,20.992,20.992,20.992  c11.574,0,20.991-9.417,20.991-20.992C85.996,34.605,76.579,25.188,65.005,25.188z M65.005,65.172  c-10.473,0-18.992-8.52-18.992-18.992c0-10.472,8.52-18.991,18.992-18.991c10.472,0,18.991,8.52,18.991,18.991  C83.996,56.652,75.477,65.172,65.005,65.172z"></path><path d="M58.102,46.156c0-2.153-1.752-3.905-3.905-3.905s-3.904,1.752-3.904,3.905s1.751,3.905,3.904,3.905  S58.102,48.31,58.102,46.156z M54.196,48.062c-1.05,0-1.904-0.854-1.904-1.905s0.854-1.905,1.904-1.905  c1.051,0,1.905,0.854,1.905,1.905S55.247,48.062,54.196,48.062z"></path><path d="M72.389,49.062c0,2.153,1.752,3.905,3.905,3.905s3.905-1.752,3.905-3.905s-1.752-3.905-3.905-3.905  S72.389,46.908,72.389,49.062z M78.199,49.062c0,1.051-0.854,1.905-1.905,1.905s-1.905-0.854-1.905-1.905s0.854-1.905,1.905-1.905  S78.199,48.011,78.199,49.062z"></path><path d="M73.171,35.966c0-1.788-1.454-3.242-3.242-3.242c-0.771,0-1.47,0.281-2.027,0.732c-0.445-2.186-2.382-3.835-4.697-3.835  c-2.43,0-4.422,1.824-4.731,4.171c-0.4-0.177-0.84-0.279-1.305-0.279c-1.788,0-3.242,1.454-3.242,3.242  c0,1.787,1.454,3.241,3.242,3.241c1.322,0,2.457-0.797,2.962-1.934c0.651,0.55,1.441,0.93,2.319,1.07  c-0.149,0.415-0.244,0.855-0.244,1.32c0,0.957,0.357,1.824,0.927,2.507c-0.852,0.585-1.413,1.564-1.413,2.673  c0,0.928,0.397,1.761,1.025,2.353c-1.072,0.828-1.807,2.05-1.995,3.456c-0.418-0.193-0.878-0.309-1.368-0.309  c-1.809,0-3.279,1.471-3.279,3.279c0,1.808,1.471,3.278,3.279,3.278c1.269,0,2.359-0.732,2.903-1.789  c0.938,0.909,2.208,1.474,3.611,1.485c-0.168,0.394-0.262,0.828-0.262,1.283c0,1.808,1.471,3.278,3.278,3.278  c1.809,0,3.279-1.471,3.279-3.278c0-1.463-0.97-2.691-2.296-3.111c0.8-0.923,1.302-2.112,1.302-3.426  c0-2.253-1.432-4.163-3.427-4.91c0.268-0.472,0.434-1.009,0.434-1.59c0-0.585-0.168-1.126-0.439-1.6  c1.364-0.62,2.318-1.987,2.318-3.58c0-0.44-0.089-0.856-0.223-1.251c0.024,0,0.046,0.007,0.069,0.007  C71.717,39.208,73.171,37.754,73.171,35.966z M69.929,34.724c0.685,0,1.242,0.558,1.242,1.242s-0.558,1.242-1.242,1.242  s-1.242-0.558-1.242-1.242S69.244,34.724,69.929,34.724z M57.169,37.995c-0.685,0-1.242-0.557-1.242-1.241s0.558-1.242,1.242-1.242  s1.242,0.558,1.242,1.242S57.854,37.995,57.169,37.995z M60.411,34.414c0-1.541,1.253-2.794,2.794-2.794s2.794,1.253,2.794,2.794  s-1.253,2.794-2.794,2.794S60.411,35.955,60.411,34.414z M66.203,45.633c0,0.685-0.558,1.242-1.242,1.242s-1.242-0.558-1.242-1.242  s0.558-1.242,1.242-1.242S66.203,44.948,66.203,45.633z M59.381,55.69c-0.705,0-1.279-0.573-1.279-1.278s0.574-1.279,1.279-1.279  s1.278,0.574,1.278,1.279S60.086,55.69,59.381,55.69z M68.911,59.948c-0.705,0-1.278-0.573-1.278-1.278s0.573-1.278,1.278-1.278  s1.279,0.573,1.279,1.278S69.616,59.948,68.911,59.948z M69.196,52.133c0,1.797-1.462,3.259-3.259,3.259s-3.259-1.462-3.259-3.259  c0-1.796,1.462-3.258,3.259-3.258S69.196,50.337,69.196,52.133z M66.144,42.391c-1.069,0-1.938-0.869-1.938-1.938  s0.869-1.938,1.938-1.938s1.938,0.869,1.938,1.938S67.213,42.391,66.144,42.391z"></path><path d="M34.96,17.17H18.618c-0.553,0-1,0.447-1,1v16.342c0,0.553,0.447,1,1,1H34.96c0.553,0,1-0.447,1-1V18.17  C35.96,17.617,35.513,17.17,34.96,17.17z M33.96,33.512H19.618V19.17H33.96V33.512z"></path><path d="M34.96,41.258H18.618c-0.553,0-1,0.447-1,1V58.6c0,0.553,0.447,1,1,1H34.96c0.553,0,1-0.447,1-1V42.258  C35.96,41.705,35.513,41.258,34.96,41.258z M33.96,57.6H19.618V43.258H33.96V57.6z"></path><path d="M34.96,65.347H18.618c-0.553,0-1,0.447-1,1v16.342c0,0.553,0.447,1,1,1H34.96c0.553,0,1-0.447,1-1V66.347  C35.96,65.794,35.513,65.347,34.96,65.347z M33.96,81.688H19.618V67.347H33.96V81.688z"></path></svg>