<svg xmlns="http://www.w3.org/2000/svg" xmlns:xlink="http://www.w3.org/1999/xlink" viewBox="0 0 100 100" version="1.1" x="0px" y="0px"><title>Snus Copy 2</title><desc>Created with Sketch.</desc><g stroke="none" stroke-width="1" fill="none" fill-rule="evenodd"><g fill="#000000"><g transform="translate(14.000000, 17.000000)"><polygon fill-rule="nonzero" points="2.08695652 55.38 2.08695652 36.66 0 36.66 0 55.38"></polygon><polygon fill-rule="nonzero" points="2.08695652 14.04 2.08695652 7.8 0 7.8 0 14.04"></polygon><polygon fill-rule="nonzero" points="72 55.38 72 36.66 69.9130435 36.66 69.9130435 55.38"></polygon><polygon fill-rule="nonzero" points="72 14.04 72 7.8 69.9130435 7.8 69.9130435 14.04"></polygon><path d="M36,16.12 C26.5376885,16.12 17.662614,15.3661505 11.0758957,14.0433998 C4.01580922,12.6255869 0,10.7189051 0,8.06 C0,5.40109488 4.01580922,3.49441306 11.0758957,2.07660017 C17.662614,0.753849501 26.5376885,0 36,0 C45.4623115,0 54.337386,0.753849501 60.9241043,2.07660017 C67.9841908,3.49441306 72,5.40109488 72,8.06 C72,10.7189051 67.9841908,12.6255869 60.9241043,14.0433998 C54.337386,15.3661505 45.4623115,16.12 36,16.12 Z M36,14.04 C45.3322482,14.04 54.0719793,13.2976466 60.5118828,12.0043794 C66.4784182,10.8061744 69.9130435,9.17543519 69.9130435,8.06 C69.9130435,6.94456481 66.4784182,5.3138256 60.5118828,4.11562062 C54.0719793,2.82235343 45.3322482,2.08 36,2.08 C26.6677518,2.08 17.9280207,2.82235343 11.4881172,4.11562062 C5.5215818,5.3138256 2.08695652,6.94456481 2.08695652,8.06 C2.08695652,9.17543519 5.5215818,10.8061744 11.4881172,12.0043794 C17.9280207,13.2976466 26.6677518,14.04 36,14.04 Z" fill-rule="nonzero"></path><path d="M36,45.24 C26.5376885,45.24 17.662614,44.4861505 11.0758957,43.1633998 C4.01580922,41.7455869 0,39.8389051 0,37.18 C0,34.5210949 4.01580922,32.6144131 11.0758957,31.1966002 C17.662614,29.8738495 26.5376885,29.12 36,29.12 C45.4623115,29.12 54.337386,29.8738495 60.9241043,31.1966002 C67.9841908,32.6144131 72,34.5210949 72,37.18 C72,39.8389051 67.9841908,41.7455869 60.9241043,43.1633998 C54.337386,44.4861505 45.4623115,45.24 36,45.24 Z M36,43.16 C45.3322482,43.16 54.0719793,42.4176466 60.5118828,41.1243794 C66.4784182,39.9261744 69.9130435,38.2954352 69.9130435,37.18 C69.9130435,36.0645648 66.4784182,34.4338256 60.5118828,33.2356206 C54.0719793,31.9423534 45.3322482,31.2 36,31.2 C26.6677518,31.2 17.9280207,31.9423534 11.4881172,33.2356206 C5.5215818,34.4338256 2.08695652,36.0645648 2.08695652,37.18 C2.08695652,38.2954352 5.5215818,39.9261744 11.4881172,41.1243794 C17.9280207,42.4176466 26.6677518,43.16 36,43.16 Z" fill-rule="nonzero"></path><path d="M72,65 C72,59.1683898 55.9912186,55.12 36,55.12 C16.0087814,55.12 0,59.1683898 0,65 L2.08695652,65 C2.08695652,63.3191544 5.48323826,61.2885561 11.5386375,59.757233 C17.9614572,58.1329946 26.6841649,57.2 36,57.2 C45.3158351,57.2 54.0385428,58.1329946 60.4613625,59.757233 C66.5167617,61.2885561 69.9130435,63.3191544 69.9130435,65 L72,65 Z" fill-rule="nonzero" transform="translate(36.000000, 60.060000) scale(1, -1) translate(-36.000000, -60.060000) "></path><path d="M72,21.06 C72,18.4010949 67.9841908,16.4944131 60.9241043,15.0766002 C54.337386,13.7538495 45.4623115,13 36,13 C26.5376885,13 17.662614,13.7538495 11.0758957,15.0766002 C4.01580922,16.4944131 0,18.4010949 0,21.06 C0,21.6343761 0.467181131,22.1 1.04347826,22.1 C1.61977539,22.1 2.08695652,21.6343761 2.08695652,21.06 C2.08695652,19.9445648 5.5215818,18.3138256 11.4881172,17.1156206 C17.9280207,15.8223534 26.6677518,15.08 36,15.08 C45.3322482,15.08 54.0719793,15.8223534 60.5118828,17.1156206 C66.4784182,18.3138256 69.9130435,19.9445648 69.9130435,21.06 C69.9130435,21.6343761 70.3802246,22.1 70.9565217,22.1 C71.5328189,22.1 72,21.6343761 72,21.06 Z" fill-rule="nonzero" transform="translate(36.000000, 17.550000) scale(1, -1) translate(-36.000000, -17.550000) "></path><path d="M4.17391304,40.3848291 C4.17391304,40.3848291 2.60869565,37.44 6.7826087,34.84 C10.9565217,32.24 12.5217391,28.9393166 17.7391304,28.9393166 C22.9565217,28.9393166 22.4347826,27.0317312 25.0434783,25.7600076 C27.6521739,24.4882839 32.3478261,21.9448367 35.4782609,24.4882839 C38.6086957,27.0317312 41.2173913,29.5751784 45.3913043,27.667593 C49.5652174,25.7600076 51.6521739,29.1655277 55.826087,31.4827638 C60,33.8 58.4347826,31.4344799 63.6521739,34.84 C68.8695652,38.2455201 69.3913043,39.2289673 69.3913043,39.2289673 L65.7391304,40.3848291 L53.2173913,42.9282764 L39.1304348,44.2 L25.5652174,44.2 L15.1304348,42.9282764 L4.17391304,40.3848291 Z"></path></g></g></g></svg>
