<svg xmlns="http://www.w3.org/2000/svg" xmlns:xlink="http://www.w3.org/1999/xlink" version="1.1" x="0px" y="0px" viewBox="0 0 100 100" style="enable-background:new 0 0 100 100;" xml:space="preserve"><style type="text/css">
	.st0{fill:none;stroke:#000000;stroke-width:0.896;stroke-linecap:round;stroke-linejoin:round;stroke-miterlimit:10;}
	.st1{fill:none;stroke:#000000;stroke-width:0.896;stroke-miterlimit:10;}
	.st2{fill:none;stroke:#000000;stroke-width:1.317;stroke-linecap:round;stroke-linejoin:round;stroke-miterlimit:10;}
	.st3{fill:none;stroke:#000000;stroke-width:0.6585;stroke-linecap:round;stroke-linejoin:round;stroke-miterlimit:10;}
	.st4{fill:none;stroke:#000000;stroke-width:1.1815;stroke-miterlimit:10;}
	.st5{fill:none;stroke:#000000;stroke-width:2.1934;stroke-miterlimit:10;}
	.st6{fill:none;stroke:#000000;stroke-width:0.6015;stroke-miterlimit:10;}
	.st7{fill:none;stroke:#000000;stroke-width:8.0198;stroke-linejoin:round;stroke-miterlimit:10;}
	.st8{fill:none;stroke:#000000;stroke-width:2.4814;stroke-linecap:square;stroke-linejoin:round;stroke-miterlimit:10;}
	.st9{fill:none;stroke:#000000;stroke-width:1.1835;stroke-miterlimit:10;}
	.st10{fill:none;stroke:#000000;stroke-width:1.1888;stroke-miterlimit:10;}
	.st11{fill:none;stroke:#000000;stroke-width:0.4755;stroke-miterlimit:10;}
	.st12{fill:none;stroke:#000000;stroke-width:0.7453;stroke-miterlimit:10;}
	.st13{fill:none;stroke:#000000;stroke-width:0.2981;stroke-miterlimit:10;}
	.st14{fill:none;stroke:#000000;stroke-width:1.5153;stroke-linecap:round;stroke-linejoin:round;stroke-miterlimit:10;}
	.st15{fill:none;stroke:#000000;stroke-width:0.9092;stroke-linecap:round;stroke-linejoin:round;stroke-miterlimit:10;}
	.st16{fill:none;stroke:#000000;stroke-width:1.623;stroke-linecap:round;stroke-linejoin:round;stroke-miterlimit:10;}
	.st17{fill:none;stroke:#000000;stroke-width:1.082;stroke-miterlimit:10;}
	.st18{fill:none;stroke:#000000;stroke-width:1.623;stroke-miterlimit:10;}
	.st19{fill:none;stroke:#000000;stroke-width:2.164;stroke-miterlimit:10;}
	.st20{fill:none;stroke:#000000;stroke-width:1.3464;stroke-miterlimit:10;}
	.st21{fill:none;stroke:#000000;stroke-width:1.3457;stroke-miterlimit:10;}
	.st22{fill:none;stroke:#000000;stroke-width:0.7825;stroke-linecap:round;stroke-linejoin:round;stroke-miterlimit:10;}
	.st23{fill:none;stroke:#000000;stroke-width:0.7825;stroke-miterlimit:10;}
	.st24{fill:none;stroke:#000000;stroke-width:0.3913;stroke-miterlimit:10;}
	.st25{fill:none;stroke:#000000;stroke-width:2.1175;stroke-linecap:round;stroke-linejoin:round;stroke-miterlimit:10;}
	.st26{fill:none;stroke:#000000;stroke-width:4.523;stroke-miterlimit:10;}
	.st27{fill:none;stroke:#000000;stroke-width:0.5812;stroke-linecap:round;stroke-linejoin:round;stroke-miterlimit:10;}
	.st28{fill:none;stroke:#000000;stroke-width:1.5498;stroke-linecap:round;stroke-linejoin:round;stroke-miterlimit:10;}
	.st29{fill:none;stroke:#000000;stroke-width:0.3874;stroke-miterlimit:10;}
	.st30{fill:none;stroke:#000000;stroke-width:1.4242;stroke-miterlimit:10;}
	.st31{fill:none;stroke:#000000;stroke-width:0.7121;stroke-miterlimit:10;}
	.st32{fill:none;stroke:#000000;stroke-width:2.7985;stroke-miterlimit:10;}
	.st33{fill:none;stroke:#000000;stroke-width:1.6937;stroke-miterlimit:10;}
	.st34{fill:none;stroke:#000000;stroke-width:5.0524;stroke-miterlimit:10;}
	.st35{fill:none;stroke:#000000;stroke-width:5.0523;stroke-miterlimit:10;}
	.st36{fill:none;stroke:#000000;stroke-width:5.0143;stroke-miterlimit:10;}
	.st37{fill:none;}
	.st38{fill:none;stroke:#000000;stroke-width:6.5803;stroke-linecap:round;stroke-linejoin:round;stroke-miterlimit:10;}
	.st39{fill:none;stroke:#000000;stroke-width:0.2979;stroke-miterlimit:10;}
	.st40{fill:none;stroke:#000000;stroke-width:7.9552;stroke-miterlimit:10;}
	.st41{fill:none;stroke:#000000;stroke-width:1.3809;stroke-miterlimit:10;}
	.st42{fill:none;stroke:#000000;stroke-width:0.6905;stroke-miterlimit:10;}
	.st43{fill:none;stroke:#000000;stroke-width:0.9199;stroke-linecap:round;stroke-linejoin:round;stroke-miterlimit:10;}
	.st44{fill:none;stroke:#000000;stroke-width:1.0373;stroke-miterlimit:10;}
	.st45{fill:none;stroke:#000000;stroke-width:1.0373;stroke-linecap:round;stroke-linejoin:round;stroke-miterlimit:10;}
	.st46{fill:none;stroke:#000000;stroke-width:1.0277;stroke-linecap:round;stroke-linejoin:round;stroke-miterlimit:10;}
	.st47{fill:none;stroke:#000000;stroke-width:2.0793;stroke-linecap:round;stroke-linejoin:round;stroke-miterlimit:10;}
	.st48{fill:none;stroke:#000000;stroke-width:0.8649;stroke-linecap:round;stroke-linejoin:round;}
	.st49{fill:none;stroke:#000000;stroke-width:0.4123;stroke-linecap:round;stroke-linejoin:round;}
	.st50{fill:none;stroke:#030404;stroke-width:0.4123;stroke-linecap:round;stroke-linejoin:round;}
	.st51{fill:none;stroke:#000000;stroke-width:1.7123;stroke-miterlimit:10;}
	.st52{fill:none;stroke:#000000;stroke-width:10.5125;stroke-miterlimit:10;}
	.st53{fill:none;stroke:#000000;stroke-width:2.4869;stroke-miterlimit:10;}
	.st54{fill:none;stroke:#000000;stroke-width:4.012;stroke-miterlimit:10;}
	.st55{fill:none;stroke:#000000;stroke-width:1.6048;stroke-miterlimit:10;}
	.st56{fill:none;stroke:#000000;stroke-width:0.1605;stroke-miterlimit:10;}
	.st57{fill:none;stroke:#000000;stroke-width:0.8183;stroke-miterlimit:10;}
	.st58{fill:none;stroke:#000000;stroke-width:2.7021;stroke-miterlimit:10;}
	.st59{fill:none;stroke:#000000;stroke-width:4.0015;stroke-linecap:round;stroke-linejoin:round;stroke-miterlimit:10;}
	.st60{fill:none;stroke:#000000;stroke-width:6.0976;stroke-linecap:round;stroke-linejoin:round;stroke-miterlimit:10;}
	.st61{fill:none;stroke:#000000;stroke-width:0.519;stroke-miterlimit:10;}
	.st62{fill:none;stroke:#000000;stroke-width:1.2266;stroke-miterlimit:10;}
	.st63{fill:none;stroke:#000000;stroke-width:0.7024;stroke-miterlimit:10;}
</style><g><path class="st39" d="M58.6,79.1c0-0.5,0-1.1,0-1.6c0.3-11.9,3.8-19.8,3.8-19.8c4.2-9,23-9.4,23-9.4c-2.5,0-5.1-0.2-7.6-0.3   c-2.4-0.2-4.9-0.3-7.4-0.8c-2.2-0.4-4.3-1.3-6-2.8c-1.4-1.3-2.3-3-2.8-4.8c-0.6-2-0.8-4.2-1.2-6.3c-0.6-3.6-1-7.1-1.4-10.7   c-0.2-1.6-0.3-3.2-0.5-4.8c0,0-2,21.7-4,25.4c0,0-2.4,5.3-21.2,5.3c0,0,17.6,0.5,21.2,9c0,0,4,11.4,4,21.4"></path><path class="st39" d="M37.4,82.5c0-0.3,0-0.5,0-0.8c0.1-5.8,1.8-9.6,1.8-9.6c2-4.4,11.2-4.6,11.2-4.6c-1.2,0-2.5-0.1-3.7-0.2   c-1.2-0.1-2.4-0.2-3.6-0.4c-1.1-0.2-2.1-0.6-2.9-1.4c-0.7-0.6-1.1-1.5-1.3-2.3c-0.3-1-0.4-2-0.6-3c-0.3-1.7-0.5-3.5-0.7-5.2   c-0.1-0.8-0.2-1.5-0.2-2.3c0,0-1,10.5-1.9,12.3c0,0-1.2,2.5-10.3,2.5c0,0,8.5,0.3,10.3,4.4c0,0,1.9,5.5,1.9,10.4"></path><path class="st39" d="M26.8,47.2c0-0.3,0-0.5,0-0.8c0.1-5.8,1.8-9.6,1.8-9.6c2-4.4,11.2-4.6,11.2-4.6c-1.2,0-2.5-0.1-3.7-0.2   c-1.2-0.1-2.4-0.2-3.6-0.4c-1.1-0.2-2.1-0.6-2.9-1.4c-0.7-0.6-1.1-1.5-1.3-2.3c-0.3-1-0.4-2-0.6-3c-0.3-1.7-0.5-3.5-0.7-5.2   c-0.1-0.8-0.2-1.5-0.2-2.3c0,0-1,10.5-1.9,12.3c0,0-1.2,2.5-10.3,2.5c0,0,8.5,0.3,10.3,4.4c0,0,1.9,5.5,1.9,10.4"></path></g></svg>